{
.appVersion = "1141";
customParameters = (
{
name = glyphOrder;
value = (
space,
exclam,
quotedbl,
numbersign,
dollar,
percent,
ampersand,
quotesingle,
parenleft,
parenright,
asterisk,
plus,
comma,
hyphen,
period,
slash,
zero,
one,
two,
three,
four,
five,
six,
seven,
eight,
nine,
colon,
semicolon,
less,
equal,
greater,
question,
at,
A,
B,
C,
D,
E,
F,
G,
H,
I,
J,
K,
L,
M,
N,
O,
P,
Q,
R,
S,
T,
U,
V,
W,
X,
Y,
Z,
bracketleft,
backslash,
bracketright,
asciicircum,
underscore,
grave,
a,
b,
c,
d,
e,
f,
g,
h,
i,
j,
k,
l,
m,
n,
o,
p,
q,
r,
s,
t,
u,
v,
w,
x,
y,
z,
braceleft,
bar,
braceright,
asciitilde,
exclamdown,
cent,
sterling,
currency,
yen,
brokenbar,
section,
dieresis,
copyright,
ordfeminine,
guillemotleft,
logicalnot,
registered,
macron,
degree,
plusminus,
twosuperior,
threesuperior,
acute,
paragraph,
periodcentered,
cedilla,
onesuperior,
ordmasculine,
guillemotright,
onequarter,
onehalf,
threequarters,
questiondown,
Agrave,
Aacute,
Acircumflex,
Atilde,
Adieresis,
Aring,
AE,
Ccedilla,
Egrave,
Eacute,
Ecircumflex,
Edieresis,
Igrave,
Iacute,
Icircumflex,
Idieresis,
Eth,
Ntilde,
Ograve,
Oacute,
Ocircumflex,
Otilde,
Odieresis,
multiply,
Oslash,
OE,
Ugrave,
Uacute,
Ucircumflex,
Udieresis,
Yacute,
Thorn,
germandbls,
agrave,
aacute,
acircumflex,
atilde,
adieresis,
aring,
ae,
ccedilla,
egrave,
eacute,
ecircumflex,
edieresis,
igrave,
iacute,
icircumflex,
idieresis,
eth,
ntilde,
ograve,
oacute,
ocircumflex,
otilde,
odieresis,
divide,
oslash,
oe,
ugrave,
uacute,
ucircumflex,
udieresis,
yacute,
thorn,
ydieresis,
circumflex,
caron,
breve,
dotaccent,
ring,
ogonek,
tilde,
hungarumlaut,
quoteleft,
quoteright,
minus,
.notdef,
f_f,
f_f_i,
f_f_l,
ellipsis,
endash,
emdash,
quotedblleft,
quotedblright,
quotesinglbase,
quotedblbase,
guilsinglleft,
guilsinglright,
dagger,
daggerdbl,
bullet,
Aringacute,
Amacron,
Abreve,
Aogonek,
AEacute,
Cacute,
Ccircumflex,
Cdotaccent,
Ccaron,
Dcaron,
Dcroat,
Emacron,
Ebreve,
Edotaccent,
Eogonek,
Ecaron,
Gcircumflex,
Gbreve,
Gdotaccent,
Gcommaaccent,

glyphs = (
{
glyphname = exclam;
layers = (
{
layerId = "33953612-DAF4-435D-999F-265D395630EB";
paths = (
{
closed = 1;
nodes = (
"41.246 23.349 OFFCURVE",
"51.889 33.476 OFFCURVE",
"61.5 33.476 QCURVE SMOOTH",
"71.111 33.476 OFFCURVE",
"79.69 23.349 OFFCURVE",
"78.659 14.254 QCURVE SMOOTH",
"77.627 5.675 OFFCURVE",
"65.952 -4.452 OFFCURVE",
"56.341 -4.452 QCURVE SMOOTH",
"47.246 -4.452 OFFCURVE",
"39.183 5.675 OFFCURVE",
"40.214 14.77 QCURVE SMOOTH"
);
},
{
closed = 1;
nodes = (
"285.619 1456.968 LINE",
"294.714 1456.968 LINE",
"121.69 383.349 LINE",
"113.627 383.349 LINE"
);
}
);
width = 346;
}
);
unicode = 0021;
},
{
glyphname = quotedbl;
layers = (
{
layerId = "33953612-DAF4-435D-999F-265D395630EB";
paths = (
{
closed = 1;
nodes = (
"212.04 1340.849 LINE",
"230.23 1456.968 LINE",
"238.294 1456.968 LINE",
"220.103 1340.849 LINE",
"178.944 1090.913 LINE",
"173.46 1090.913 LINE"
);
},
{
closed = 1;
nodes = (
"402.635 1340.849 LINE",
"420.825 1456.968 LINE",
"428.889 1456.968 LINE",
"410.698 1340.849 LINE",
"369.54 1090.913 LINE",
"364.056 1090.913 LINE"
);
}
);
width = 429;
}
);
leftKerningGroup = minute;
rightKerningGroup = minute;
unicode = 0022;
},
{
glyphname = numbersign;
layers = (
{
layerId = "33953612-DAF4-435D-999F-265D395630EB";
paths = (
{
closed = 1;
nodes = (
"536.952 1476 LINE",
"545.532 1476 LINE",
"55.389 -19.032 LINE",
"46.81 -19.032 LINE"
);
},
{
closed = 1;
nodes = (
"824.587 1476 LINE",
"832.651 1476 LINE",
"343.024 -19.032 LINE",
"333.929 -19.032 LINE"
);
},
{
closed = 1;
nodes = (
"24.381 578.437 LINE",
"757.175 578.437 LINE",
"756.143 570.373 LINE",
"23.349 570.373 LINE"
);
},
{
closed = 1;
nodes = (
"120.929 895.119 LINE",
"856.111 895.119 LINE",
"852.175 887.056 LINE",
"119.897 887.056 LINE"
);
}
);
width = 878;
}
);
unicode = 0023;
},
{
glyphname = dollar;
layers = (
{
layerId = "33953612-DAF4-435D-999F-265D395630EB";
paths = (
{
closed = 1;
nodes = (
"21.794 430.206 LINE",
"29.857 430.206 LINE",
"14.817 308.667 LINE",
"-0.087 130.563 OFFCURVE",
"139.794 -4.833 OFFCURVE",
"288.96 -4.317 QCURVE SMOOTH",
"437.421 -3.802 OFFCURVE",
"612.651 143.595 OFFCURVE",
"642.651 336.381 QCURVE SMOOTH",
"670.778 509.54 OFFCURVE",
"580.175 684.381 OFFCURVE",
"413.794 770.524 QCURVE SMOOTH",
"242.444 854.278 OFFCURVE",
"131.587 1005.881 OFFCURVE",
"156.619 1172.278 QCURVE SMOOTH",
"183.714 1328.659 OFFCURVE",
"355.333 1469.349 OFFCURVE",
"500.183 1469.349 QCURVE SMOOTH",
"653.095 1469.349 OFFCURVE",
"768.405 1312.476 OFFCURVE",
"751.952 1169.127 QCURVE SMOOTH",
"735.881 1054.048 LINE",
"727.302 1054.048 LINE",
"742.857 1166.548 LINE",
"759.31 1306.476 OFFCURVE",
"646.063 1461.286 OFFCURVE",
"498.635 1461.286 QCURVE SMOOTH",
"356.881 1461.286 OFFCURVE",
"190.746 1324.532 OFFCURVE",
"164.683 1172.278 QCURVE SMOOTH",
"140.167 1010.333 OFFCURVE",
"252.571 861.31 OFFCURVE",
"419.278 775.683 QCURVE SMOOTH",
"590.817 691.413 OFFCURVE",
"678.841 513.476 OFFCURVE",
"650.714 336.381 QCURVE SMOOTH",
"620.198 139.984 OFFCURVE",
"439.484 -12.381 OFFCURVE",
"287.929 -12.381 QCURVE SMOOTH",
"129.151 -12.381 OFFCURVE",
"-8.667 132.111 OFFCURVE",
"6.238 301.119 QCURVE SMOOTH"
);
},
{
closed = 1;
nodes = (
"389.738 761.889 LINE",
"397.286 756.079 LINE",
"277.421 -5.865 LINE",
"276.905 -10.833 LINE",
"253.937 -150 LINE",
"246.389 -150 LINE"
);
},
{
closed = 1;
nodes = (
"504.31 1462.833 LINE",
"504.31 1464.897 LINE",
"524.889 1606.968 LINE",
"532.437 1606.968 LINE",
"397.286 756.079 LINE",
"389.738 761.889 LINE"
);
}
);
width = 780;
}
);
unicode = 0024;
},
{
glyphname = ampersand;
layers = (
{
layerId = "33953612-DAF4-435D-999F-265D395630EB";
paths = (
{
closed = 1;
nodes = (
"23.722 483.5 OFFCURVE",
"125.69 637.651 OFFCURVE",
"223.667 731.048 QCURVE SMOOTH",
"406.921 865.032 LINE SMOOTH",
"490.183 930.254 OFFCURVE",
"611.048 1092.706 OFFCURVE",
"625.659 1190.444 QCURVE SMOOTH",
"647.595 1342.595 OFFCURVE",
"562.151 1464.381 OFFCURVE",
"473.667 1464.381 QCURVE SMOOTH",
"381.571 1464.381 OFFCURVE",
"244.46 1326.214 OFFCURVE",
"217.556 1161.23 QCURVE SMOOTH",
"201.619 1061.349 OFFCURVE",
"233.214 906.841 OFFCURVE",
"290.833 778.833 QCURVE SMOOTH",
"692.294 0 LINE",
"680.167 0 LINE",
"299.278 757.683 LINE SMOOTH",
"231.857 895.492 OFFCURVE",
"192.524 1052.77 OFFCURVE",
"209.492 1161.23 QCURVE SMOOTH",
"236.913 1331.698 OFFCURVE",
"378.476 1472.444 OFFCURVE",
"474.698 1472.444 QCURVE SMOOTH",
"567.698 1472.444 OFFCURVE",
"656.659 1346.659 OFFCURVE",
"633.722 1190.96 QCURVE SMOOTH",
"618.595 1089.127 OFFCURVE",
"497.214 927.643 OFFCURVE",
"411.889 860.905 QCURVE SMOOTH",
"229.762 725.048 LINE SMOOTH",
"131.206 633.556 OFFCURVE",
"30.786 478.016 OFFCURVE",
"5.46 326.802 QCURVE SMOOTH",
"-21.476 167.889 OFFCURVE",
"93.96 -2.254 OFFCURVE",
"232.071 -2.254 QCURVE SMOOTH",
"428.873 -2.254 OFFCURVE",
"690.016 372.651 OFFCURVE",
"738.722 673.032 QCURVE",
"747.786 673.032 LINE",
"698.563 367.167 OFFCURVE",
"432.841 -10.317 OFFCURVE",
"231.04 -10.317 QCURVE SMOOTH",
"86.381 -10.317 OFFCURVE",
"-30.024 162.405 OFFCURVE",
"-2.603 325.77 QCURVE SMOOTH"
);
}
);
width = 795;
}
);
unicode = 0026;
},
{
glyphname = quotesingle;
layers = (
{
layerId = "33953612-DAF4-435D-999F-265D395630EB";
paths = (
{
closed = 1;
nodes = (
"213.587 1340.849 LINE",
"231.778 1456.968 LINE",
"239.841 1456.968 LINE",
"221.651 1340.849 LINE",
"180.492 1090.913 LINE",
"175.008 1090.913 LINE"
);
}
);
width = 240;
}
);
leftKerningGroup = minute;
rightKerningGroup = minute;
unicode = 0027;
},
{
glyphname = parenleft;
layers = (
{
layerId = "33953612-DAF4-435D-999F-265D395630EB";
paths = (
{
closed = 1;
nodes = (
"128.897 -360.389 OFFCURVE",
"14.913 145.222 OFFCURVE",
"67.294 516.516 QCURVE SMOOTH",
"69.294 530.357 LINE SMOOTH",
"121.675 900.683 OFFCURVE",
"404.976 1400.389 OFFCURVE",
"563.508 1476 QCURVE",
"564.413 1467.873 LINE",
"414.492 1397.262 OFFCURVE",
"130.222 893.198 OFFCURVE",
"78.841 531.937 QCURVE SMOOTH",
"76.325 512.421 LINE SMOOTH",
"25.46 148.738 OFFCURVE",
"139.929 -355.325 OFFCURVE",
"264.333 -427.389 QCURVE",
"259.913 -436.484 LINE"
);
}
);
width = 488;
}
);
rightKerningGroup = parens;
unicode = 0028;
},
{
glyphname = parenright;
layers = (
{
layerId = "33953612-DAF4-435D-999F-265D395630EB";
paths = (
{
closed = 1;
nodes = (
"-143.619 -427.873 LINE",
"5.817 -354.841 OFFCURVE",
"287.214 146.317 OFFCURVE",
"341.952 509.032 QCURVE SMOOTH",
"344.952 530.968 LINE SMOOTH",
"399.722 890.778 OFFCURVE",
"286.19 1396.778 OFFCURVE",
"155.976 1466.905 QCURVE",
"159.913 1476 LINE",
"295.286 1400.389 OFFCURVE",
"412.206 904.46 OFFCURVE",
"353.984 526.873 QCURVE SMOOTH",
"352.016 511.095 LINE SMOOTH",
"293.794 133.508 OFFCURVE",
"13.881 -361.357 OFFCURVE",
"-141.746 -436.968 QCURVE"
);
}
);
width = 488;
}
);
leftKerningGroup = parens;
unicode = 0029;
},
{
glyphname = asterisk;
layers = (
{
layerId = "33953612-DAF4-435D-999F-265D395630EB";
paths = (
{
closed = 1;
nodes = (
"118.698 1243.46 LINE",
"380.817 1136.865 LINE",
"431.159 1467.77 LINE",
"443.286 1467.77 LINE",
"388.881 1136.865 LINE",
"684.54 1243.976 LINE",
"688.476 1232.818 LINE",
"390.881 1128.77 LINE",
"524.651 864.5 LINE",
"514.524 856.952 LINE",
"383.333 1124.19 LINE",
"164.746 856.921 LINE",
"156.167 864.5 LINE",
"376.302 1129.254 LINE",
"113.119 1232.818 LINE"
);
}
);
width = 664;
}
);
unicode = 002A;
},
{
glyphname = plus;
layers = (
{
layerId = "33953612-DAF4-435D-999F-265D395630EB";
paths = (
{
closed = 1;
nodes = (
"83.19 723.04 LINE",
"655.683 723.04 LINE",
"651.746 714.976 LINE",
"82.159 714.976 LINE"
);
},
{
closed = 1;
nodes = (
"417.357 1039.286 LINE",
"425.421 1039.286 LINE",
"317.579 398.73 LINE",
"309.516 398.73 LINE"
);
}
);
width = 740;
}
);
unicode = 002B;
},
{
glyphname = comma;
layers = (
{
layerId = "33953612-DAF4-435D-999F-265D395630EB";
paths = (
{
closed = 1;
nodes = (
"12.722 -108.833 OFFCURVE",
"81.579 11.81 OFFCURVE",
"91.738 108.19 QCURVE SMOOTH",
"95.802 147.286 LINE",
"104.833 147.802 LINE",
"100.77 112.127 LINE SMOOTH",
"89.611 11.389 OFFCURVE",
"20.722 -111.476 OFFCURVE",
"-41.532 -157.738 QCURVE",
"-46.111 -152.19 LINE"
);
}
);
width = 368;
}
);
leftKerningGroup = comma;
rightKerningGroup = comma;
unicode = 002C;
},
{
glyphname = hyphen;
layers = (
{
layerId = "33953612-DAF4-435D-999F-265D395630EB";
paths = (
{
closed = 1;
nodes = (
"28.048 655.603 LINE",
"392.381 655.603 LINE",
"391.349 647.54 LINE",
"27.016 647.54 LINE"
);
}
);
width = 445;
}
);
leftKerningGroup = emdash;
rightKerningGroup = emdash;
unicode = 002D;
},
{
glyphname = period;
layers = (
{
layerId = "33953612-DAF4-435D-999F-265D395630EB";
paths = (
{
closed = 1;
nodes = (
"56.262 29.643 OFFCURVE",
"67.81 41.222 OFFCURVE",
"78.873 41.222 QCURVE SMOOTH",
"89.452 41.222 OFFCURVE",
"100.516 28.675 OFFCURVE",
"100.516 19.095 QCURVE SMOOTH",
"100.516 9.548 OFFCURVE",
"88.452 -2.516 OFFCURVE",
"77.389 -2.516 QCURVE SMOOTH",
"66.841 -2.516 OFFCURVE",
"56.262 10.032 OFFCURVE",
"56.262 20.095 QCURVE SMOOTH"
);
}
);
width = 383;
}
);
leftKerningGroup = comma;
rightKerningGroup = comma;
unicode = 002E;
},
{
glyphname = slash;
layers = (
{
layerId = "33953612-DAF4-435D-999F-265D395630EB";
paths = (
{
closed = 1;
nodes = (
"576.698 1456.968 LINE",
"586.794 1456.968 LINE",
"-178.651 -87.722 LINE",
"-188.23 -87.722 LINE"
);
}
);
width = 469;
}
);
unicode = 002F;
},
{
glyphname = zero;
layers = (
{
layerId = "33953612-DAF4-435D-999F-265D395630EB";
paths = (
{
closed = 1;
nodes = (
"127.032 1018.079 LINE",
"166.889 1254.262 OFFCURVE",
"395.119 1469.349 OFFCURVE",
"549.77 1469.349 QCURVE SMOOTH",
"703.905 1469.349 OFFCURVE",
"858.937 1254.262 OFFCURVE",
"819.595 1021.175 QCURVE",
"738.071 444.048 LINE",
"697.698 207.349 OFFCURVE",
"466.048 -15.286 OFFCURVE",
"314.302 -15.286 QCURVE SMOOTH",
"159.651 -15.286 OFFCURVE",
"3.262 206.317 OFFCURVE",
"48.087 453.849 QCURVE"
);
},
{
closed = 1;
nodes = (
"13.714 211.802 OFFCURVE",
"165.135 -7.738 OFFCURVE",
"314.817 -7.738 QCURVE SMOOTH",
"462.952 -7.738 OFFCURVE",
"690.151 213.865 OFFCURVE",
"729.492 439.405 QCURVE",
"812.563 1025.818 LINE",
"851.905 1251.682 OFFCURVE",
"697.905 1461.286 OFFCURVE",
"548.738 1461.286 QCURVE SMOOTH",
"401.119 1461.286 OFFCURVE",
"171.532 1251.682 OFFCURVE",
"135.095 1020.143 QCURVE",
"55.119 449.722 LINE"
);
}
);
width = 875;
}
);
unicode = 0030;
},
{
glyphname = one;
layers = (
{
layerId = "33953612-DAF4-435D-999F-265D395630EB";
paths = (
{
closed = 1;
nodes = (
"579.024 1457.802 LINE",
"265.889 1322.667 LINE",
"262.921 1331.73 LINE",
"581.508 1467.286 LINE",
"588.571 1467.286 LINE",
"352.778 0 LINE",
"344.23 0 LINE"
);
}
);
width = 865;
}
);
unicode = 0031;
},
{
glyphname = two;
layers = (
{
layerId = "33953612-DAF4-435D-999F-265D395630EB";
paths = (
{
closed = 1;
nodes = (
"11.571 7.548 LINE",
"515.778 641.754 LINE SMOOTH",
"636.611 787.302 OFFCURVE",
"749.063 987.587 OFFCURVE",
"773.063 1136.659 QCURVE SMOOTH",
"801.063 1310.603 OFFCURVE",
"684.563 1461.286 OFFCURVE",
"552.222 1461.286 QCURVE SMOOTH",
"416.659 1461.286 OFFCURVE",
"227.627 1304.349 OFFCURVE",
"202.921 1150.04 QCURVE SMOOTH",
"189.238 1055.484 LINE",
"180.659 1055.484 LINE",
"193.825 1149.524 LINE SMOOTH",
"220.079 1310.413 OFFCURVE",
"412.143 1469.349 OFFCURVE",
"554.222 1469.349 QCURVE SMOOTH",
"690.175 1469.349 OFFCURVE",
"810.611 1316.635 OFFCURVE",
"781.127 1137.69 QCURVE SMOOTH",
"755.159 977.262 OFFCURVE",
"644.095 785.206 OFFCURVE",
"521.778 636.206 QCURVE SMOOTH",
"21.667 9.032 LINE",
"637.897 9.032 LINE",
"635.413 0 LINE",
"10.54 0 LINE"
);
}
);
width = 865;
}
);
unicode = 0032;
},
{
glyphname = three;
layers = (
{
layerId = "33953612-DAF4-435D-999F-265D395630EB";
paths = (
{
closed = 1;
nodes = (
"65.571 395.484 LINE",
"74.151 395.484 LINE",
"60.468 300.929 LINE SMOOTH",
"36.794 156.683 OFFCURVE",
"161.389 -7.706 OFFCURVE",
"311.397 -7.706 QCURVE SMOOTH",
"451.96 -7.706 OFFCURVE",
"640.341 161.262 OFFCURVE",
"673.341 367.659 QCURVE SMOOTH",
"704.762 565 OFFCURVE",
"595.365 753.421 OFFCURVE",
"441.579 753.421 QCURVE SMOOTH",
"307.183 753.421 LINE",
"308.214 762.452 LINE",
"440.548 762.452 LINE SMOOTH",
"560.119 762.452 OFFCURVE",
"726.484 939.095 OFFCURVE",
"754.548 1125.944 QCURVE SMOOTH",
"783.095 1320.73 OFFCURVE",
"666.468 1461.77 OFFCURVE",
"544.802 1461.77 QCURVE SMOOTH",
"409.302 1461.77 OFFCURVE",
"250.135 1311.119 OFFCURVE",
"229.365 1182.944 QCURVE SMOOTH",
"215.683 1085.484 LINE",
"207.103 1085.484 LINE",
"220.786 1182.944 LINE SMOOTH",
"242.071 1314.73 OFFCURVE",
"405.302 1469.349 OFFCURVE",
"545.833 1469.349 QCURVE SMOOTH",
"671.079 1469.349 OFFCURVE",
"792.159 1326.73 OFFCURVE",
"762.611 1128.524 QCURVE SMOOTH",
"735.063 941.159 OFFCURVE",
"589.722 772.063 OFFCURVE",
"498.46 759.968 QCURVE",
"497.944 757.968 LINE",
"614.262 748.905 OFFCURVE",
"712.825 564.937 OFFCURVE",
"681.921 366.111 QCURVE SMOOTH",
"648.405 157.714 OFFCURVE",
"455.992 -15.286 OFFCURVE",
"310.365 -15.286 QCURVE SMOOTH",
"154.357 -15.286 OFFCURVE",
"27.698 151.198 OFFCURVE",
"51.889 300.929 QCURVE SMOOTH"
);
}
);
width = 865;
}
);
unicode = 0033;
},
{
glyphname = four;
layers = (
{
layerId = "33953612-DAF4-435D-999F-265D395630EB";
paths = (
{
closed = 1;
nodes = (
"571.254 384.706 LINE",
"572.286 391.929 LINE",
"738.31 1443.23 LINE",
"737.278 1443.23 LINE",
"49.635 390.381 LINE",
"576.738 390.381 LINE",
"579.317 390.381 LINE",
"703.667 390.381 LINE",
"702.635 382.317 LINE",
"37.413 382.317 LINE",
"37.96 388.381 LINE",
"740.016 1456.968 LINE",
"748.921 1456.968 LINE",
"517.579 0 LINE",
"509.516 0 LINE"
);
}
);
width = 865;
}
);
unicode = 0034;
},
{
glyphname = five;
layers = (
{
layerId = "33953612-DAF4-435D-999F-265D395630EB";
paths = (
{
closed = 1;
nodes = (
"64.921 388.452 LINE",
"73.5 388.452 LINE",
"60.333 290.992 LINE SMOOTH",
"36.143 143.325 OFFCURVE",
"173.444 -7.222 OFFCURVE",
"320.167 -7.222 QCURVE SMOOTH",
"460.698 -7.222 OFFCURVE",
"661.817 172.262 OFFCURVE",
"707.659 462 QCURVE SMOOTH",
"753.952 753.81 OFFCURVE",
"619.817 905.937 OFFCURVE",
"501.31 905.937 QCURVE SMOOTH",
"395.476 905.937 OFFCURVE",
"230.437 815.921 OFFCURVE",
"175.389 738.079 QCURVE",
"167.325 740.143 LINE",
"344.103 1455.484 LINE",
"826.571 1455.484 LINE",
"825.54 1446.905 LINE",
"349.103 1446.905 LINE",
"179.421 759.921 LINE",
"229.952 823.468 OFFCURVE",
"394.444 912.516 OFFCURVE",
"502.31 912.516 QCURVE SMOOTH",
"624.944 912.516 OFFCURVE",
"762.563 757.325 OFFCURVE",
"716.238 462 QCURVE SMOOTH",
"670.365 167.746 OFFCURVE",
"464.214 -15.286 OFFCURVE",
"319.135 -15.286 QCURVE SMOOTH",
"166.929 -15.286 OFFCURVE",
"27.048 141.262 OFFCURVE",
"51.754 290.992 QCURVE SMOOTH"
);
}
);
width = 865;
}
);
unicode = 0035;
},
{
glyphname = six;
layers = (
{
layerId = "33953612-DAF4-435D-999F-265D395630EB";
paths = (
{
closed = 1;
nodes = (
"101.603 640.611 LINE SMOOTH",
"175.833 1085.294 OFFCURVE",
"510.81 1467.286 OFFCURVE",
"744.984 1467.286 QCURVE SMOOTH",
"772.786 1467.286 LINE",
"771.754 1458.19 LINE",
"743.952 1458.19 LINE SMOOTH",
"516.23 1458.19 OFFCURVE",
"183.381 1083.714 OFFCURVE",
"108.151 634.968 QCURVE SMOOTH",
"104.151 612.548 LINE SMOOTH",
"39.952 226.476 OFFCURVE",
"178.698 -7.738 OFFCURVE",
"325.524 -7.738 QCURVE SMOOTH",
"475.278 -7.738 OFFCURVE",
"684.04 194.746 OFFCURVE",
"722.944 455.484 QCURVE SMOOTH",
"764.238 708.159 OFFCURVE",
"634.81 878.96 OFFCURVE",
"495.31 878.96 QCURVE SMOOTH",
"349.484 878.96 OFFCURVE",
"115.5 613.548 OFFCURVE",
"84.278 428.984 QCURVE",
"79.119 428.984 LINE",
"110.857 626.714 OFFCURVE",
"345.873 887.54 OFFCURVE",
"495.825 887.54 QCURVE SMOOTH",
"640.81 887.54 OFFCURVE",
"772.817 713.643 OFFCURVE",
"731.008 455.484 QCURVE SMOOTH",
"691.587 193.198 OFFCURVE",
"480.246 -14.77 OFFCURVE",
"323.071 -14.77 QCURVE SMOOTH",
"172.603 -14.77 OFFCURVE",
"31.373 223.413 OFFCURVE",
"96.571 613.032 QCURVE SMOOTH"
);
}
);
width = 865;
}
);
unicode = 0036;
},
{
glyphname = seven;
layers = (
{
layerId = "33953612-DAF4-435D-999F-265D395630EB";
paths = (
{
closed = 1;
nodes = (
"843.865 1447.452 LINE",
"212.532 1447.452 LINE",
"213.563 1456 LINE",
"854.508 1456 LINE",
"853.476 1449.484 LINE",
"153.46 0 LINE",
"142.817 0 LINE"
);
}
);
width = 865;
}
);
unicode = 0037;
},
{
glyphname = eight;
layers = (
{
layerId = "33953612-DAF4-435D-999F-265D395630EB";
paths = (
{
closed = 1;
nodes = (
"81.508 551.619 OFFCURVE",
"244.389 733.262 OFFCURVE",
"380.056 748.421 QCURVE",
"380.056 748.905 LINE",
"266.865 760.905 OFFCURVE",
"187.198 950.254 OFFCURVE",
"216.198 1124.905 QCURVE SMOOTH",
"246.619 1311.532 OFFCURVE",
"418.587 1468.833 OFFCURVE",
"550.802 1468.833 QCURVE SMOOTH",
"683.468 1468.833 OFFCURVE",
"798.159 1307.889 OFFCURVE",
"773.254 1117.167 QCURVE SMOOTH",
"751.317 950.254 OFFCURVE",
"617.556 764.548 OFFCURVE",
"493.111 748.905 QCURVE",
"493.111 748.421 LINE",
"622.135 736.357 OFFCURVE",
"719.571 547.683 OFFCURVE",
"694.571 376.968 QCURVE SMOOTH",
"665.603 177.992 OFFCURVE",
"464.929 -14.77 OFFCURVE",
"315.333 -14.77 QCURVE SMOOTH",
"162.738 -14.77 OFFCURVE",
"27.31 181.349 OFFCURVE",
"56.151 376.968 QCURVE SMOOTH"
);
},
{
closed = 1;
nodes = (
"38.921 185.802 OFFCURVE",
"167.77 -5.675 OFFCURVE",
"315.849 -5.675 QCURVE SMOOTH",
"462.476 -5.675 OFFCURVE",
"657.508 184.897 OFFCURVE",
"685.476 378 QCURVE SMOOTH",
"709.992 547.357 OFFCURVE",
"599.079 742.357 OFFCURVE",
"434.294 742.357 QCURVE SMOOTH",
"270.476 742.357 OFFCURVE",
"90.635 548.683 OFFCURVE",
"66.278 378.516 QCURVE SMOOTH"
);
},
{
closed = 1;
nodes = (
"196.778 955.222 OFFCURVE",
"280.087 753.937 OFFCURVE",
"437.778 753.937 QCURVE SMOOTH",
"588.437 753.937 OFFCURVE",
"741.159 946.452 OFFCURVE",
"764.127 1116.135 QCURVE SMOOTH",
"788.548 1299.468 OFFCURVE",
"676.857 1460.77 OFFCURVE",
"549.254 1460.77 QCURVE SMOOTH",
"421.619 1460.77 OFFCURVE",
"255.23 1302.111 OFFCURVE",
"225.294 1123.873 QCURVE SMOOTH"
);
}
);
width = 865;
}
);
unicode = 0038;
},
{
glyphname = nine;
layers = (
{
layerId = "33953612-DAF4-435D-999F-265D395630EB";
paths = (
{
closed = 1;
nodes = (
"186.413 1265.127 OFFCURVE",
"397.754 1467.286 OFFCURVE",
"552.024 1467.286 QCURVE SMOOTH",
"702.492 1467.286 OFFCURVE",
"849.048 1231.524 OFFCURVE",
"781.913 839.484 QCURVE SMOOTH",
"776.913 809.484 LINE SMOOTH",
"700.746 364.802 OFFCURVE",
"367.19 -14.77 OFFCURVE",
"130.111 -14.77 QCURVE SMOOTH",
"102.31 -14.77 LINE",
"103.341 -5.675 LINE",
"131.143 -5.675 LINE SMOOTH",
"362.738 -5.675 OFFCURVE",
"692.683 367.349 OFFCURVE",
"769.365 815.127 QCURVE SMOOTH",
"774.333 842.873 LINE SMOOTH",
"839.984 1228.46 OFFCURVE",
"695.429 1460.254 OFFCURVE",
"551.508 1460.254 QCURVE SMOOTH",
"402.722 1460.254 OFFCURVE",
"193.96 1263.579 OFFCURVE",
"152.151 999.937 QCURVE SMOOTH",
"113.762 744.357 OFFCURVE",
"243.19 573.556 OFFCURVE",
"383.175 573.556 QCURVE SMOOTH",
"528.516 573.556 OFFCURVE",
"764.921 842.357 OFFCURVE",
"795.175 1026.437 QCURVE",
"801.786 1026.437 LINE",
"769.563 829.675 OFFCURVE",
"532.127 564.976 OFFCURVE",
"382.175 564.976 QCURVE SMOOTH",
"237.19 564.976 OFFCURVE",
"105.183 738.873 OFFCURVE",
"144.087 999.937 QCURVE SMOOTH"
);
}
);
width = 865;
}
);
unicode = 0039;
},
{
glyphname = colon;
layers = (
{
layerId = "33953612-DAF4-435D-999F-265D395630EB";
paths = (
{
closed = 1;
nodes = (
"16.024 29.643 OFFCURVE",
"27.571 41.222 OFFCURVE",
"38.635 41.222 QCURVE SMOOTH",
"49.214 41.222 OFFCURVE",
"60.278 28.675 OFFCURVE",
"60.278 19.095 QCURVE SMOOTH",
"60.278 9.548 OFFCURVE",
"48.214 -2.516 OFFCURVE",
"37.151 -2.516 QCURVE SMOOTH",
"26.603 -2.516 OFFCURVE",
"16.024 10.032 OFFCURVE",
"16.024 20.095 QCURVE SMOOTH"
);
},
{
closed = 1;
nodes = (
"143.881 856.429 OFFCURVE",
"155.429 868.008 OFFCURVE",
"166.492 868.008 QCURVE SMOOTH",
"177.071 868.008 OFFCURVE",
"188.135 855.46 OFFCURVE",
"188.135 845.881 QCURVE SMOOTH",
"188.135 836.333 OFFCURVE",
"176.071 824.27 OFFCURVE",
"165.008 824.27 QCURVE SMOOTH",
"154.46 824.27 OFFCURVE",
"143.881 836.817 OFFCURVE",
"143.881 846.881 QCURVE SMOOTH"
);
}
);
width = 316;
}
);
leftKerningGroup = colon;
rightKerningGroup = colon;
unicode = 003A;
},
{
glyphname = semicolon;
layers = (
{
layerId = "33953612-DAF4-435D-999F-265D395630EB";
paths = (
{
closed = 1;
nodes = (
"-23.778 -107.865 OFFCURVE",
"40.27 5.968 OFFCURVE",
"56.206 108.19 QCURVE SMOOTH",
"62.175 147.286 LINE",
"73.143 147.802 LINE",
"67.175 109.222 LINE SMOOTH",
"51.27 7.063 OFFCURVE",
"-16.746 -111.476 OFFCURVE",
"-76.095 -157.738 QCURVE",
"-82.611 -151.222 LINE"
);
},
{
closed = 1;
nodes = (
"143.881 856.429 OFFCURVE",
"155.429 868.008 OFFCURVE",
"166.492 868.008 QCURVE SMOOTH",
"177.071 868.008 OFFCURVE",
"188.135 855.46 OFFCURVE",
"188.135 845.881 QCURVE SMOOTH",
"188.135 836.333 OFFCURVE",
"176.071 824.27 OFFCURVE",
"165.008 824.27 QCURVE SMOOTH",
"154.46 824.27 OFFCURVE",
"143.881 836.817 OFFCURVE",
"143.881 846.881 QCURVE SMOOTH"
);
}
);
width = 316;
}
);
leftKerningGroup = colon;
rightKerningGroup = colon;
unicode = 003B;
},
{
glyphname = less;
layers = (
{
layerId = "33953612-DAF4-435D-999F-265D395630EB";
paths = (
{
closed = 1;
nodes = (
"89.246 670.452 LINE",
"90.278 678.516 LINE",
"672.381 1018.73 LINE",
"672.802 1009.119 LINE",
"103.31 673.032 LINE",
"562.627 338.397 LINE",
"559.627 327.333 LINE"
);
}
);
width = 740;
}
);
unicode = 003C;
},
{
glyphname = equal;
layers = (
{
layerId = "33953612-DAF4-435D-999F-265D395630EB";
paths = (
{
closed = 1;
nodes = (
"72.278 524.722 LINE",
"582.865 524.722 LINE",
"582.349 514.722 LINE",
"71.762 514.722 LINE"
);
},
{
closed = 1;
nodes = (
"125.817 851.46 LINE",
"636.405 851.46 LINE",
"635.373 841.46 LINE",
"124.786 841.46 LINE"
);
}
);
width = 723;
}
);
unicode = 003D;
},
{
glyphname = greater;
layers = (
{
layerId = "33953612-DAF4-435D-999F-265D395630EB";
paths = (
{
closed = 1;
nodes = (
"52.103 339.849 LINE",
"620.143 673.032 LINE",
"158.889 1008.151 LINE",
"163.31 1018.73 LINE",
"631.302 678.516 LINE",
"630.27 670.452 LINE",
"51.04 328.302 LINE"
);
}
);
width = 740;
}
);
unicode = 003E;
},
{
glyphname = question;
layers = (
{
layerId = "33953612-DAF4-435D-999F-265D395630EB";
paths = (
{
closed = 1;
nodes = (
"203.103 29.643 OFFCURVE",
"215.683 41.222 OFFCURVE",
"226.746 41.222 QCURVE SMOOTH",
"237.325 41.222 OFFCURVE",
"247.357 28.675 OFFCURVE",
"246.325 19.095 QCURVE SMOOTH",
"245.294 9.548 OFFCURVE",
"231.683 -2.516 OFFCURVE",
"220.619 -2.516 QCURVE SMOOTH",
"210.071 -2.516 OFFCURVE",
"201.04 10.032 OFFCURVE",
"202.071 20.095 QCURVE SMOOTH"
);
},
{
closed = 1;
nodes = (
"130.643 1219.079 LINE SMOOTH",
"150.381 1339.032 OFFCURVE",
"327.794 1469.349 OFFCURVE",
"453.167 1469.349 QCURVE SMOOTH",
"583.952 1469.349 OFFCURVE",
"691.198 1353.825 OFFCURVE",
"671.651 1199.698 QCURVE SMOOTH",
"649.714 1038.921 OFFCURVE",
"532.913 899.698 OFFCURVE",
"455.587 841.056 QCURVE SMOOTH",
"374.841 773.698 OFFCURVE",
"294.675 598.206 OFFCURVE",
"276.643 487.786 QCURVE SMOOTH",
"255.571 345.802 LINE",
"247.508 345.802 LINE",
"268.579 487.786 LINE SMOOTH",
"287.643 601.302 OFFCURVE",
"368.841 780.73 OFFCURVE",
"450.619 845.698 QCURVE SMOOTH",
"529.492 907.762 OFFCURVE",
"641.135 1043.373 OFFCURVE",
"663.071 1199.182 QCURVE SMOOTH",
"682.103 1350.214 OFFCURVE",
"577.341 1461.286 OFFCURVE",
"450.198 1461.286 QCURVE SMOOTH",
"331.341 1461.286 OFFCURVE",
"156.444 1332.063 OFFCURVE",
"137.675 1215.794 QCURVE SMOOTH",
"116.635 1066.318 LINE",
"108.571 1066.318 LINE"
);
}
);
width = 638;
}
);
unicode = 003F;
},
{
glyphname = at;
layers = (
{
layerId = "33953612-DAF4-435D-999F-265D395630EB";
paths = (
{
closed = 1;
nodes = (
"418.119 740.032 OFFCURVE",
"625.413 1051.032 OFFCURVE",
"743.278 1051.032 QCURVE SMOOTH",
"797.357 1051.032 OFFCURVE",
"866.944 992.008 OFFCURVE",
"877.968 957.556 QCURVE",
"887.095 958.587 LINE",
"711.706 349.032 LINE SMOOTH",
"663.103 188.389 OFFCURVE",
"712.69 8.579 OFFCURVE",
"792.857 8.579 QCURVE SMOOTH",
"906.238 8.579 OFFCURVE",
"1102.952 302.095 OFFCURVE",
"1154.889 649.032 QCURVE SMOOTH",
"1212.5 1013.429 OFFCURVE",
"1029.627 1455.667 OFFCURVE",
"781.96 1455.667 QCURVE SMOOTH",
"516.429 1455.667 OFFCURVE",
"130.421 951.008 OFFCURVE",
"55 460.968 QCURVE SMOOTH",
"-17.516 1.849 OFFCURVE",
"194.786 -416.635 OFFCURVE",
"424.833 -416.635 QCURVE SMOOTH",
"511.254 -416.635 OFFCURVE",
"636.119 -368.444 OFFCURVE",
"687.976 -326.635 QCURVE",
"689.849 -337.603 LINE",
"639.024 -375.476 OFFCURVE",
"514.675 -427.603 OFFCURVE",
"423.802 -427.603 QCURVE SMOOTH",
"188.27 -427.603 OFFCURVE",
"-27.063 -8.413 OFFCURVE",
"45.968 460.968 QCURVE SMOOTH",
"124.81 959.397 OFFCURVE",
"514.365 1466.635 OFFCURVE",
"782.992 1466.635 QCURVE SMOOTH",
"1036.659 1466.635 OFFCURVE",
"1221.048 1021.302 OFFCURVE",
"1163.921 649.032 QCURVE SMOOTH",
"1109.984 296.095 OFFCURVE",
"909.206 0 OFFCURVE",
"790.278 0 QCURVE SMOOTH",
"716.365 0 OFFCURVE",
"655.651 142.833 OFFCURVE",
"686.063 278.635 QCURVE",
"638.524 149.214 OFFCURVE",
"512.532 0 OFFCURVE",
"455.421 0 QCURVE SMOOTH",
"380.833 0 OFFCURVE",
"328.825 168.817 OFFCURVE",
"369.603 430.016 QCURVE SMOOTH"
);
},
{
closed = 1;
nodes = (
"337.405 173.786 OFFCURVE",
"386.413 8.063 OFFCURVE",
"458.936 8.063 QCURVE SMOOTH",
"514.754 8.063 OFFCURVE",
"659.746 196.54 OFFCURVE",
"715.254 396 QCURVE SMOOTH",
"872.968 949.492 LINE",
"856.786 986.524 OFFCURVE",
"794.262 1042.968 OFFCURVE",
"743.278 1042.968 QCURVE SMOOTH",
"629.444 1042.968 OFFCURVE",
"425.667 737.452 OFFCURVE",
"377.667 430.016 QCURVE SMOOTH"
);
}
);
width = 1255;
}
);
unicode = 0040;
},
{
glyphname = A;
layers = (
{
layerId = "33953612-DAF4-435D-999F-265D395630EB";
paths = (
{
closed = 1;
nodes = (
"538 1466 LINE",
"546 1466 LINE",
"756 0 LINE",
"747 0 LINE",
"557 1344 LINE SMOOTH",
"555 1361 OFFCURVE",
"544 1442 OFFCURVE",
"541 1451 QCURVE",
"540 1451 LINE",
"534 1441 OFFCURVE",
"499 1363 OFFCURVE",
"490 1344 QCURVE SMOOTH",
"-118 0 LINE",
"-126 0 LINE"
);
},
{
closed = 1;
nodes = (
"91 467 LINE",
"686 467 LINE",
"687 459 LINE",
"86 459 LINE"
);
}
);
width = 862;
}
);
leftKerningGroup = A_UC;
rightKerningGroup = A_UC;
unicode = 0041;
},
{
glyphname = B;
layers = (
{
layerId = "33953612-DAF4-435D-999F-265D395630EB";
paths = (
{
closed = 1;
nodes = (
"270.524 1456 LINE",
"607.984 1456 LINE SMOOTH",
"730.69 1456 OFFCURVE",
"850.032 1298.032 OFFCURVE",
"818.484 1110.516 QCURVE SMOOTH",
"789.516 939.96 OFFCURVE",
"662.167 771.548 OFFCURVE",
"563 764.968 QCURVE",
"563 764.452 LINE",
"660.587 758.389 OFFCURVE",
"773.317 595.04 OFFCURVE",
"743.254 402.325 QCURVE SMOOTH",
"712.159 205.032 OFFCURVE",
"533.952 0 OFFCURVE",
"404.77 0 QCURVE SMOOTH",
"39.183 0 LINE"
);
},
{
closed = 1;
nodes = (
"408.381 7.579 LINE SMOOTH",
"529.921 7.579 OFFCURVE",
"704.579 206.389 OFFCURVE",
"735.19 401.81 QCURVE SMOOTH",
"764.738 590.913 OFFCURVE",
"649.365 760.421 OFFCURVE",
"522.952 759.937 QCURVE SMOOTH",
"168.175 759.937 LINE",
"48.278 7.579 LINE"
);
},
{
closed = 1;
nodes = (
"520.048 768 LINE SMOOTH",
"650.944 768 OFFCURVE",
"782.452 946.476 OFFCURVE",
"810.421 1110.516 QCURVE SMOOTH",
"841.452 1295.452 OFFCURVE",
"724.627 1448.905 OFFCURVE",
"604.048 1448.905 QCURVE SMOOTH",
"276.587 1448.905 LINE",
"169.175 768 LINE"
);
}
);
width = 839;
}
);
leftKerningGroup = StraightRight_UC;
unicode = 0042;
},
{
glyphname = C;
layers = (
{
layerId = "33953612-DAF4-435D-999F-265D395630EB";
paths = (
{
closed = 1;
nodes = (
"99 919 LINE SMOOTH",
"147 1223 OFFCURVE",
"398 1468 OFFCURVE",
"595 1468 QCURVE SMOOTH",
"775 1468 OFFCURVE",
"956 1252 OFFCURVE",
"935 1097 QCURVE SMOOTH",
"916 961 LINE",
"907 961 LINE",
"926 1094 LINE SMOOTH",
"948 1249 OFFCURVE",
"768 1461 OFFCURVE",
"594 1461 QCURVE",
"399 1461 OFFCURVE",
"154 1218 OFFCURVE",
"106 914 QCURVE SMOOTH",
"57 603 LINE SMOOTH",
"8 291 OFFCURVE",
"169 -7 OFFCURVE",
"359 -7 QCURVE",
"560 -7 OFFCURVE",
"765 157 OFFCURVE",
"803 335 QCURVE SMOOTH",
"837 496 LINE",
"847 496 LINE",
"813 332 LINE SMOOTH",
"775 150 OFFCURVE",
"561 -15 OFFCURVE",
"358 -15 QCURVE SMOOTH",
"175 -15 OFFCURVE",
"-3 279 OFFCURVE",
"48 598 QCURVE SMOOTH"
);
}
);
width = 985;
}
);
leftKerningGroup = CG_UC;
rightKerningGroup = C_UC;
unicode = 0043;
},
{
glyphname = D;
layers = (
{
layerId = "33953612-DAF4-435D-999F-265D395630EB";
paths = (
{
closed = 1;
nodes = (
"270.524 1456 LINE",
"603.937 1456 LINE SMOOTH",
"789.738 1456 OFFCURVE",
"963.087 1234.46 OFFCURVE",
"926.778 1023.563 QCURVE SMOOTH",
"848.254 465.794 LINE SMOOTH",
"807.976 224.183 OFFCURVE",
"546.984 0 OFFCURVE",
"372.595 0 QCURVE SMOOTH",
"39.183 0 LINE"
);
},
{
closed = 1;
nodes = (
"373.143 7.095 LINE SMOOTH",
"548.048 7.095 OFFCURVE",
"801.46 235.437 OFFCURVE",
"839.19 459.278 QCURVE SMOOTH",
"919.714 1028.532 LINE SMOOTH",
"953.992 1230.206 OFFCURVE",
"789.865 1448.905 OFFCURVE",
"600 1448.905 QCURVE SMOOTH",
"277.071 1448.905 LINE",
"48.278 7.095 LINE"
);
}
);
width = 957;
}
);
leftKerningGroup = StraightRight_UC;
rightKerningGroup = D_UC;
unicode = 0044;
},
{
glyphname = E;
layers = (
{
layerId = "33953612-DAF4-435D-999F-265D395630EB";
paths = (
{
closed = 1;
nodes = (
"270.524 1456 LINE",
"891.762 1456 LINE",
"890.246 1448.421 LINE",
"276.587 1448.421 LINE",
"167.206 757.548 LINE",
"722.563 757.548 LINE",
"721.532 749.968 LINE",
"165.69 749.968 LINE",
"48.278 7.579 LINE",
"672.421 7.579 LINE",
"671.389 0 LINE",
"39.183 0 LINE"
);
}
);
width = 822;
}
);
leftKerningGroup = StraightRight_UC;
rightKerningGroup = E_UC;
unicode = 0045;
},
{
glyphname = F;
layers = (
{
layerId = "33953612-DAF4-435D-999F-265D395630EB";
paths = (
{
closed = 1;
nodes = (
"270.524 1456 LINE",
"841.532 1456 LINE",
"840.5 1448.421 LINE",
"276.587 1448.421 LINE",
"167.175 757.873 LINE",
"685.937 757.873 LINE",
"684.905 750.294 LINE",
"165.659 750.294 LINE",
"46.762 0 LINE",
"39.183 0 LINE"
);
}
);
width = 737;
}
);
leftKerningGroup = StraightRight_UC;
unicode = 0046;
},
{
glyphname = G;
layers = (
{
layerId = "33953612-DAF4-435D-999F-265D395630EB";
paths = (
{
closed = 1;
nodes = (
"105 987 LINE SMOOTH",
"149 1245 OFFCURVE",
"417 1470 OFFCURVE",
"608 1470 QCURVE SMOOTH",
"794 1470 OFFCURVE",
"966 1319 OFFCURVE",
"941 1147 QCURVE SMOOTH",
"923 1023 LINE",
"915 1023 LINE",
"930 1136 LINE SMOOTH",
"954 1315 OFFCURVE",
"788 1462 OFFCURVE",
"607 1462 QCURVE SMOOTH",
"420 1462 OFFCURVE",
"155 1235 OFFCURVE",
"113 981 QCURVE SMOOTH",
"42 489 LINE SMOOTH",
"3 255 OFFCURVE",
"180 -7 OFFCURVE",
"367 -7 QCURVE SMOOTH",
"525 -7 OFFCURVE",
"744 86 OFFCURVE",
"792 124 QCURVE",
"879 676 LINE",
"474 676 LINE",
"476 684 LINE",
"888 684 LINE",
"799 120 LINE",
"742 74 OFFCURVE",
"529 -15 OFFCURVE",
"365 -15 QCURVE SMOOTH",
"172 -15 OFFCURVE",
"-7 244 OFFCURVE",
"34 484 QCURVE SMOOTH"
);
}
);
width = 971;
}
);
leftKerningGroup = CG_UC;
rightKerningGroup = G_UC;
unicode = 0047;
},
{
glyphname = H;
layers = (
{
layerId = "33953612-DAF4-435D-999F-265D395630EB";
paths = (
{
closed = 1;
nodes = (
"270.524 1456 LINE",
"278.103 1456 LINE",
"168.206 762.516 LINE",
"885.016 762.516 LINE",
"994.913 1456 LINE",
"1002.492 1456 LINE",
"771.151 0 LINE",
"763.571 0 LINE",
"883.5 754.452 LINE",
"166.69 754.452 LINE",
"46.762 0 LINE",
"39.183 0 LINE"
);
}
);
width = 1043;
}
);
leftKerningGroup = StraightRight_UC;
rightKerningGroup = LeftStraight_UC;
unicode = 0048;
},
{
glyphname = I;
layers = (
{
layerId = "33953612-DAF4-435D-999F-265D395630EB";
paths = (
{
closed = 1;
nodes = (
"267.429 1456 LINE",
"275.008 1456 LINE",
"44.151 0 LINE",
"36.087 0 LINE"
);
}
);
width = 312;
}
);
leftKerningGroup = StraightRight_UC;
rightKerningGroup = LeftStraight_UC;
unicode = 0049;
},
{
glyphname = J;
layers = (
{
layerId = "33953612-DAF4-435D-999F-265D395630EB";
paths = (
{
closed = 1;
nodes = (
"-28.397 397.77 LINE",
"-20.333 397.77 LINE",
"-34.238 286.841 LINE SMOOTH",
"-59.167 122.127 OFFCURVE",
"46.786 -6.19 OFFCURVE",
"187.048 -6.19 QCURVE SMOOTH",
"335.532 -6.19 OFFCURVE",
"497.952 158.206 OFFCURVE",
"529.881 341.008 QCURVE SMOOTH",
"703.175 1456 LINE",
"711.722 1456 LINE",
"537.397 342.175 LINE SMOOTH",
"506.984 157.143 OFFCURVE",
"339.016 -15.286 OFFCURVE",
"188.595 -15.286 QCURVE SMOOTH",
"41.786 -15.286 OFFCURVE",
"-67.746 120.579 OFFCURVE",
"-42.817 282.198 QCURVE SMOOTH"
);
}
);
width = 722;
}
);
leftKerningGroup = J_UC;
rightKerningGroup = JU_UC;
unicode = 004A;
},
{
glyphname = K;
layers = (
{
layerId = "33953612-DAF4-435D-999F-265D395630EB";
paths = (
{
closed = 1;
nodes = (
"270.524 1456 LINE",
"278.103 1456 LINE",
"133.825 557.317 LINE",
"912.722 1456 LINE",
"923.365 1456 LINE",
"131.825 540.444 LINE",
"46.762 0 LINE",
"39.183 0 LINE"
);
},
{
closed = 1;
nodes = (
"392.349 844.563 LINE",
"399.413 854.921 LINE",
"731.04 0 LINE",
"721.397 -0.516 LINE"
);
}
);
width = 823;
}
);
leftKerningGroup = StraightRight_UC;
rightKerningGroup = K_UC;
unicode = 004B;
},
{
glyphname = L;
layers = (
{
layerId = "33953612-DAF4-435D-999F-265D395630EB";
paths = (
{
closed = 1;
nodes = (
"270.524 1456 LINE",
"278.103 1456 LINE",
"48.278 7.579 LINE",
"592.056 7.579 LINE",
"591.024 0 LINE",
"39.183 0 LINE"
);
}
);
width = 710;
}
);
leftKerningGroup = StraightRight_UC;
rightKerningGroup = L_UC;
unicode = 004C;
},
{
glyphname = M;
layers = (
{
layerId = "33953612-DAF4-435D-999F-265D395630EB";
paths = (
{
closed = 1;
nodes = (
"270.524 1456 LINE",
"279.103 1456 LINE",
"518 56 LINE SMOOTH",
"520 47 OFFCURVE",
"522.214 29.746 OFFCURVE",
"522.246 22.841 QCURVE",
"522.246 22.841 LINE",
"524.762 29.746 OFFCURVE",
"534 52 OFFCURVE",
"536 56 QCURVE SMOOTH",
"1222.849 1456 LINE",
"1229.881 1456 LINE",
"999 0 LINE",
"989 0 LINE",
"1211 1397 LINE SMOOTH",
"1212 1402 OFFCURVE",
"1214 1418 OFFCURVE",
"1215 1420 QCURVE",
"1214 1420 LINE",
"1213 1417 OFFCURVE",
"1207 1402 OFFCURVE",
"1205 1397 QCURVE SMOOTH",
"521.246 0 LINE",
"516.794 0 LINE",
"279 1401 LINE SMOOTH",
"278 1407 OFFCURVE",
"276 1421 OFFCURVE",
"276 1423 QCURVE",
"275 1423 LINE",
"274 1420 OFFCURVE",
"273 1406 OFFCURVE",
"272 1401 QCURVE SMOOTH",
"49 0 LINE",
"39.183 0 LINE"
);
}
);
width = 1271;
}
);
leftKerningGroup = StraightRight_UC;
rightKerningGroup = LeftStraight_UC;
unicode = 004D;
},
{
glyphname = N;
layers = (
{
layerId = "33953612-DAF4-435D-999F-265D395630EB";
paths = (
{
closed = 1;
nodes = (
"270.524 1456 LINE",
"277.587 1456 LINE",
"728 49 LINE SMOOTH",
"729 46 OFFCURVE",
"735.556 27.23 OFFCURVE",
"736.103 18.905 QCURVE",
"736.103 18.905 LINE",
"736.587 25.294 OFFCURVE",
"739.04 44.849 OFFCURVE",
"740.04 48.817 QCURVE SMOOTH",
"963.96 1456 LINE",
"971.54 1456 LINE",
"740.198 0 LINE",
"733.167 0 LINE",
"283 1404 LINE SMOOTH",
"280 1413 OFFCURVE",
"277 1427 OFFCURVE",
"276 1428 QCURVE",
"276 1428 LINE",
"276 1426 OFFCURVE",
"273 1407 OFFCURVE",
"271 1397 QCURVE SMOOTH",
"48.278 0 LINE",
"39.183 0 LINE"
);
}
);
width = 1013;
}
);
leftKerningGroup = StraightRight_UC;
rightKerningGroup = LeftStraight_UC;
unicode = 004E;
},
{
glyphname = O;
layers = (
{
layerId = "33953612-DAF4-435D-999F-265D395630EB";
paths = (
{
closed = 1;
nodes = (
"104 985 LINE SMOOTH",
"148 1243 OFFCURVE",
"458 1469 OFFCURVE",
"629 1469 QCURVE SMOOTH",
"804 1470 OFFCURVE",
"1031 1254 OFFCURVE",
"993 988 QCURVE SMOOTH",
"921 482 LINE SMOOTH",
"887 242 OFFCURVE",
"578 -16 OFFCURVE",
"394 -15 QCURVE SMOOTH",
"213 -15 OFFCURVE",
"-7 244 OFFCURVE",
"33 484 QCURVE SMOOTH"
);
},
{
closed = 1;
nodes = (
"2 252 OFFCURVE",
"220 -6 OFFCURVE",
"395 -7 QCURVE SMOOTH",
"575 -8 OFFCURVE",
"880 252 OFFCURVE",
"914 489 QCURVE SMOOTH",
"984 980 LINE SMOOTH",
"1022 1245 OFFCURVE",
"798 1462 OFFCURVE",
"628 1462 QCURVE",
"461 1462 OFFCURVE",
"155 1236 OFFCURVE",
"112 980 QCURVE SMOOTH",
"42 489 LINE SMOOTH"
);
}
);
width = 1041;
}
);
leftKerningGroup = CG_UC;
rightKerningGroup = D_UC;
unicode = 004F;
},
{
glyphname = P;
layers = (
{
layerId = "33953612-DAF4-435D-999F-265D395630EB";
paths = (
{
closed = 1;
nodes = (
"270.524 1456 LINE",
"626.881 1456 LINE SMOOTH",
"780.119 1456 OFFCURVE",
"897.595 1266.079 OFFCURVE",
"864.532 1055.429 QCURVE SMOOTH",
"832.952 854.714 OFFCURVE",
"649.421 645.175 OFFCURVE",
"495.341 645.175 QCURVE SMOOTH",
"148.5 645.175 LINE",
"46.762 0 LINE",
"39.183 0 LINE"
);
},
{
closed = 1;
nodes = (
"490.183 652.754 LINE SMOOTH",
"647.357 652.754 OFFCURVE",
"824.921 857.81 OFFCURVE",
"856.468 1055.429 QCURVE SMOOTH",
"888.532 1259.563 OFFCURVE",
"773.476 1448.905 OFFCURVE",
"618.27 1448.905 QCURVE SMOOTH",
"277.071 1448.905 LINE",
"150.016 652.754 LINE"
);
}
);
width = 858;
}
);
leftKerningGroup = StraightRight_UC;
unicode = 0050;
},
{
glyphname = Q;
layers = (
{
layerId = "33953612-DAF4-435D-999F-265D395630EB";
paths = (
{
closed = 1;
nodes = (
"104 985 LINE SMOOTH",
"148 1243 OFFCURVE",
"458 1469 OFFCURVE",
"629 1469 QCURVE SMOOTH",
"804 1470 OFFCURVE",
"1031 1254 OFFCURVE",
"993 988 QCURVE SMOOTH",
"921 482 LINE SMOOTH",
"887 242 OFFCURVE",
"578 -16 OFFCURVE",
"394 -15 QCURVE SMOOTH",
"213 -15 OFFCURVE",
"-7 244 OFFCURVE",
"33 484 QCURVE SMOOTH"
);
},
{
closed = 1;
nodes = (
"2 252 OFFCURVE",
"220 -6 OFFCURVE",
"395 -7 QCURVE SMOOTH",
"575 -8 OFFCURVE",
"880 252 OFFCURVE",
"914 489 QCURVE SMOOTH",
"984 980 LINE SMOOTH",
"1022 1245 OFFCURVE",
"798 1462 OFFCURVE",
"628 1462 QCURVE",
"461 1462 OFFCURVE",
"155 1236 OFFCURVE",
"112 980 QCURVE SMOOTH",
"42 489 LINE SMOOTH"
);
},
{
closed = 1;
nodes = (
"532 249 LINE",
"540 256 LINE",
"877 -127 LINE",
"870 -134 LINE"
);
}
);
width = 1041;
}
);
leftKerningGroup = CG_UC;
unicode = 0051;
},
{
glyphname = R;
layers = (
{
layerId = "33953612-DAF4-435D-999F-265D395630EB";
paths = (
{
closed = 1;
nodes = (
"270.524 1456 LINE",
"668.286 1456 LINE SMOOTH",
"788.857 1456 OFFCURVE",
"894.333 1295.802 OFFCURVE",
"859.944 1063.548 QCURVE SMOOTH",
"828.46 856.563 OFFCURVE",
"665.317 667.548 OFFCURVE",
"543.325 667.548 QCURVE SMOOTH",
"152.659 667.548 LINE",
"46.762 0 LINE",
"39.183 0 LINE"
);
},
{
closed = 1;
nodes = (
"542.421 675.127 LINE SMOOTH",
"662.833 675.127 OFFCURVE",
"821.881 863.595 OFFCURVE",
"851.881 1063.548 QCURVE SMOOTH",
"885.27 1291.675 OFFCURVE",
"778.635 1448.905 OFFCURVE",
"667.254 1448.905 QCURVE SMOOTH",
"276.587 1448.905 LINE",
"154.175 675.127 LINE"
);
},
{
closed = 1;
nodes = (
"582.817 675.19 LINE",
"590.913 675.19 LINE",
"783.032 0 LINE",
"773.905 0 LINE"
);
}
);
width = 880;
}
);
leftKerningGroup = StraightRight_UC;
rightKerningGroup = R_UC;
unicode = 0052;
},
{
glyphname = S;
layers = (
{
layerId = "33953612-DAF4-435D-999F-265D395630EB";
paths = (
{
closed = 1;
nodes = (
"-20.389 430.206 LINE",
"-12.325 430.206 LINE",
"-27.365 308.667 LINE SMOOTH",
"-41.754 136.754 OFFCURVE",
"121.857 -7.222 OFFCURVE",
"309.198 -7.222 QCURVE SMOOTH",
"500.992 -7.222 OFFCURVE",
"705.111 143.595 OFFCURVE",
"735.111 336.381 QCURVE SMOOTH",
"763.754 512.119 OFFCURVE",
"616.183 680.706 OFFCURVE",
"425.23 770.524 QCURVE SMOOTH",
"228.571 859.437 OFFCURVE",
"88.373 1000.722 OFFCURVE",
"115.468 1178.468 QCURVE SMOOTH",
"142.563 1336.722 OFFCURVE",
"330.69 1469.349 OFFCURVE",
"518.873 1469.349 QCURVE SMOOTH",
"730.595 1469.349 OFFCURVE",
"860.865 1312.476 OFFCURVE",
"844.413 1169.127 QCURVE SMOOTH",
"828.341 1054.048 LINE",
"819.246 1054.048 LINE",
"834.802 1166.548 LINE SMOOTH",
"851.254 1309.381 OFFCURVE",
"723.563 1461.286 OFFCURVE",
"517.325 1461.286 QCURVE SMOOTH",
"332.238 1461.286 OFFCURVE",
"149.595 1328.143 OFFCURVE",
"123.532 1178.468 QCURVE SMOOTH",
"97.468 1007.754 OFFCURVE",
"237.73 867.952 OFFCURVE",
"430.714 776.651 QCURVE SMOOTH",
"626.857 688.222 OFFCURVE",
"772.333 518.635 OFFCURVE",
"743.175 336.381 QCURVE SMOOTH",
"712.659 137.079 OFFCURVE",
"504.603 -15.286 OFFCURVE",
"308.167 -15.286 QCURVE SMOOTH",
"111.73 -15.286 OFFCURVE",
"-50.849 132.111 OFFCURVE",
"-35.944 298.214 QCURVE SMOOTH"
);
}
);
width = 835;
}
);
leftKerningGroup = S_UC;
rightKerningGroup = S_UC;
unicode = 0053;
},
{
glyphname = T;
layers = (
{
layerId = "33953612-DAF4-435D-999F-265D395630EB";
paths = (
{
closed = 1;
nodes = (
"126.762 1456 LINE",
"930.016 1456 LINE",
"928.984 1448.421 LINE",
"531.389 1448.421 LINE",
"302.048 0 LINE",
"293.984 0 LINE",
"523.81 1448.421 LINE",
"125.73 1448.421 LINE"
);
}
);
width = 828;
}
);
leftKerningGroup = T_UC;
rightKerningGroup = T_UC;
unicode = 0054;
},
{
glyphname = U;
layers = (
{
layerId = "33953612-DAF4-435D-999F-265D395630EB";
paths = (
{
closed = 1;
nodes = (
"249.238 1456 LINE",
"256.817 1456 LINE",
"85.429 349.016 LINE SMOOTH",
"54.889 165.865 OFFCURVE",
"237.167 -7.706 OFFCURVE",
"412.611 -7.706 QCURVE SMOOTH",
"598.246 -7.706 OFFCURVE",
"810.619 169.96 OFFCURVE",
"840.159 349.016 QCURVE SMOOTH",
"1013.968 1456 LINE",
"1021.548 1456 LINE",
"848.738 356.048 LINE SMOOTH",
"816.714 164.476 OFFCURVE",
"600.762 -15.286 OFFCURVE",
"411.095 -15.286 QCURVE SMOOTH",
"232.071 -15.286 OFFCURVE",
"45.794 158.802 OFFCURVE",
"78.849 356.564 QCURVE SMOOTH"
);
}
);
width = 1039;
}
);
leftKerningGroup = U_UC;
rightKerningGroup = JU_UC;
unicode = 0055;
},
{
glyphname = V;
layers = (
{
layerId = "33953612-DAF4-435D-999F-265D395630EB";
paths = (
{
closed = 1;
nodes = (
"132.222 1456 LINE",
"313.373 99.484 LINE SMOOTH",
"316.5 83.357 OFFCURVE",
"322.365 22.222 OFFCURVE",
"325.46 12.421 QCURVE",
"325.46 12.421 LINE",
"331.135 22.222 OFFCURVE",
"354.968 81.841 OFFCURVE",
"363.127 98.452 QCURVE SMOOTH",
"976.056 1456 LINE",
"983.667 1456 LINE",
"324.944 -6.095 LINE",
"319.46 -6.095 LINE",
"124.127 1456 LINE"
);
}
);
width = 877;
}
);
unicode = 0056;
},
{
glyphname = W;
layers = (
{
layerId = "33953612-DAF4-435D-999F-265D395630EB";
paths = (
{
closed = 1;
nodes = (
"144.762 1456 LINE",
"152.341 1456 LINE",
"247 53 LINE SMOOTH",
"247 49 OFFCURVE",
"247.135 19.198 OFFCURVE",
"246.651 14.23 QCURVE",
"246.651 14.23 LINE",
"248.167 19.198 OFFCURVE",
"255.135 49.175 OFFCURVE",
"257.714 53.302 QCURVE SMOOTH",
"782.341 1456 LINE",
"788.857 1456 LINE",
"884 55 LINE SMOOTH",
"884 51 OFFCURVE",
"886 20 OFFCURVE",
"886 18 QCURVE",
"886 18 LINE",
"886 20 OFFCURVE",
"895 51 OFFCURVE",
"897 55 QCURVE SMOOTH",
"1413.048 1456 LINE",
"1421.143 1456 LINE",
"884.627 -5.579 LINE",
"878.111 -5.579 LINE",
"783 1377 LINE SMOOTH",
"782 1388 OFFCURVE",
"781 1419 OFFCURVE",
"780.921 1425.603 QCURVE",
"779.952 1425.603 LINE",
"778.468 1418.278 OFFCURVE",
"770 1387 OFFCURVE",
"766 1377 QCURVE SMOOTH",
"246.167 -5.579 LINE",
"240.683 -5.579 LINE"
);
}
);
width = 1336;
}
);
leftKerningGroup = W_UC;
rightKerningGroup = W_UC;
unicode = 0057;
},
{
glyphname = X;
layers = (
{
layerId = "33953612-DAF4-435D-999F-265D395630EB";
paths = (
{
closed = 1;
nodes = (
"369.476 758.008 LINE",
"370.508 759.04 LINE",
"837.135 1456 LINE",
"846.23 1456 LINE",
"373.571 747.683 LINE",
"372.54 746.651 LINE",
"-117.151 0 LINE",
"-126.246 0 LINE"
);
},
{
closed = 1;
nodes = (
"129.024 1456 LINE",
"374.54 757.103 LINE",
"375.571 756.071 LINE",
"631.5 0 LINE",
"622.373 0 LINE",
"369.024 752.46 LINE",
"367.992 753.492 LINE",
"119.897 1456 LINE"
);
}
);
width = 736;
}
);
unicode = 0058;
},
{
glyphname = Y;
layers = (
{
layerId = "33953612-DAF4-435D-999F-265D395630EB";
paths = (
{
closed = 1;
nodes = (
"377.016 571.357 LINE",
"115 1456 LINE",
"125 1456 LINE",
"370 630 LINE SMOOTH",
"374 618 OFFCURVE",
"383.532 587.198 OFFCURVE",
"383.532 585.683 QCURVE",
"384.048 585.683 LINE",
"384.048 587.198 OFFCURVE",
"400 617 OFFCURVE",
"408 630 QCURVE SMOOTH",
"906.532 1456 LINE",
"915.143 1456 LINE",
"385.079 571.357 LINE",
"292.825 0 LINE",
"284.762 0 LINE"
);
}
);
width = 801;
}
);
leftKerningGroup = Y_UC;
rightKerningGroup = Y_UC;
unicode = 0059;
},
{
glyphname = Z;
layers = (
{
layerId = "33953612-DAF4-435D-999F-265D395630EB";
paths = (
{
closed = 1;
nodes = (
"-103.738 8.063 LINE",
"890.706 1448.421 LINE",
"146.119 1448.421 LINE",
"147.151 1456 LINE",
"899.286 1456 LINE",
"897.738 1446.325 LINE",
"-94.095 7.579 LINE",
"678.452 7.579 LINE",
"677.421 0 LINE",
"-104.77 0 LINE"
);
}
);
width = 805;
}
);
leftKerningGroup = Z_UC;
rightKerningGroup = Z_UC;
unicode = 005A;
},
{
glyphname = bracketleft;
layers = (
{
layerId = "33953612-DAF4-435D-999F-265D395630EB";
paths = (
{
closed = 1;
nodes = (
"248.587 1456.968 LINE",
"537.389 1456.968 LINE",
"533.452 1448.905 LINE",
"255.619 1448.905 LINE",
"-22.365 -302.905 LINE",
"255.468 -302.905 LINE",
"254.437 -310.968 LINE",
"-31.46 -310.968 LINE"
);
}
);
width = 448;
}
);
rightKerningGroup = parens;
unicode = 005B;
},
{
glyphname = backslash;
layers = (
{
layerId = "33953612-DAF4-435D-999F-265D395630EB";
paths = (
{
closed = 1;
nodes = (
"94.643 1456.968 LINE",
"442.857 -87.722 LINE",
"432.73 -87.722 LINE",
"84 1456.968 LINE"
);
}
);
width = 515;
}
);
unicode = 005C;
},
{
glyphname = bracketright;
layers = (
{
layerId = "33953612-DAF4-435D-999F-265D395630EB";
paths = (
{
closed = 1;
nodes = (
"-138.19 -310.968 LINE",
"-137.159 -302.905 LINE",
"143.579 -302.905 LINE",
"421.564 1448.905 LINE",
"140.825 1448.905 LINE",
"144.762 1456.968 LINE",
"430.659 1456.968 LINE",
"150.611 -310.968 LINE"
);
}
);
width = 448;
}
);
leftKerningGroup = parens;
unicode = 005D;
},
{
glyphname = asciicircum;
layers = (
{
layerId = "33953612-DAF4-435D-999F-265D395630EB";
paths = (
{
closed = 1;
nodes = (
"449.119 1436.635 LINE",
"458.246 1436.635 LINE",
"640.81 833.286 LINE",
"630.23 833.286 LINE",
"450.667 1417.73 LINE",
"78.103 833.286 LINE",
"68.008 833.286 LINE"
);
}
);
width = 682;
}
);
unicode = 005E;
},
{
glyphname = underscore;
layers = (
{
layerId = "33953612-DAF4-435D-999F-265D395630EB";
paths = (
{
closed = 1;
nodes = (
"-149.349 -212.794 LINE",
"462.381 -212.794 LINE",
"461.349 -220.857 LINE",
"-150.381 -220.857 LINE"
);
}
);
width = 613;
}
);
unicode = 005F;
},
{
glyphname = grave;
layers = (
{
layerId = "33953612-DAF4-435D-999F-265D395630EB";
paths = (
{
closed = 1;
nodes = (
"278.452 1241.54 LINE",
"286 1247.54 LINE",
"429.167 980.579 LINE",
"422.651 978 LINE"
);
}
);
width = 655;
}
);
unicode = 0060;
},
{
glyphname = a;
layers = (
{
layerId = "33953612-DAF4-435D-999F-265D395630EB";
paths = (
{
closed = 1;
nodes = (
"-24.19 391.357 OFFCURVE",
"125.151 522 OFFCURVE",
"244.246 522 QCURVE SMOOTH",
"521.476 522 LINE",
"551.159 713.913 LINE SMOOTH",
"570.476 828.079 OFFCURVE",
"478.579 923.865 OFFCURVE",
"350.016 923.865 QCURVE SMOOTH",
"230.802 923.865 OFFCURVE",
"92.048 819.5 OFFCURVE",
"78.31 730.421 QCURVE SMOOTH",
"66.984 640.262 LINE",
"59.921 640.262 LINE",
"72.762 739 LINE SMOOTH",
"85.984 824.952 OFFCURVE",
"228.738 930.929 OFFCURVE",
"351.048 930.929 QCURVE SMOOTH",
"482.159 930.929 OFFCURVE",
"578.54 832.532 OFFCURVE",
"559.222 720.944 QCURVE SMOOTH",
"475.635 184.81 LINE SMOOTH",
"464.571 114.683 OFFCURVE",
"462.476 24.381 OFFCURVE",
"469.119 1.548 QCURVE",
"469.087 0 LINE",
"461.54 0 LINE",
"455.413 23.897 OFFCURVE",
"457.476 106.071 OFFCURVE",
"468.246 176.016 QCURVE",
"446.254 99.778 OFFCURVE",
"264.262 -16.444 OFFCURVE",
"150.048 -16.444 QCURVE SMOOTH",
"30.992 -16.444 OFFCURVE",
"-67.738 108.762 OFFCURVE",
"-44.77 252.19 QCURVE SMOOTH"
);
},
{
closed = 1;
nodes = (
"-58.159 113.31 OFFCURVE",
"35.992 -9.381 OFFCURVE",
"150.048 -9.381 QCURVE SMOOTH",
"265.294 -9.381 OFFCURVE",
"457.603 119.516 OFFCURVE",
"476.825 231.238 QCURVE SMOOTH",
"519.96 514.937 LINE",
"246.825 514.937 LINE SMOOTH",
"129.151 514.937 OFFCURVE",
"-15.159 389.714 OFFCURVE",
"-36.675 252.19 QCURVE SMOOTH"
);
}
);
width = 674;
}
);
leftKerningGroup = a_LC;
rightKerningGroup = a_LC;
unicode = 0061;
},
{
glyphname = b;
layers = (
{
layerId = "33953612-DAF4-435D-999F-265D395630EB";
paths = (
{
closed = 1;
nodes = (
"236.762 1456 LINE",
"244.31 1456 LINE",
"139.706 798.73 LINE",
"175.627 845.754 OFFCURVE",
"334.73 930.929 OFFCURVE",
"452.587 930.929 QCURVE SMOOTH",
"587.437 930.929 OFFCURVE",
"721.286 780.563 OFFCURVE",
"695.778 629.96 QCURVE SMOOTH",
"649.754 290.365 LINE SMOOTH",
"623.73 137.087 OFFCURVE",
"427.778 -17.897 OFFCURVE",
"281.286 -17.897 QCURVE SMOOTH",
"179.968 -17.897 OFFCURVE",
"46.151 65.492 OFFCURVE",
"30.802 99.032 QCURVE",
"30.802 99.032 LINE",
"14.421 0 LINE",
"6.873 0 LINE"
);
},
{
closed = 1;
nodes = (
"49.31 74.881 OFFCURVE",
"182.095 -10.833 OFFCURVE",
"281.802 -10.833 QCURVE SMOOTH",
"422.683 -10.833 OFFCURVE",
"616.635 141.603 OFFCURVE",
"641.659 291.397 QCURVE SMOOTH",
"687.683 628.929 LINE SMOOTH",
"711.675 773.532 OFFCURVE",
"581.857 923.865 OFFCURVE",
"452.071 923.865 QCURVE SMOOTH",
"337.31 923.865 OFFCURVE",
"177.627 838.206 OFFCURVE",
"137.222 780.405 QCURVE",
"33.317 113.516 LINE"
);
}
);
width = 774;
}
);
leftKerningGroup = bhk_LC;
rightKerningGroup = b_LC;
unicode = 0062;
},
{
glyphname = c;
layers = (
{
layerId = "33953612-DAF4-435D-999F-265D395630EB";
paths = (
{
closed = 1;
nodes = (
"40.262 616.984 LINE SMOOTH",
"66.222 771.333 OFFCURVE",
"262.175 930.929 OFFCURVE",
"414.762 930.929 QCURVE SMOOTH",
"564.381 930.929 OFFCURVE",
"676.754 808.095 OFFCURVE",
"660.952 710.056 QCURVE SMOOTH",
"645.849 590.905 LINE",
"637.786 590.905 LINE",
"652.373 709.024 LINE SMOOTH",
"668.206 804.095 OFFCURVE",
"559.286 923.865 OFFCURVE",
"414.246 923.865 QCURVE SMOOTH",
"266.722 923.865 OFFCURVE",
"73.286 767.722 OFFCURVE",
"48.325 618.341 QCURVE SMOOTH",
"0.849 292.302 LINE SMOOTH",
"-24.143 145.119 OFFCURVE",
"121.698 -10.833 OFFCURVE",
"264.611 -10.833 QCURVE SMOOTH",
"410.683 -10.833 OFFCURVE",
"558.079 115.198 OFFCURVE",
"581.524 213.889 QCURVE SMOOTH",
"599.627 325.873 LINE",
"608.175 325.873 LINE",
"589.587 212.857 LINE SMOOTH",
"565.143 109.135 OFFCURVE",
"412.587 -17.897 OFFCURVE",
"264.611 -17.897 QCURVE SMOOTH",
"117.119 -17.897 OFFCURVE",
"-33.27 139.571 OFFCURVE",
"-7.246 291.786 QCURVE SMOOTH"
);
}
);
width = 702;
}
);
leftKerningGroup = alpha;
rightKerningGroup = c_LC;
unicode = 0063;
},
{
glyphname = d;
layers = (
{
layerId = "33953612-DAF4-435D-999F-265D395630EB";
paths = (
{
closed = 1;
nodes = (
"41.683 629.96 LINE SMOOTH",
"67.19 777.659 OFFCURVE",
"252.73 930.929 OFFCURVE",
"388.548 930.929 QCURVE SMOOTH",
"506.405 930.929 OFFCURVE",
"635.611 846.238 OFFCURVE",
"657.278 797.278 QCURVE",
"762.365 1456 LINE",
"769.913 1456 LINE",
"538.571 0 LINE",
"531.508 0 LINE",
"548.373 101.452 LINE",
"548.373 101.452 LINE",
"522.349 66.944 OFFCURVE",
"359.833 -17.897 OFFCURVE",
"259.484 -17.897 QCURVE SMOOTH",
"113.96 -17.897 OFFCURVE",
"-33.754 137.087 OFFCURVE",
"-7.73 288.913 QCURVE SMOOTH"
);
},
{
closed = 1;
nodes = (
"-24.659 141.119 OFFCURVE",
"120.571 -10.833 OFFCURVE",
"260.484 -10.833 QCURVE SMOOTH",
"357.77 -10.833 OFFCURVE",
"518.77 73.429 OFFCURVE",
"550.405 113.516 QCURVE",
"654.794 780.405 LINE",
"632.579 839.659 OFFCURVE",
"501.825 923.865 OFFCURVE",
"388.032 923.865 QCURVE SMOOTH",
"257.278 923.865 OFFCURVE",
"73.77 771.079 OFFCURVE",
"49.778 628.929 QCURVE SMOOTH",
"0.365 289.944 LINE SMOOTH"
);
}
);
width = 774;
}
);
leftKerningGroup = alpha;
unicode = 0064;
},
{
glyphname = e;
layers = (
{
layerId = "33953612-DAF4-435D-999F-265D395630EB";
paths = (
{
closed = 1;
nodes = (
"40.262 616.468 LINE SMOOTH",
"66.738 773.913 OFFCURVE",
"261.143 930.929 OFFCURVE",
"414.246 930.929 QCURVE SMOOTH",
"558.802 930.929 OFFCURVE",
"677.46 785.81 OFFCURVE",
"659.175 679.865 QCURVE SMOOTH",
"634.714 516.706 LINE",
"33.183 516.706 LINE",
"34.698 523.77 LINE",
"628.167 523.77 LINE",
"652.627 684.508 LINE SMOOTH",
"668.365 780.714 OFFCURVE",
"559.929 923.865 OFFCURVE",
"413.73 923.865 QCURVE SMOOTH",
"260.564 923.865 OFFCURVE",
"73.802 768.754 OFFCURVE",
"48.325 617.825 QCURVE SMOOTH",
"0.849 292.302 LINE SMOOTH",
"-24.659 142.087 OFFCURVE",
"119.667 -10.833 OFFCURVE",
"251.81 -10.833 QCURVE SMOOTH",
"381.405 -10.833 OFFCURVE",
"531.413 84.254 OFFCURVE",
"566.175 147.095 QCURVE",
"571.206 144 LINE",
"533.349 77.643 OFFCURVE",
"383.921 -17.897 OFFCURVE",
"250.81 -17.897 QCURVE SMOOTH",
"114.087 -17.897 OFFCURVE",
"-33.754 136.024 OFFCURVE",
"-7.246 292.817 QCURVE SMOOTH"
);
}
);
width = 699;
}
);
leftKerningGroup = alpha;
rightKerningGroup = e_LC;
unicode = 0065;
},
{
glyphname = f;
layers = (
{
layerId = "33953612-DAF4-435D-999F-265D395630EB";
paths = (
{
closed = 1;
nodes = (
"220.444 1249.214 LINE SMOOTH",
"240.762 1373.381 OFFCURVE",
"353.698 1476.548 OFFCURVE",
"437.349 1476.548 QCURVE SMOOTH",
"456.635 1476.548 OFFCURVE",
"491.238 1470.452 OFFCURVE",
"499.849 1467.421 QCURVE",
"497.786 1459.357 LINE",
"489.69 1462.389 OFFCURVE",
"453.087 1469.484 OFFCURVE",
"435.802 1469.484 QCURVE SMOOTH",
"355.214 1469.484 OFFCURVE",
"246.825 1367.349 OFFCURVE",
"225.992 1241.151 QCURVE SMOOTH",
"175.341 910.032 LINE",
"174.825 908.484 LINE",
"29.833 0 LINE",
"22.77 0 LINE"
);
},
{
closed = 1;
nodes = (
"24.23 913.032 LINE",
"171.31 913.032 LINE",
"172.857 913.032 LINE",
"345.992 913.032 LINE",
"345.476 905.968 LINE",
"23.714 905.968 LINE"
);
}
);
width = 295;
}
);
leftKerningGroup = f_LC;
rightKerningGroup = f_LC;
unicode = 0066;
},
{
glyphname = g;
layers = (
{
layerId = "33953612-DAF4-435D-999F-265D395630EB";
paths = (
{
closed = 1;
nodes = (
"-52.095 -346.611 LINE",
"-26.46 -372.278 OFFCURVE",
"101.198 -415.357 OFFCURVE",
"186.651 -415.357 QCURVE SMOOTH",
"308.087 -415.357 OFFCURVE",
"490.246 -267.556 OFFCURVE",
"519.754 -91.048 QCURVE SMOOTH",
"548.373 101.452 LINE",
"523.802 69.849 OFFCURVE",
"359.833 -17.897 OFFCURVE",
"259.484 -17.897 QCURVE SMOOTH",
"113.96 -17.897 OFFCURVE",
"-33.754 137.087 OFFCURVE",
"-7.73 288.913 QCURVE SMOOTH",
"41.683 629.96 LINE SMOOTH",
"67.19 777.659 OFFCURVE",
"252.73 930.929 OFFCURVE",
"388.548 930.929 QCURVE SMOOTH",
"506.405 930.929 OFFCURVE",
"635.611 846.238 OFFCURVE",
"657.278 796.794 QCURVE",
"657.278 796.794 LINE",
"676.048 913.032 LINE",
"683.111 913.032 LINE",
"525.27 -100.143 LINE SMOOTH",
"496.794 -273.071 OFFCURVE",
"310.056 -423.421 OFFCURVE",
"184.619 -423.421 QCURVE SMOOTH",
"99.651 -423.421 OFFCURVE",
"-30.071 -381.373 OFFCURVE",
"-57.254 -355.19 QCURVE"
);
},
{
closed = 1;
nodes = (
"-24.659 140.603 OFFCURVE",
"120.571 -10.833 OFFCURVE",
"260 -10.833 QCURVE SMOOTH",
"357.77 -10.833 OFFCURVE",
"521.19 74.881 OFFCURVE",
"550.405 113.516 QCURVE",
"654.794 780.405 LINE",
"632.579 839.659 OFFCURVE",
"501.825 923.865 OFFCURVE",
"388.032 923.865 QCURVE SMOOTH",
"257.278 923.865 OFFCURVE",
"73.77 770.563 OFFCURVE",
"49.778 628.929 QCURVE SMOOTH",
"0.365 289.944 LINE SMOOTH"
);
}
);
width = 774;
}
);
leftKerningGroup = alpha;
unicode = 0067;
},
{
glyphname = h;
layers = (
{
layerId = "33953612-DAF4-435D-999F-265D395630EB";
paths = (
{
closed = 1;
nodes = (
"236.762 1456 LINE",
"244.794 1456 LINE",
"134.032 767.262 LINE",
"169.857 817.929 OFFCURVE",
"337.889 932.476 OFFCURVE",
"451.135 932.476 QCURVE SMOOTH",
"574.024 932.476 OFFCURVE",
"665.246 813.254 OFFCURVE",
"648.929 712.635 QCURVE SMOOTH",
"535.119 0 LINE",
"527.571 0 LINE",
"640.349 708.508 LINE SMOOTH",
"656.667 807.579 OFFCURVE",
"569.508 924.897 OFFCURVE",
"450.103 924.897 QCURVE SMOOTH",
"339.436 924.897 OFFCURVE",
"171.468 809.508 OFFCURVE",
"131.032 746.873 QCURVE",
"13.937 0 LINE",
"6.873 0 LINE"
);
}
);
width = 762;
}
);
leftKerningGroup = bhk_LC;
rightKerningGroup = hmn_LC;
unicode = 0068;
},
{
glyphname = i;
layers = (
{
layerId = "33953612-DAF4-435D-999F-265D395630EB";
paths = (
{
closed = 1;
nodes = (
"150.929 913.032 LINE",
"158.476 913.032 LINE",
"13.937 0 LINE",
"6.873 0 LINE"
);
},
{
closed = 1;
nodes = (
"185.024 1260.96 OFFCURVE",
"196.603 1271.024 OFFCURVE",
"206.214 1271.024 QCURVE SMOOTH",
"215.31 1270.508 OFFCURVE",
"226.373 1259.413 OFFCURVE",
"226.373 1250.833 QCURVE SMOOTH",
"226.373 1241.77 OFFCURVE",
"214.762 1230.19 OFFCURVE",
"204.667 1230.19 QCURVE SMOOTH",
"194.571 1230.19 OFFCURVE",
"184.508 1242.802 OFFCURVE",
"185.024 1251.381 QCURVE SMOOTH"
);
}
);
width = 255;
}
);
leftKerningGroup = i_LC;
rightKerningGroup = i_LC;
unicode = 0069;
},
{
glyphname = j;
layers = (
{
layerId = "33953612-DAF4-435D-999F-265D395630EB";
paths = (
{
closed = 1;
nodes = (
"-283.579 -404.524 LINE",
"-267.198 -415.23 OFFCURVE",
"-219.857 -428.905 OFFCURVE",
"-183.254 -428.905 QCURVE SMOOTH",
"-124.333 -428.905 OFFCURVE",
"-35.81 -339.762 OFFCURVE",
"-17.524 -229.27 QCURVE SMOOTH",
"161.246 913.032 LINE",
"168.794 913.032 LINE",
"-11.976 -237.333 LINE SMOOTH",
"-29.262 -345.31 OFFCURVE",
"-121.817 -436.484 OFFCURVE",
"-184.254 -436.484 QCURVE SMOOTH",
"-221.921 -436.484 OFFCURVE",
"-269.81 -422.778 OFFCURVE",
"-284.611 -414.135 QCURVE"
);
},
{
closed = 1;
nodes = (
"197.921 1260.96 OFFCURVE",
"210.016 1271.024 OFFCURVE",
"219.627 1271.024 QCURVE SMOOTH",
"229.238 1271.024 OFFCURVE",
"239.786 1259.413 OFFCURVE",
"239.786 1250.833 QCURVE SMOOTH",
"239.27 1241.77 OFFCURVE",
"228.69 1230.19 OFFCURVE",
"218.079 1230.19 QCURVE SMOOTH",
"207.984 1230.19 OFFCURVE",
"197.405 1242.802 OFFCURVE",
"197.921 1251.381 QCURVE SMOOTH"
);
}
);
width = 259;
}
);
rightKerningGroup = j_LC;
unicode = 006A;
},
{
glyphname = k;
layers = (
{
layerId = "33953612-DAF4-435D-999F-265D395630EB";
paths = (
{
closed = 1;
nodes = (
"237.246 1457.032 LINE",
"245.278 1457.032 LINE",
"68.873 352.286 LINE",
"591.206 913.032 LINE",
"600.849 913.032 LINE",
"66.389 334.96 LINE",
"13.937 0 LINE",
"6.873 0 LINE"
);
},
{
closed = 1;
nodes = (
"281.532 551.643 LINE",
"288.079 562.968 LINE",
"528.929 0 LINE",
"519.802 0 LINE"
);
}
);
width = 624;
}
);
leftKerningGroup = bhk_LC;
rightKerningGroup = k_LC;
unicode = 006B;
},
{
glyphname = l;
layers = (
{
layerId = "33953612-DAF4-435D-999F-265D395630EB";
paths = (
{
closed = 1;
nodes = (
"238.31 1457.032 LINE",
"246.341 1457.032 LINE",
"15.484 0 LINE",
"8.421 0 LINE"
);
}
);
width = 258;
}
);
leftKerningGroup = bhk_LC;
rightKerningGroup = l_LC;
unicode = 006C;
},
{
glyphname = m;
layers = (
{
layerId = "33953612-DAF4-435D-999F-265D395630EB";
paths = (
{
closed = 1;
nodes = (
"150.929 913.032 LINE",
"158.476 913.032 LINE",
"134.032 767.262 LINE",
"134.032 767.262 LINE",
"167.794 823.056 OFFCURVE",
"320.349 932.476 OFFCURVE",
"413.929 932.476 QCURVE SMOOTH",
"507.54 932.476 OFFCURVE",
"594.762 828.667 OFFCURVE",
"587.73 766.421 QCURVE",
"587.73 766.421 LINE",
"610.111 816.865 OFFCURVE",
"759.349 932.476 OFFCURVE",
"855.635 932.476 QCURVE SMOOTH",
"961.111 932.476 OFFCURVE",
"1059.04 807.579 OFFCURVE",
"1043.754 713.151 QCURVE SMOOTH",
"932.849 0 LINE",
"925.302 0 LINE",
"1034.659 704.381 LINE SMOOTH",
"1050.46 801.905 OFFCURVE",
"954.016 925.929 OFFCURVE",
"855.119 925.929 QCURVE SMOOTH",
"763.476 925.929 OFFCURVE",
"617.786 815.508 OFFCURVE",
"590.825 757.516 QCURVE",
"472.183 0 LINE",
"464.635 0 LINE",
"577.603 727.079 LINE SMOOTH",
"593.373 820.476 OFFCURVE",
"502.96 925.929 OFFCURVE",
"412.929 925.929 QCURVE SMOOTH",
"323.444 925.929 OFFCURVE",
"167.889 814.667 OFFCURVE",
"130.548 747.389 QCURVE",
"13.937 0 LINE",
"6.873 0 LINE"
);
}
);
width = 1156;
}
);
leftKerningGroup = mnpr_LC;
rightKerningGroup = hmn_LC;
unicode = 006D;
},
{
glyphname = n;
layers = (
{
layerId = "33953612-DAF4-435D-999F-265D395630EB";
paths = (
{
closed = 1;
nodes = (
"150.929 913.032 LINE",
"158.476 913.032 LINE",
"134.032 767.262 LINE",
"134.032 767.262 LINE",
"169.857 818.413 OFFCURVE",
"337.889 932.476 OFFCURVE",
"451.135 932.476 QCURVE SMOOTH",
"574.024 932.476 OFFCURVE",
"665.246 813.254 OFFCURVE",
"648.929 712.635 QCURVE SMOOTH",
"535.119 0 LINE",
"527.571 0 LINE",
"640.349 708.508 LINE SMOOTH",
"656.667 807.579 OFFCURVE",
"569.508 924.897 OFFCURVE",
"450.103 924.897 QCURVE SMOOTH",
"339.436 924.897 OFFCURVE",
"171.468 809.508 OFFCURVE",
"131.032 746.873 QCURVE",
"13.937 0 LINE",
"6.873 0 LINE"
);
}
);
width = 762;
}
);
leftKerningGroup = mnpr_LC;
rightKerningGroup = hmn_LC;
unicode = 006E;
},
{
glyphname = o;
layers = (
{
layerId = "33953612-DAF4-435D-999F-265D395630EB";
paths = (
{
closed = 1;
nodes = (
"40.262 616.468 LINE SMOOTH",
"66.222 771.849 OFFCURVE",
"262.175 930.929 OFFCURVE",
"414.762 930.929 QCURVE SMOOTH",
"568.413 930.929 OFFCURVE",
"710.19 771.849 OFFCURVE",
"683.714 615.437 QCURVE SMOOTH",
"639.111 288.175 LINE SMOOTH",
"614.087 139.992 OFFCURVE",
"411.556 -17.897 OFFCURVE",
"264.095 -17.897 QCURVE SMOOTH",
"117.119 -17.897 OFFCURVE",
"-33.27 139.571 OFFCURVE",
"-7.246 291.27 QCURVE SMOOTH"
);
},
{
closed = 1;
nodes = (
"0.849 292.302 LINE SMOOTH",
"-24.143 145.119 OFFCURVE",
"122.183 -10.833 OFFCURVE",
"265.127 -10.833 QCURVE SMOOTH",
"405.008 -10.833 OFFCURVE",
"606.508 143.087 OFFCURVE",
"631.016 290.238 QCURVE SMOOTH",
"676.103 616.278 LINE SMOOTH",
"701.063 766.69 OFFCURVE",
"561.802 923.865 OFFCURVE",
"414.246 923.865 QCURVE SMOOTH",
"266.722 923.865 OFFCURVE",
"73.286 766.69 OFFCURVE",
"48.325 617.825 QCURVE SMOOTH"
);
}
);
width = 767;
}
);
leftKerningGroup = o_LC;
rightKerningGroup = o_LC;
unicode = 006F;
},
{
glyphname = p;
layers = (
{
layerId = "33953612-DAF4-435D-999F-265D395630EB";
paths = (
{
closed = 1;
nodes = (
"150.929 913.032 LINE",
"158.476 913.032 LINE",
"139.706 798.73 LINE",
"139.706 798.73 LINE",
"175.627 845.754 OFFCURVE",
"328.024 930.929 OFFCURVE",
"445.881 930.929 QCURVE SMOOTH",
"580.73 930.929 OFFCURVE",
"720.802 778.143 OFFCURVE",
"695.778 629.96 QCURVE SMOOTH",
"649.754 290.365 LINE SMOOTH",
"623.73 137.087 OFFCURVE",
"427.778 -17.897 OFFCURVE",
"281.286 -17.897 QCURVE SMOOTH",
"179.968 -17.897 OFFCURVE",
"45.667 65.492 OFFCURVE",
"30.317 99.032 QCURVE",
"-50.833 -415.032 LINE",
"-58.865 -415.032 LINE"
);
},
{
closed = 1;
nodes = (
"48.825 74.881 OFFCURVE",
"182.095 -10.833 OFFCURVE",
"281.802 -10.833 QCURVE SMOOTH",
"422.683 -10.833 OFFCURVE",
"616.635 141.603 OFFCURVE",
"641.659 291.397 QCURVE SMOOTH",
"687.683 628.929 LINE SMOOTH",
"711.675 771.563 OFFCURVE",
"575.151 923.865 OFFCURVE",
"445.365 923.865 QCURVE SMOOTH",
"330.603 923.865 OFFCURVE",
"177.143 838.206 OFFCURVE",
"136.738 780.405 QCURVE",
"32.833 113.516 LINE"
);
}
);
width = 777;
}
);
leftKerningGroup = mnpr_LC;
rightKerningGroup = b_LC;
unicode = 0070;
},
{
glyphname = q;
layers = (
{
layerId = "33953612-DAF4-435D-999F-265D395630EB";
paths = (
{
closed = 1;
nodes = (
"41.683 629.96 LINE SMOOTH",
"67.19 777.659 OFFCURVE",
"247.571 930.929 OFFCURVE",
"383.389 930.929 QCURVE SMOOTH",
"501.246 930.929 OFFCURVE",
"635.611 846.238 OFFCURVE",
"657.278 796.794 QCURVE",
"657.278 796.794 LINE",
"676.048 913.032 LINE",
"683.595 913.032 LINE",
"472.833 -414 LINE",
"465.286 -414 LINE",
"548.373 101.452 LINE",
"548.373 101.452 LINE",
"522.349 66.944 OFFCURVE",
"359.833 -17.897 OFFCURVE",
"259.484 -17.897 QCURVE SMOOTH",
"113.96 -17.897 OFFCURVE",
"-33.754 137.087 OFFCURVE",
"-7.73 288.913 QCURVE SMOOTH"
);
},
{
closed = 1;
nodes = (
"-24.659 141.603 OFFCURVE",
"120.571 -10.833 OFFCURVE",
"260.484 -10.833 QCURVE SMOOTH",
"357.77 -10.833 OFFCURVE",
"518.77 73.429 OFFCURVE",
"550.405 113.516 QCURVE",
"654.794 780.405 LINE",
"632.579 839.659 OFFCURVE",
"501.825 923.865 OFFCURVE",
"388.032 923.865 QCURVE SMOOTH",
"257.278 923.865 OFFCURVE",
"73.77 771.079 OFFCURVE",
"49.778 628.929 QCURVE SMOOTH",
"0.365 289.944 LINE SMOOTH"
);
}
);
width = 774;
}
);
leftKerningGroup = alpha;
unicode = 0071;
},
{
glyphname = r;
layers = (
{
layerId = "33953612-DAF4-435D-999F-265D395630EB";
paths = (
{
closed = 1;
nodes = (
"150.929 913.032 LINE",
"158.476 913.032 LINE",
"134.032 767.778 LINE",
"134.032 767.778 LINE",
"169.373 820.929 OFFCURVE",
"337.889 932.476 OFFCURVE",
"431.048 932.476 QCURVE SMOOTH",
"483.929 932.476 OFFCURVE",
"535.071 916.611 OFFCURVE",
"546.325 909.452 QCURVE",
"545.294 900.357 LINE",
"533.008 908.548 OFFCURVE",
"481.349 924.897 OFFCURVE",
"431.016 924.897 QCURVE SMOOTH",
"339.921 924.897 OFFCURVE",
"172.437 813.476 OFFCURVE",
"131.548 749.389 QCURVE",
"13.937 0 LINE",
"6.873 0 LINE"
);
}
);
width = 532;
}
);
leftKerningGroup = mnpr_LC;
rightKerningGroup = r_LC;
unicode = 0072;
},
{
glyphname = s;
layers = (
{
layerId = "33953612-DAF4-435D-999F-265D395630EB";
paths = (
{
closed = 1;
nodes = (
"-0.889 294.381 LINE",
"-13.508 211.825 LINE SMOOTH",
"-34.341 88.595 OFFCURVE",
"93.056 -10.317 OFFCURVE",
"234.484 -10.833 QCURVE SMOOTH",
"376.429 -11.349 OFFCURVE",
"531.627 98.5 OFFCURVE",
"550.659 218.857 QCURVE SMOOTH",
"569.722 335.405 OFFCURVE",
"483.341 447.151 OFFCURVE",
"311.317 492.643 QCURVE SMOOTH",
"139.23 536.198 OFFCURVE",
"55.333 622.778 OFFCURVE",
"71.365 726.103 QCURVE SMOOTH",
"88.913 838.976 OFFCURVE",
"241.437 930.929 OFFCURVE",
"371.611 930.929 QCURVE SMOOTH",
"501.302 930.929 OFFCURVE",
"629.635 837.238 OFFCURVE",
"610.865 722.032 QCURVE SMOOTH",
"599.571 642.325 LINE",
"592.508 642.325 LINE",
"602.286 715 LINE SMOOTH",
"621.056 832.206 OFFCURVE",
"498.27 923.865 OFFCURVE",
"371.095 923.865 QCURVE SMOOTH",
"243.952 923.865 OFFCURVE",
"95.976 833.429 OFFCURVE",
"79.429 726.103 QCURVE SMOOTH",
"63.913 626.905 OFFCURVE",
"138.587 544.262 OFFCURVE",
"314.77 499.254 QCURVE SMOOTH",
"490.952 455.214 OFFCURVE",
"578.302 340.889 OFFCURVE",
"558.238 219.373 QCURVE SMOOTH",
"537.69 92.437 OFFCURVE",
"379.944 -17.897 OFFCURVE",
"233.968 -17.897 QCURVE SMOOTH",
"86.96 -17.897 OFFCURVE",
"-43.437 83.5 OFFCURVE",
"-22.119 207.183 QCURVE SMOOTH",
"-8.468 294.381 LINE"
);
}
);
width = 700;
}
);
leftKerningGroup = s_LC;
rightKerningGroup = s_LC;
unicode = 0073;
},
{
glyphname = t;
layers = (
{
layerId = "33953612-DAF4-435D-999F-265D395630EB";
paths = (
{
closed = 1;
nodes = (
"35.516 913.032 LINE",
"465.23 913.032 LINE",
"464.714 905.968 LINE",
"35 905.968 LINE"
);
},
{
closed = 1;
nodes = (
"192.46 907.968 LINE",
"192.976 910.548 LINE",
"241.254 1201.937 LINE",
"248.317 1201.937 LINE",
"86.103 191.857 LINE SMOOTH",
"68.817 87.817 OFFCURVE",
"143.373 -6.706 OFFCURVE",
"215.833 -6.706 QCURVE SMOOTH",
"264.397 -6.706 OFFCURVE",
"324.762 10.643 OFFCURVE",
"332.921 14.706 QCURVE",
"335.952 8.643 LINE",
"323.698 2.548 OFFCURVE",
"265.46 -14.286 OFFCURVE",
"214.317 -14.286 QCURVE SMOOTH",
"139.341 -14.286 OFFCURVE",
"60.238 82.238 OFFCURVE",
"78.556 191.857 QCURVE SMOOTH"
);
}
);
width = 448;
}
);
leftKerningGroup = t_LC;
rightKerningGroup = t_LC;
unicode = 0074;
},
{
glyphname = u;
layers = (
{
layerId = "33953612-DAF4-435D-999F-265D395630EB";
paths = (
{
closed = 1;
nodes = (
"140.611 913.032 LINE",
"147.675 913.032 LINE",
"36.349 190 LINE SMOOTH",
"21 99.159 OFFCURVE",
"107.19 -11.865 OFFCURVE",
"224.659 -11.865 QCURVE SMOOTH",
"334.357 -11.865 OFFCURVE",
"504.262 101.103 OFFCURVE",
"545.667 166.159 QCURVE",
"664.214 913.032 LINE",
"671.278 913.032 LINE",
"524.802 0 LINE",
"518.222 0 LINE",
"542.667 145.77 LINE",
"542.667 145.77 LINE",
"505.873 94.135 OFFCURVE",
"336.389 -18.929 OFFCURVE",
"223.143 -18.929 QCURVE SMOOTH",
"103.643 -18.929 OFFCURVE",
"12.421 91.548 OFFCURVE",
"28.77 185.873 QCURVE SMOOTH"
);
}
);
width = 762;
}
);
leftKerningGroup = u_LC;
rightKerningGroup = u_LC;
unicode = 0075;
},
{
glyphname = v;
layers = (
{
layerId = "33953612-DAF4-435D-999F-265D395630EB";
paths = (
{
closed = 1;
nodes = (
"41 913.032 LINE",
"196 34 LINE SMOOTH",
"197 31 OFFCURVE",
"198.992 16.841 OFFCURVE",
"199.508 15.294 QCURVE",
"199.508 15.294 LINE",
"200.024 16.841 OFFCURVE",
"207 30 OFFCURVE",
"209 34 QCURVE SMOOTH",
"643.579 913.032 LINE",
"651.675 913.032 LINE",
"200.54 0 LINE",
"193.508 0 LINE",
"32.905 913.032 LINE"
);
}
);
width = 626;
}
);
leftKerningGroup = gamma;
rightKerningGroup = gamma;
unicode = 0076;
},
{
glyphname = w;
layers = (
{
layerId = "33953612-DAF4-435D-999F-265D395630EB";
paths = (
{
closed = 1;
nodes = (
"48.603 913.032 LINE",
"143 56 LINE SMOOTH",
"144 47 OFFCURVE",
"147.913 22.262 OFFCURVE",
"148.429 19.167 QCURVE",
"148.429 19.167 LINE",
"149.976 22.262 OFFCURVE",
"162 47 OFFCURVE",
"166 56 QCURVE SMOOTH",
"540.841 913.032 LINE",
"549.937 913.032 LINE",
"649 55 LINE SMOOTH",
"650 45 OFFCURVE",
"653.627 23.294 OFFCURVE",
"655.175 19.167 QCURVE",
"655.175 19.167 LINE",
"657.754 23.294 OFFCURVE",
"668 44 OFFCURVE",
"673 55 QCURVE SMOOTH",
"1036.175 913.032 LINE",
"1044.27 913.032 LINE",
"655.206 0 LINE",
"649.206 0 LINE",
"548 866 LINE SMOOTH",
"547 874 OFFCURVE",
"544.452 893.159 OFFCURVE",
"543.421 897.802 QCURVE",
"543.421 897.802 LINE",
"540.325 893.159 OFFCURVE",
"530 873 OFFCURVE",
"527 866 QCURVE SMOOTH",
"149.008 0 LINE",
"141.46 0 LINE",
"40.508 913.032 LINE"
);
}
);
width = 1028;
}
);
leftKerningGroup = w_LC;
rightKerningGroup = w_LC;
unicode = 0077;
},
{
glyphname = x;
layers = (
{
layerId = "33953612-DAF4-435D-999F-265D395630EB";
paths = (
{
closed = 1;
nodes = (
"258.341 476.167 LINE",
"259.889 477.198 LINE",
"604.778 913.032 LINE",
"613.389 913.032 LINE",
"262.952 467.841 LINE",
"261.405 466.81 LINE",
"-99.063 0 LINE",
"-108.706 0 LINE"
);
},
{
closed = 1;
nodes = (
"58.183 913.032 LINE",
"262.889 477.683 LINE",
"263.405 476.651 LINE",
"477.397 0 LINE",
"468.27 0 LINE",
"257.889 466.294 LINE",
"256.857 467.325 LINE",
"48.54 913.032 LINE"
);
}
);
width = 601;
}
);
unicode = 0078;
},
{
glyphname = y;
layers = (
{
layerId = "33953612-DAF4-435D-999F-265D395630EB";
paths = (
{
closed = 1;
nodes = (
"-245.198 -384.452 LINE",
"-233.524 -393.611 OFFCURVE",
"-175.571 -411.96 OFFCURVE",
"-136.611 -411.96 QCURVE SMOOTH",
"-59.722 -411.96 OFFCURVE",
"94.27 -225.992 OFFCURVE",
"192.96 -0.357 QCURVE",
"192.96 -0.357 LINE",
"32.905 913.032 LINE",
"41 913.032 LINE",
"183.357 102.516 LINE SMOOTH",
"186.484 87.421 OFFCURVE",
"194.865 29.159 OFFCURVE",
"198.508 12.516 QCURVE",
"198.508 12.516 LINE",
"207.73 29.159 OFFCURVE",
"234.079 86.937 OFFCURVE",
"242.754 102.516 QCURVE SMOOTH",
"643.579 913.032 LINE",
"651.675 913.032 LINE",
"196.96 -5.484 LINE SMOOTH",
"89.5 -240.921 OFFCURVE",
"-57.754 -420.024 OFFCURVE",
"-137.643 -419.54 QCURVE SMOOTH",
"-178.667 -419.54 OFFCURVE",
"-235.008 -402.222 OFFCURVE",
"-247.683 -392.579 QCURVE"
);
}
);
width = 621;
}
);
leftKerningGroup = gamma;
rightKerningGroup = gamma;
unicode = 0079;
},
{
glyphname = z;
layers = (
{
layerId = "33953612-DAF4-435D-999F-265D395630EB";
paths = (
{
closed = 1;
nodes = (
"-88.968 7.032 LINE",
"566.659 905.968 LINE",
"61.603 905.968 LINE",
"62.119 913.032 LINE",
"577.849 913.032 LINE",
"577.333 906 LINE",
"-77.262 7.063 LINE",
"449.921 7.063 LINE",
"448.889 0 LINE",
"-89.484 0 LINE"
);
}
);
width = 585;
}
);
leftKerningGroup = z_LC;
rightKerningGroup = z_LC;
unicode = 007A;
},
{
glyphname = braceleft;
layers = (
{
layerId = "33953612-DAF4-435D-999F-265D395630EB";
paths = (
{
closed = 1;
nodes = (
"89.984 -317.159 OFFCURVE",
"3.833 -81.095 OFFCURVE",
"68.857 115.548 QCURVE SMOOTH",
"138.333 329.484 LINE SMOOTH",
"178.651 452.064 OFFCURVE",
"105.698 568.452 OFFCURVE",
"34.103 568.452 QCURVE",
"35.135 578.579 LINE",
"106.73 578.579 OFFCURVE",
"215.325 694.968 OFFCURVE",
"215.135 817.548 QCURVE SMOOTH",
"215.817 1031.484 LINE SMOOTH",
"215.5 1228.127 OFFCURVE",
"375.516 1465.706 OFFCURVE",
"540.81 1459.516 QCURVE",
"540.294 1453.873 LINE",
"380.579 1458.516 OFFCURVE",
"224.595 1227.095 OFFCURVE",
"224.397 1026 QCURVE SMOOTH",
"224.23 814.968 LINE SMOOTH",
"223.389 711.095 OFFCURVE",
"138.722 589.127 OFFCURVE",
"65.706 573.516 QCURVE",
"135.659 554.452 OFFCURVE",
"181.135 437.841 OFFCURVE",
"147.944 334.968 QCURVE SMOOTH",
"78.468 121.032 LINE SMOOTH",
"12.444 -80.579 OFFCURVE",
"97.016 -309.032 OFFCURVE",
"261.794 -304.905 QCURVE",
"260.762 -312 LINE"
);
}
);
width = 447;
}
);
rightKerningGroup = parens;
unicode = 007B;
},
{
glyphname = bar;
layers = (
{
layerId = "33953612-DAF4-435D-999F-265D395630EB";
paths = (
{
closed = 1;
nodes = (
"292.079 1456.968 LINE",
"299.627 1456.968 LINE",
"1.579 -415.032 LINE",
"-5.968 -415.032 LINE"
);
}
);
width = 360;
}
);
unicode = 007C;
},
{
glyphname = braceright;
layers = (
{
layerId = "33953612-DAF4-435D-999F-265D395630EB";
paths = (
{
closed = 1;
nodes = (
"-145.032 -303.873 LINE",
"16.619 -308.516 OFFCURVE",
"175.508 -79.032 OFFCURVE",
"173.77 122.063 QCURVE SMOOTH",
"171.516 336 LINE SMOOTH",
"172.357 439.873 OFFCURVE",
"256.54 557 OFFCURVE",
"331.008 574.548 QCURVE",
"262.508 591.19 OFFCURVE",
"217.968 712.159 OFFCURVE",
"250.706 816 QCURVE SMOOTH",
"317.762 1027.032 LINE SMOOTH",
"381.817 1229.127 OFFCURVE",
"300.151 1453.706 OFFCURVE",
"135.889 1452.484 QCURVE",
"137.405 1460.063 LINE",
"308.667 1462.318 OFFCURVE",
"391.913 1229.159 OFFCURVE",
"328.341 1032.516 QCURVE SMOOTH",
"260.317 818.579 LINE SMOOTH",
"220.968 696 OFFCURVE",
"292.468 579.611 OFFCURVE",
"364.064 579.611 QCURVE",
"359.611 569.484 LINE",
"290.921 569.484 OFFCURVE",
"179.905 453.095 OFFCURVE",
"180.095 330.516 QCURVE SMOOTH",
"182.349 116.579 LINE SMOOTH",
"184.603 -80.063 OFFCURVE",
"22.651 -317.159 OFFCURVE",
"-146.063 -310.968 QCURVE"
);
}
);
width = 447;
}
);
leftKerningGroup = parens;
unicode = 007D;
},
{
glyphname = asciitilde;
layers = (
{
layerId = "33953612-DAF4-435D-999F-265D395630EB";
paths = (
{
closed = 1;
nodes = (
"121.095 674.976 LINE",
"152.373 707.159 OFFCURVE",
"217.095 741.667 OFFCURVE",
"251.794 741.667 QCURVE SMOOTH",
"282.365 741.667 OFFCURVE",
"348.857 720.19 OFFCURVE",
"389.746 700.778 QCURVE SMOOTH",
"433.73 679.817 OFFCURVE",
"496.286 659.889 OFFCURVE",
"524.468 659.889 QCURVE SMOOTH",
"561.23 659.889 OFFCURVE",
"624.627 692.492 OFFCURVE",
"651.262 725.675 QCURVE",
"650.683 715.968 LINE",
"623.595 683.881 OFFCURVE",
"559.262 652.341 OFFCURVE",
"523.952 652.341 QCURVE SMOOTH",
"495.77 652.341 OFFCURVE",
"425.698 672.786 OFFCURVE",
"386.841 691.683 QCURVE SMOOTH",
"352.048 709.063 OFFCURVE",
"281.849 734.119 OFFCURVE",
"251.278 734.119 QCURVE SMOOTH",
"216.579 734.119 OFFCURVE",
"157.31 703.032 OFFCURVE",
"120.548 666.27 QCURVE"
);
}
);
width = 792;
}
);
unicode = 007E;
},
{
glyphname = exclamdown;
layers = (
{
layerId = "33953612-DAF4-435D-999F-265D395630EB";
paths = (
{
closed = 1;
nodes = (
"457.738 1004 OFFCURVE",
"387.762 934 OFFCURVE",
"327.762 934 QCURVE SMOOTH",
"267.762 934 OFFCURVE",
"209.738 1004 OFFCURVE",
"213.921 1053 QCURVE SMOOTH",
"218.104 1102 OFFCURVE",
"288.079 1172 OFFCURVE",
"348.079 1172 QCURVE SMOOTH",
"408.079 1172 OFFCURVE",
"466.104 1102 OFFCURVE",
"461.921 1053 QCURVE SMOOTH"
);
},
{
closed = 1;
nodes = (
"318.91 -306 LINE",
"124.91 -306 LINE",
"229.202 740 LINE",
"393.202 740 LINE"
);
}
);
width = 620;
}
);
unicode = 00A1;
},
{
glyphname = cent;
layers = (
{
layerId = "33953612-DAF4-435D-999F-265D395630EB";
paths = (
{
closed = 1;
nodes = (
"608.105 282 OFFCURVE",
"767.263 401 OFFCURVE",
"782.031 492 QCURVE",
"958.031 492 LINE",
"937.739 348 OFFCURVE",
"667.129 130 OFFCURVE",
"496.129 130 QCURVE SMOOTH",
"253.129 130 OFFCURVE",
"41.787 454 OFFCURVE",
"60.226 670 QCURVE SMOOTH",
"63.811 712 LINE SMOOTH",
"82.25 928 OFFCURVE",
"348.908 1252 OFFCURVE",
"591.908 1252 QCURVE SMOOTH",
"780.908 1252 OFFCURVE",
"996.616 1026 OFFCURVE",
"989.445 860 QCURVE",
"813.445 860 LINE",
"814.896 959 OFFCURVE",
"688.933 1100 OFFCURVE",
"578.933 1100 QCURVE SMOOTH",
"408.933 1100 OFFCURVE",
"261.762 852 OFFCURVE",
"249.811 712 QCURVE SMOOTH",
"246.226 670 LINE SMOOTH",
"234.104 528 OFFCURVE",
"337.105 282 OFFCURVE",
"509.105 282 QCURVE SMOOTH"
);
},
{
closed = 1;
nodes = (
"427.263 237 LINE",
"433.458 251 LINE",
"472.47 708 LINE",
"612.47 708 LINE",
"573.373 250 LINE",
"577.519 240 LINE",
"557.032 0 LINE",
"407.032 0 LINE"
);
},
{
closed = 1;
nodes = (
"512.933 1182 LINE",
"508.786 1192 LINE",
"526.713 1402 LINE",
"676.713 1402 LINE",
"658.786 1192 LINE",
"652.677 1179 LINE",
"612.47 708 LINE",
"472.47 708 LINE"
);
}
);
width = 1024;
}
);
unicode = 00A2;
},
{
glyphname = sterling;
layers = (
{
layerId = "33953612-DAF4-435D-999F-265D395630EB";
paths = (
{
closed = 1;
nodes = (
"-25.968 0 LINE",
"-12.31 160 LINE",
"43.69 160 LINE SMOOTH",
"135.69 160 OFFCURVE",
"229.69 324 OFFCURVE",
"227.897 467 QCURVE SMOOTH",
"221.726 1039 LINE SMOOTH",
"219.86 1228 OFFCURVE",
"444.03 1476 OFFCURVE",
"645.03 1476 QCURVE SMOOTH",
"835.03 1476 OFFCURVE",
"1030.445 1270 OFFCURVE",
"1016.189 1103 QCURVE SMOOTH",
"1014.823 1087 LINE",
"822.823 1087 LINE",
"824.189 1103 LINE SMOOTH",
"827.006 1218 OFFCURVE",
"724.774 1309 OFFCURVE",
"632.774 1309 QCURVE SMOOTH",
"535.774 1309 OFFCURVE",
"408.189 1185 OFFCURVE",
"409.726 1039 QCURVE SMOOTH",
"415.397 508 LINE SMOOTH",
"416.787 372 OFFCURVE",
"347.702 207 OFFCURVE",
"274.202 166 QCURVE",
"980.202 166 LINE",
"966.032 0 LINE"
);
},
{
closed = 1;
nodes = (
"43.385 625 LINE",
"56.616 780 LINE",
"828.616 780 LINE",
"815.385 625 LINE"
);
}
);
width = 1024;
}
);
unicode = 00A3;
},
{
glyphname = currency;
layers = (
{
guideLines = (
{
position = "{14.945, 901}";
},
{
position = "{-14.591, 555}";
}
);
layerId = "33953612-DAF4-435D-999F-265D395630EB";
paths = (
{
closed = 1;
nodes = (
"247.434 567 OFFCURVE",
"414.873 373 OFFCURVE",
"545.873 373 QCURVE SMOOTH",
"675.873 373 OFFCURVE",
"875.434 567 OFFCURVE",
"887.811 712 QCURVE SMOOTH",
"900.018 855 OFFCURVE",
"733.579 1049 OFFCURVE",
"603.579 1049 QCURVE SMOOTH",
"472.579 1049 OFFCURVE",
"272.019 855 OFFCURVE",
"259.811 712 QCURVE"
);
},
{
closed = 1;
nodes = (
"95.677 933 OFFCURVE",
"416.603 1225 OFFCURVE",
"617.603 1225 QCURVE SMOOTH",
"818.603 1225 OFFCURVE",
"1089.677 933 OFFCURVE",
"1071.324 718 QCURVE SMOOTH",
"1053.056 504 OFFCURVE",
"731.873 209 OFFCURVE",
"530.873 209 QCURVE SMOOTH",
"329.873 209 OFFCURVE",
"59.056 504 OFFCURVE",
"77.324 718 QCURVE"
);
},
{
closed = 1;
nodes = (
"937.835 970 LINE",
"826.677 1097 LINE",
"1046.262 1303 LINE",
"1157.421 1176 LINE"
);
},
{
closed = 1;
nodes = (
"83.666 148 LINE",
"-26.578 274 LINE",
"192.921 479 LINE",
"303.251 354 LINE"
);
},
{
closed = 1;
nodes = (
"789.848 361 LINE",
"923.604 487 LINE",
"1108.105 282 LINE",
"974.263 155 LINE"
);
},
{
closed = 1;
nodes = (
"68.616 1190 LINE",
"200.372 1316 LINE",
"384.786 1110 LINE",
"253.031 984 LINE"
);
}
);
width = 1158;
}
);
unicode = 00A4;
userData = {
com.typemytype.robofont.guideline.magnetic.917FhrihjR = 5;
com.typemytype.robofont.guideline.magnetic.bRYxxRaQQf = 5;
};
},
{
glyphname = yen;
layers = (
{
layerId = "33953612-DAF4-435D-999F-265D395630EB";
paths = (
{
closed = 1;
nodes = (
"37.153 470 LINE",
"983.153 470 LINE",
"969.58 311 LINE",
"23.58 311 LINE"
);
},
{
closed = 1;
nodes = (
"63.189 775 LINE",
"429.189 775 LINE",
"473.141 669 LINE",
"582.141 669 LINE",
"639.189 775 LINE",
"1009.189 775 LINE",
"996.043 621 LINE",
"50.043 621 LINE"
);
},
{
closed = 1;
nodes = (
"420.812 548 LINE",
"43.323 1456 LINE",
"252.323 1456 LINE",
"476.506 849 LINE SMOOTH",
"487.945 819 OFFCURVE",
"512.153 716 OFFCURVE",
"515.994 679 QCURVE",
"535.994 679 LINE",
"549.775 735 OFFCURVE",
"587.945 819 OFFCURVE",
"604.506 849 QCURVE SMOOTH",
"936.323 1456 LINE",
"1137.323 1456 LINE",
"604.812 548 LINE",
"558.032 0 LINE",
"374.032 0 LINE"
);
}
);
width = 1056;
}
);
unicode = 00A5;
},
{
glyphname = brokenbar;
layers = (
{
guideLines = (
{
position = "{14.945, 901}";
},
{
position = "{-14.591, 555}";
}
);
layerId = "33953612-DAF4-435D-999F-265D395630EB";
paths = (
{
closed = 1;
nodes = (
"107.52 -416 LINE",
"173.678 359 LINE",
"355.678 359 LINE",
"289.52 -416 LINE"
);
},
{
closed = 1;
nodes = (
"389.994 761 LINE",
"207.994 761 LINE",
"274.152 1536 LINE",
"456.152 1536 LINE"
);
}
);
width = 592;
}
);
unicode = 00A6;
userData = {
com.typemytype.robofont.guideline.magnetic.Z0RZpP7MTi = 5;
com.typemytype.robofont.guideline.magnetic.jmguX8NWKI = 5;
};
},
{
glyphname = section;
layers = (
{
guideLines = (
{
position = "{79.566, 1658}";
},
{
position = "{-12.627, 578}";
}
);
layerId = "33953612-DAF4-435D-999F-265D395630EB";
paths = (
{
closed = 1;
nodes = (
"650.544 252 LINE",
"760.544 252 OFFCURVE",
"924.129 376 OFFCURVE",
"931.556 463 QCURVE",
"939.495 556 OFFCURVE",
"782.397 672 OFFCURVE",
"606.689 734 QCURVE SMOOTH",
"418.811 794 OFFCURVE",
"215.043 949 OFFCURVE",
"230.408 1129 QCURVE SMOOTH",
"245.433 1305 OFFCURVE",
"486.225 1490 OFFCURVE",
"688.31 1491 QCURVE SMOOTH",
"881.396 1492 OFFCURVE",
"1088.494 1294 OFFCURVE",
"1070.933 1100 QCURVE",
"905.933 1100 LINE",
"915.469 1200 OFFCURVE",
"796.164 1337 OFFCURVE",
"675.164 1337 QCURVE SMOOTH",
"535.164 1337 OFFCURVE",
"404.799 1239 OFFCURVE",
"396.347 1140 QCURVE SMOOTH",
"388.579 1049 OFFCURVE",
"504.067 961 OFFCURVE",
"698.604 897 QCURVE SMOOTH",
"877.653 839 OFFCURVE",
"1128.689 652 OFFCURVE",
"1113.836 478 QCURVE SMOOTH",
"1099.922 315 OFFCURVE",
"819.385 133 OFFCURVE",
"640.385 133 QCURVE"
);
},
{
closed = 1;
nodes = (
"538.567 756 LINE",
"427.567 756 OFFCURVE",
"294.433 649 OFFCURVE",
"287.434 567 QCURVE SMOOTH",
"280.604 487 OFFCURVE",
"418.068 387 OFFCURVE",
"601.092 317 QCURVE SMOOTH",
"771.544 252 OFFCURVE",
"991.666 66 OFFCURVE",
"976.386 -113 QCURVE SMOOTH",
"960.593 -298 OFFCURVE",
"688.581 -509 OFFCURVE",
"493.581 -509 QCURVE SMOOTH",
"298.581 -509 OFFCURVE",
"43.166 -303 OFFCURVE",
"62.885 -72 QCURVE",
"227.056 -70 LINE",
"213.398 -230 OFFCURVE",
"400.727 -355 OFFCURVE",
"506.727 -355 QCURVE SMOOTH",
"623.727 -355 OFFCURVE",
"801.203 -244 OFFCURVE",
"810.422 -136 QCURVE SMOOTH",
"819.044 -35 OFFCURVE",
"688.056 94 OFFCURVE",
"491.775 161 QCURVE SMOOTH",
"311.983 222 OFFCURVE",
"92.885 420 OFFCURVE",
"106.287 577 QCURVE SMOOTH",
"119.092 727 OFFCURVE",
"389.348 894 OFFCURVE",
"551.348 894 QCURVE"
);
}
);
width = 1256;
}
);
unicode = 00A7;
userData = {
com.typemytype.robofont.guideline.magnetic.9Hxjf2sdFw = 5;
com.typemytype.robofont.guideline.magnetic.QzZ5gIiCyn = 5;
};
},
{
glyphname = dieresis;
layers = (
{
layerId = "33953612-DAF4-435D-999F-265D395630EB";
paths = (
{
closed = 1;
nodes = (
"189.867 1033.698 OFFCURVE",
"200.838 1044.698 OFFCURVE",
"210.354 1044.698 QCURVE SMOOTH",
"219.87 1044.698 OFFCURVE",
"228.931 1033.698 OFFCURVE",
"228.333 1026.182 QCURVE SMOOTH",
"227.736 1018.151 OFFCURVE",
"216.281 1007.151 OFFCURVE",
"206.765 1007.151 QCURVE SMOOTH",
"197.249 1007.151 OFFCURVE",
"188.672 1018.151 OFFCURVE",
"189.27 1026.182 QCURVE SMOOTH"
);
},
{
closed = 1;
nodes = (
"465.605 1033.698 OFFCURVE",
"476.576 1044.698 OFFCURVE",
"486.576 1044.698 QCURVE SMOOTH",
"496.092 1044.698 OFFCURVE",
"504.669 1033.698 OFFCURVE",
"503.986 1025.698 QCURVE SMOOTH",
"503.388 1017.667 OFFCURVE",
"492.503 1007.151 OFFCURVE",
"482.987 1007.151 QCURVE SMOOTH",
"472.987 1007.151 OFFCURVE",
"464.325 1017.667 OFFCURVE",
"464.922 1025.698 QCURVE SMOOTH"
);
}
);
width = 649;
}
);
unicode = 00A8;
},
{
glyphname = copyright;
layers = (
{
guideLines = (
{
position = "{14.945, 901}";
},
{
position = "{-14.591, 555}";
}
);
layerId = "33953612-DAF4-435D-999F-265D395630EB";
paths = (
{
closed = 1;
nodes = (
"1196.641 546 LINE",
"1182.043 375 OFFCURVE",
"932.531 205 OFFCURVE",
"768.531 205 QCURVE SMOOTH",
"597.531 205 OFFCURVE",
"394.336 437 OFFCURVE",
"413.714 664 QCURVE SMOOTH",
"417.043 703 LINE SMOOTH",
"436.506 931 OFFCURVE",
"680.908 1170 OFFCURVE",
"867.908 1170 QCURVE SMOOTH",
"1054.908 1170 OFFCURVE",
"1234.945 983 OFFCURVE",
"1221.799 829 QCURVE",
"1039.799 829 LINE",
"1047.311 917 OFFCURVE",
"951.909 1006 OFFCURVE",
"852.909 1006 QCURVE SMOOTH",
"745.909 1006 OFFCURVE",
"624.128 868 OFFCURVE",
"613.799 747 QCURVE SMOOTH",
"603.043 621 LINE SMOOTH",
"592.629 499 OFFCURVE",
"699.934 362 OFFCURVE",
"806.934 362 QCURVE SMOOTH",
"905.934 362 OFFCURVE",
"1007.043 457 OFFCURVE",
"1014.641 546 QCURVE"
);
},
{
closed = 1;
nodes = (
"158.178 400 OFFCURVE",
"501.373 4 OFFCURVE",
"766.373 4 QCURVE SMOOTH",
"1030.373 4 OFFCURVE",
"1441.178 400 OFFCURVE",
"1465.677 687 QCURVE SMOOTH",
"1490.262 975 OFFCURVE",
"1146.725 1367 OFFCURVE",
"882.725 1367 QCURVE SMOOTH",
"617.725 1367 OFFCURVE",
"207.262 975 OFFCURVE",
"182.677 687 QCURVE SMOOTH"
);
},
{
closed = 1;
nodes = (
"64.726 1039 OFFCURVE",
"568.701 1519 OFFCURVE",
"894.701 1519 QCURVE SMOOTH",
"1219.701 1519 OFFCURVE",
"1642.726 1039 OFFCURVE",
"1612.677 687 QCURVE SMOOTH",
"1582.8 337 OFFCURVE",
"1077.483 -147 OFFCURVE",
"752.483 -147 QCURVE SMOOTH",
"426.483 -147 OFFCURVE",
"4.8 337 OFFCURVE",
"34.677 687 QCURVE SMOOTH"
);
}
);
width = 1654;
}
);
leftKerningGroup = copyright;
rightKerningGroup = copyright;
unicode = 00A9;
userData = {
com.typemytype.robofont.guideline.magnetic.0Pjz0qKr8z = 5;
com.typemytype.robofont.guideline.magnetic.sJo8BlDiJ7 = 5;
};
},
{
glyphname = ordfeminine;
layers = (
{
guideLines = (
{
position = "{81.53, 1681}";
},
{
position = "{15.628, 909}";
}
);
layerId = "33953612-DAF4-435D-999F-265D395630EB";
paths = (
{
closed = 1;
nodes = (
"614.116 821 OFFCURVE",
"626.86 736 OFFCURVE",
"647.299 706 QCURVE",
"782.299 706 LINE",
"771.97 749 OFFCURVE",
"767.567 838 OFFCURVE",
"771.75 887 QCURVE SMOOTH",
"798.555 1201 LINE SMOOTH",
"810.25 1338 OFFCURVE",
"663.115 1477 OFFCURVE",
"528.115 1477 QCURVE SMOOTH",
"401.115 1477 OFFCURVE",
"218.786 1356 OFFCURVE",
"210.677 1261 QCURVE SMOOTH",
"208.372 1234 LINE",
"363.372 1234 LINE",
"364.481 1247 LINE SMOOTH",
"368.323 1292 OFFCURVE",
"447.933 1346 OFFCURVE",
"518.933 1346 QCURVE SMOOTH",
"585.933 1346 OFFCURVE",
"652.957 1276 OFFCURVE",
"646.64 1202 QCURVE SMOOTH",
"617.616 862 LINE"
);
},
{
closed = 1;
nodes = (
"513.116 1149 LINE SMOOTH",
"344.116 1149 OFFCURVE",
"166.787 1028 OFFCURVE",
"157.396 918 QCURVE SMOOTH",
"148.689 816 OFFCURVE",
"265.104 692 OFFCURVE",
"384.104 692 QCURVE SMOOTH",
"485.104 692 OFFCURVE",
"624.299 788 OFFCURVE",
"650.482 837 QCURVE",
"642.043 949 LINE",
"638.799 911 OFFCURVE",
"498.201 822 OFFCURVE",
"434.201 822 QCURVE SMOOTH",
"370.201 822 OFFCURVE",
"311.067 879 OFFCURVE",
"314.738 922 QCURVE SMOOTH",
"318.75 969 OFFCURVE",
"414.982 1042 OFFCURVE",
"504.982 1042 QCURVE SMOOTH",
"661.982 1042 LINE",
"671.116 1149 LINE"
);
}
);
width = 916;
}
);
unicode = 00AA;
userData = {
com.typemytype.robofont.guideline.magnetic.3CJlALCfkl = 5;
com.typemytype.robofont.guideline.magnetic.Zdl6NZVQAy = 5;
};
},
{
glyphname = guillemotleft;
layers = (
{
guideLines = (
{
position = "{14.945, 901}";
},
{
position = "{-14.591, 555}";
}
);
layerId = "33953612-DAF4-435D-999F-265D395630EB";
paths = (
{
closed = 1;
nodes = (
"95.629 581 LINE",
"422.043 949 LINE",
"584.043 949 LINE",
"292.068 551 LINE",
"516.093 153 LINE",
"354.093 153 LINE",
"90.592 522 LINE"
);
},
{
closed = 1;
nodes = (
"535.629 581 LINE",
"862.043 949 LINE",
"1024.043 949 LINE",
"732.068 551 LINE",
"956.093 153 LINE",
"794.093 153 LINE",
"530.592 522 LINE"
);
}
);
width = 1092;
}
);
leftKerningGroup = guillemotleft;
rightKerningGroup = guillemotleft;
unicode = 00AB;
userData = {
com.typemytype.robofont.guideline.magnetic.MVJpdoVRVd = 5;
com.typemytype.robofont.guideline.magnetic.ZftBQarVKw = 5;
};
},
{
glyphname = logicalnot;
layers = (
{
layerId = "33953612-DAF4-435D-999F-265D395630EB";
paths = (
{
closed = 1;
nodes = (
"898.129 376 LINE",
"713.129 376 LINE",
"735.409 637 LINE",
"50.409 637 LINE",
"64.409 801 LINE",
"934.409 801 LINE"
);
}
);
width = 1024;
}
);
unicode = 00AC;
},
{
glyphname = registered;
layers = (
{
layerId = "33953612-DAF4-435D-999F-265D395630EB";
paths = (
{
closed = 1;
nodes = (
"64.726 1039 OFFCURVE",
"568.701 1519 OFFCURVE",
"894.701 1519 QCURVE SMOOTH",
"1219.701 1519 OFFCURVE",
"1642.726 1039 OFFCURVE",
"1612.677 687 QCURVE SMOOTH",
"1582.8 337 OFFCURVE",
"1077.483 -147 OFFCURVE",
"752.483 -147 QCURVE SMOOTH",
"426.483 -147 OFFCURVE",
"4.8 337 OFFCURVE",
"34.677 687 QCURVE SMOOTH"
);
},
{
closed = 1;
nodes = (
"158.178 400 OFFCURVE",
"501.373 4 OFFCURVE",
"766.373 4 QCURVE SMOOTH",
"1030.373 4 OFFCURVE",
"1441.178 400 OFFCURVE",
"1465.677 687 QCURVE SMOOTH",
"1490.262 975 OFFCURVE",
"1146.725 1367 OFFCURVE",
"882.725 1367 QCURVE SMOOTH",
"617.725 1367 OFFCURVE",
"207.262 975 OFFCURVE",
"182.677 687 QCURVE SMOOTH"
);
},
{
closed = 1;
nodes = (
"652.994 597 LINE",
"621.239 225 LINE",
"456.239 225 LINE",
"535.884 1158 LINE",
"857.884 1158 LINE SMOOTH",
"1029.884 1158 OFFCURVE",
"1221.933 1018 OFFCURVE",
"1209.896 877 QCURVE SMOOTH",
"1200.25 764 OFFCURVE",
"1080.665 640 OFFCURVE",
"969.787 618 QCURVE",
"998.824 595 OFFCURVE",
"1020.751 559 OFFCURVE",
"1035.275 530 QCURVE SMOOTH",
"1179.775 243 LINE",
"1178.239 225 LINE",
"999.239 225 LINE",
"843.994 597 LINE"
);
},
{
closed = 1;
nodes = (
"687.994 1007 LINE",
"665.031 738 LINE",
"848.031 738 LINE SMOOTH",
"921.031 738 OFFCURVE",
"1021.897 795 OFFCURVE",
"1027.36 859 QCURVE SMOOTH",
"1034.275 940 OFFCURVE",
"963.909 1006 OFFCURVE",
"845.994 1007 QCURVE SMOOTH"
);
}
);
width = 1654;
}
);
leftKerningGroup = copyright;
rightKerningGroup = copyright;
unicode = 00AE;
},
{
glyphname = macron;
layers = (
{
layerId = "33953612-DAF4-435D-999F-265D395630EB";
paths = (
{
closed = 1;
nodes = (
"479.381 1009.159 LINE",
"217.865 1009.159 LINE",
"217.353 1011.413 LINE",
"478.869 1011.413 LINE"
);
}
);
width = 649;
}
);
unicode = 00AF;
},
{
glyphname = degree;
layers = (
{
layerId = "33953612-DAF4-435D-999F-265D395630EB";
paths = (
{
closed = 1;
nodes = (
"181.969 1323 OFFCURVE",
"346.115 1477 OFFCURVE",
"450.115 1477 QCURVE SMOOTH",
"553.115 1477 OFFCURVE",
"687.967 1322.97 OFFCURVE",
"678.921 1217 QCURVE SMOOTH",
"669.811 1110.284 OFFCURVE",
"508.967 960 OFFCURVE",
"405.982 960 QCURVE SMOOTH",
"302.25 960 OFFCURVE",
"163.787 1110 OFFCURVE",
"172.921 1217 QCURVE"
);
},
{
closed = 1;
nodes = (
"292.206 1161.776 OFFCURVE",
"363.177 1088 OFFCURVE",
"416.908 1088 QCURVE SMOOTH",
"470.64 1088 OFFCURVE",
"550.206 1161.776 OFFCURVE",
"554.921 1217 QCURVE SMOOTH",
"559.698 1272.97 OFFCURVE",
"492.92 1349 OFFCURVE",
"439.189 1349 QCURVE SMOOTH",
"385.457 1349 OFFCURVE",
"301.698 1272.97 OFFCURVE",
"296.921 1217 QCURVE"
);
}
);
width = 765;
}
);
unicode = 00B0;
},
{
glyphname = plusminus;
layers = (
{
layerId = "33953612-DAF4-435D-999F-265D395630EB";
paths = (
{
closed = 1;
nodes = (
"61.189 775 LINE",
"971.189 775 LINE",
"957.19 611 LINE",
"47.19 611 LINE"
);
},
{
closed = 1;
nodes = (
"459.055 1160 LINE",
"639.055 1160 LINE",
"561.202 248 LINE",
"381.202 248 LINE"
);
},
{
closed = 1;
nodes = (
"9.117 165 LINE",
"919.117 165 LINE",
"905.117 1 LINE",
"-4.883 1 LINE"
);
}
);
width = 1024;
}
);
unicode = 00B1;
},
{
glyphname = twosuperior;
layers = (
{
layerId = "33953612-DAF4-435D-999F-265D395630EB";
paths = (
{
closed = 1;
nodes = (
"56.815 755.135 LINE",
"277.355 1056.318 LINE SMOOTH",
"328.035 1124.095 OFFCURVE",
"364.924 1215.516 OFFCURVE",
"372.863 1277.563 QCURVE SMOOTH",
"380.973 1348.318 OFFCURVE",
"344.775 1397.833 OFFCURVE",
"301.267 1397.833 QCURVE SMOOTH",
"252.727 1397.833 OFFCURVE",
"196.711 1332.063 OFFCURVE",
"184.849 1223.175 QCURVE",
"94.793 1223.175 LINE",
"107.423 1365.31 OFFCURVE",
"210.97 1472.96 OFFCURVE",
"299.716 1472.96 QCURVE SMOOTH",
"383.366 1472.96 OFFCURVE",
"472.747 1381.27 OFFCURVE",
"464.466 1278.595 QCURVE SMOOTH",
"456.442 1191.818 OFFCURVE",
"390.749 1083.341 OFFCURVE",
"329.182 1006.825 QCURVE SMOOTH",
"183.408 778.19 LINE",
"433.996 778.19 LINE",
"433.398 698.452 LINE",
"56.644 698.452 LINE"
);
}
);
width = 488;
}
);
unicode = 00B2;
},
{
glyphname = threesuperior;
layers = (
{
layerId = "33953612-DAF4-435D-999F-265D395630EB";
paths = (
{
closed = 1;
nodes = (
"144.984 903.056 LINE",
"131.582 803.833 OFFCURVE",
"179.149 752.833 OFFCURVE",
"226.268 752.833 QCURVE SMOOTH",
"274.451 752.833 OFFCURVE",
"322.443 801.444 OFFCURVE",
"333.369 888.69 QCURVE SMOOTH",
"343.613 974.127 OFFCURVE",
"303.403 1046.397 OFFCURVE",
"251.221 1046.913 QCURVE SMOOTH",
"199.173 1046.913 LINE",
"199.6 1112.27 LINE",
"250.68 1112.27 LINE SMOOTH",
"298.957 1112.27 OFFCURVE",
"350.42 1188.119 OFFCURVE",
"358.701 1259.841 QCURVE SMOOTH",
"370.822 1351.286 OFFCURVE",
"337.38 1400.318 OFFCURVE",
"289.682 1400.318 QCURVE SMOOTH",
"247.69 1400.318 OFFCURVE",
"196.33 1349.349 OFFCURVE",
"183.355 1253.579 QCURVE",
"99.458 1253.579 LINE",
"112.519 1379.754 OFFCURVE",
"213.132 1473.929 OFFCURVE",
"288.561 1473.929 QCURVE SMOOTH",
"368.696 1473.929 OFFCURVE",
"461.596 1389.913 OFFCURVE",
"449.218 1263.484 QCURVE SMOOTH",
"440.511 1187.794 OFFCURVE",
"389.763 1097.246 OFFCURVE",
"350.239 1083.96 QCURVE",
"397.251 1071.127 OFFCURVE",
"433.127 979.127 OFFCURVE",
"422.457 884.563 QCURVE SMOOTH",
"411.359 764.881 OFFCURVE",
"304.365 679.222 OFFCURVE",
"223.262 679.222 QCURVE SMOOTH",
"150.929 679.222 OFFCURVE",
"47.429 762.659 OFFCURVE",
"61.087 903.056 QCURVE"
);
}
);
width = 481;
}
);
unicode = 00B3;
},
{
glyphname = acute;
layers = (
{
layerId = "33953612-DAF4-435D-999F-265D395630EB";
paths = (
{
closed = 1;
nodes = (
"439.929 1247.571 LINE",
"447.274 1242.992 LINE",
"237.629 978 LINE",
"231.8 982.063 LINE"
);
}
);
width = 649;
}
);
unicode = 00B4;
},
{
glyphname = paragraph;
layers = (
{
guideLines = (
{
position = "{14.945, 901}";
},
{
position = "{-14.591, 555}";
}
);
layerId = "33953612-DAF4-435D-999F-265D395630EB";
paths = (
{
closed = 1;
nodes = (
"472.569 -146 LINE",
"544.446 696 LINE",
"457.446 696 LINE SMOOTH",
"262.446 696 OFFCURVE",
"71.884 912 OFFCURVE",
"85.884 1076 QCURVE SMOOTH",
"99.713 1238 OFFCURVE",
"327.323 1456 OFFCURVE",
"522.323 1456 QCURVE SMOOTH",
"795.323 1456 LINE",
"658.568 -146 LINE"
);
},
{
closed = 1;
nodes = (
"1123.579 1459 LINE",
"986.568 -146 LINE",
"800.568 -146 LINE",
"937.579 1459 LINE"
);
}
);
width = 1261;
}
);
unicode = 00B6;
userData = {
com.typemytype.robofont.guideline.magnetic.27539Lsr1A = 5;
com.typemytype.robofont.guideline.magnetic.e34wUdCmXR = 5;
};
},
{
glyphname = periodcentered;
layers = (
{
layerId = "33953612-DAF4-435D-999F-265D395630EB";
paths = (
{
closed = 1;
nodes = (
"182.153 798 OFFCURVE",
"252.128 868 OFFCURVE",
"312.128 868 QCURVE SMOOTH",
"372.128 868 OFFCURVE",
"430.153 798 OFFCURVE",
"425.97 749 QCURVE SMOOTH",
"421.787 700 OFFCURVE",
"351.811 630 OFFCURVE",
"291.811 630 QCURVE SMOOTH",
"231.811 630 OFFCURVE",
"173.787 700 OFFCURVE",
"177.97 749 QCURVE SMOOTH"
);
}
);
width = 600;
}
);
unicode = 00B7;
},
{
glyphname = cedilla;
layers = (
{
layerId = "33953612-DAF4-435D-999F-265D395630EB";
paths = (
{
closed = 1;
nodes = (
"247.34 31.833 LINE",
"217.899 -65.079 LINE",
"301.012 -69.69 OFFCURVE",
"370.491 -125.746 OFFCURVE",
"367.076 -169.357 QCURVE SMOOTH",
"362.296 -238.254 OFFCURVE",
"227.075 -321.405 OFFCURVE",
"114.178 -321.405 QCURVE",
"113.658 -314.373 LINE",
"221.976 -314.373 OFFCURVE",
"354.058 -234.77 OFFCURVE",
"358.411 -170.873 QCURVE SMOOTH",
"361.655 -128.746 OFFCURVE",
"297.469 -76.722 OFFCURVE",
"208.377 -71.111 QCURVE",
"238.761 31.833 LINE"
);
}
);
width = 649;
}
);
unicode = 00B8;
},
{
glyphname = onesuperior;
layers = (
{
layerId = "33953612-DAF4-435D-999F-265D395630EB";
paths = (
{
closed = 1;
nodes = (
"124.898 1370.968 LINE",
"363.434 1471.476 LINE",
"389.037 1471.476 LINE",
"320.233 674.246 LINE",
"233.757 674.246 LINE",
"301.963 1365.944 LINE",
"125.668 1285.071 LINE"
);
}
);
width = 508;
}
);
unicode = 00B9;
},
{
glyphname = ordmasculine;
layers = (
{
guideLines = (
{
position = "{106.627, 1975}";
}
);
layerId = "33953612-DAF4-435D-999F-265D395630EB";
paths = (
{
closed = 1;
nodes = (
"156.982 1124 LINE",
"170.128 1278 OFFCURVE",
"372.253 1477 OFFCURVE",
"529.115 1477 QCURVE SMOOTH",
"687.216 1477 OFFCURVE",
"854.105 1277.87 OFFCURVE",
"840.982 1124 QCURVE",
"834.067 1043 LINE",
"820.944 889.13 OFFCURVE",
"620.881 691 OFFCURVE",
"464.019 691 QCURVE SMOOTH",
"305.918 691 OFFCURVE",
"136.921 889 OFFCURVE",
"150.067 1043 QCURVE"
);
},
{
closed = 1;
nodes = (
"313.067 1043 LINE",
"305.295 951.978 OFFCURVE",
"383.986 830 OFFCURVE",
"475.884 830 QCURVE SMOOTH",
"564.79 830 OFFCURVE",
"664.295 951.978 OFFCURVE",
"672.067 1043 QCURVE",
"678.982 1124 LINE",
"686.562 1212.906 OFFCURVE",
"607.223 1336 OFFCURVE",
"517.079 1336 QCURVE SMOOTH",
"426.934 1336 OFFCURVE",
"327.562 1212.906 OFFCURVE",
"319.982 1124 QCURVE"
);
}
);
width = 932;
}
);
unicode = 00BA;
userData = {
com.typemytype.robofont.guideline.magnetic.Jnt0R9CyOf = 5;
};
},
{
glyphname = guillemotright;
layers = (
{
guideLines = (
{
position = "{-53.603, 98}";
},
{
position = "{-24.152, 443}";
}
);
layerId = "33953612-DAF4-435D-999F-265D395630EB";
paths = (
{
closed = 1;
nodes = (
"330.068 551 LINE",
"106.043 949 LINE",
"268.043 949 LINE",
"531.629 581 LINE",
"526.592 522 LINE",
"200.093 153 LINE",
"38.093 153 LINE"
);
},
{
closed = 1;
nodes = (
"770.068 551 LINE",
"546.043 949 LINE",
"708.043 949 LINE",
"971.629 581 LINE",
"966.592 522 LINE",
"640.093 153 LINE",
"478.093 153 LINE"
);
}
);
width = 1092;
}
);
leftKerningGroup = guillemotright;
rightKerningGroup = guillemotright;
unicode = 00BB;
userData = {
com.typemytype.robofont.guideline.magnetic.G9bQni2n1K = 5;
com.typemytype.robofont.guideline.magnetic.MTEldNnfdj = 5;
};
},
{
glyphname = questiondown;
layers = (
{
guideLines = (
{
position = "{-77.419, -181}";
},
{
position = "{16.653, 921}";
}
);
layerId = "33953612-DAF4-435D-999F-265D395630EB";
paths = (
{
closed = 1;
nodes = (
"671.567 1002 OFFCURVE",
"601.592 932 OFFCURVE",
"541.592 932 QCURVE SMOOTH",
"481.592 932 OFFCURVE",
"423.567 1002 OFFCURVE",
"427.75 1051 QCURVE SMOOTH",
"431.933 1100 OFFCURVE",
"501.908 1170 OFFCURVE",
"561.908 1170 QCURVE SMOOTH",
"621.908 1170 OFFCURVE",
"679.933 1100 OFFCURVE",
"675.75 1051 QCURVE SMOOTH"
);
},
{
closed = 1;
nodes = (
"848.849 33 LINE SMOOTH",
"834.764 -132 OFFCURVE",
"598.032 -328 OFFCURVE",
"408.032 -328 QCURVE SMOOTH",
"218.032 -328 OFFCURVE",
"21.617 -122 OFFCURVE",
"36.129 48 QCURVE SMOOTH",
"47.568 182 OFFCURVE",
"213.324 390 OFFCURVE",
"290.787 454 QCURVE SMOOTH",
"382.36 531 OFFCURVE",
"434.202 658 OFFCURVE",
"440.177 728 QCURVE SMOOTH",
"441.031 738 LINE",
"627.031 738 LINE",
"626.177 728 LINE SMOOTH",
"615.507 603 OFFCURVE",
"539.214 459 OFFCURVE",
"435.19 365 QCURVE SMOOTH",
"346.275 284 OFFCURVE",
"230.666 148 OFFCURVE",
"222.129 48 QCURVE SMOOTH",
"213.593 -52 OFFCURVE",
"311.861 -166 OFFCURVE",
"421.861 -166 QCURVE SMOOTH",
"531.861 -166 OFFCURVE",
"655.739 -62 OFFCURVE",
"663.849 33 QCURVE SMOOTH",
"665.556 53 LINE",
"850.556 53 LINE"
);
}
);
width = 968;
}
);
unicode = 00BF;
userData = {
com.typemytype.robofont.guideline.magnetic.5ZPZZL8Rim = 5;
com.typemytype.robofont.guideline.magnetic.apukwP5ffL = 5;
};
},
{
glyphname = AE;
layers = (
{
layerId = "33953612-DAF4-435D-999F-265D395630EB";
paths = (
{
closed = 1;
nodes = (
"385.104 528 LINE",
"1018.104 528 LINE",
"1003.165 353 LINE",
"270.165 353 LINE"
);
},
{
closed = 1;
nodes = (
"928.323 1456 LINE",
"1898.323 1456 LINE",
"1884.835 1298 LINE",
"1170.835 1298 LINE",
"1130.884 830 LINE",
"1752.884 830 LINE",
"1739.397 672 LINE",
"1117.397 672 LINE",
"1073.519 158 LINE",
"1797.519 158 LINE",
"1784.032 0 LINE",
"868.032 0 LINE",
"973.713 1238 LINE",
"150.032 0 LINE",
"-76.968 0 LINE"
);
}
);
width = 1914;
}
);
leftKerningGroup = AE_UC;
rightKerningGroup = E_UC;
unicode = 00C6;
},
{
glyphname = multiply;
layers = (
{
layerId = "33953612-DAF4-435D-999F-265D395630EB";
paths = (
{
closed = 1;
nodes = (
"49.824 349 LINE",
"852.274 1104 LINE",
"950.628 991 LINE",
"148.263 237 LINE"
);
},
{
closed = 1;
nodes = (
"106.689 980 LINE",
"236.274 1104 LINE",
"899.763 360 LINE",
"770.263 237 LINE"
);
}
);
width = 1024;
}
);
unicode = 00D7;
},
{
glyphname = OE;
layers = (
{
layerId = "33953612-DAF4-435D-999F-265D395630EB";
paths = (
{
closed = 1;
nodes = (
"810.115 1477 OFFCURVE",
"960.006 1464 OFFCURVE",
"1026.323 1456 QCURVE",
"1863.323 1456 LINE",
"1849.835 1298 LINE",
"1127.835 1298 LINE",
"1087.884 830 LINE",
"1717.884 830 LINE",
"1704.482 673 LINE",
"1074.482 673 LINE",
"1030.434 157 LINE",
"1762.434 157 LINE",
"1749.032 0 LINE",
"902.032 0 LINE",
"834.434 -7 OFFCURVE",
"684.239 -21 OFFCURVE",
"608.239 -21 QCURVE SMOOTH",
"394.239 -21 OFFCURVE",
"82.056 340 OFFCURVE",
"111.25 682 QCURVE SMOOTH",
"118.933 772 LINE SMOOTH",
"147.36 1105 OFFCURVE",
"519.115 1477 OFFCURVE",
"777.115 1477 QCURVE SMOOTH"
);
},
{
closed = 1;
nodes = (
"283.714 418 OFFCURVE",
"491.958 128 OFFCURVE",
"663.958 128 QCURVE SMOOTH",
"716.958 128 OFFCURVE",
"797.727 137 OFFCURVE",
"836.239 143 QCURVE",
"935.859 1310 LINE",
"884.457 1317 OFFCURVE",
"790.14 1325 OFFCURVE",
"768.14 1325 QCURVE SMOOTH",
"591.14 1325 OFFCURVE",
"335.957 1030 OFFCURVE",
"314.104 774 QCURVE SMOOTH",
"306.25 682 LINE SMOOTH"
);
}
);
width = 1879;
}
);
leftKerningGroup = CG_UC;
rightKerningGroup = E_UC;
unicode = 0152;
},
{
glyphname = Thorn;
layers = (
{
guideLines = (
{
position = "{14.945, 901}";
},
{
position = "{-14.591, 555}";
}
);
layerId = "33953612-DAF4-435D-999F-265D395630EB";
paths = (
{
closed = 1;
nodes = (
"417.323 1456 LINE",
"392.311 1163 LINE",
"670.311 1163 LINE SMOOTH",
"905.311 1163 OFFCURVE",
"1137.848 935 OFFCURVE",
"1121.031 738 QCURVE SMOOTH",
"1104.214 541 OFFCURVE",
"832.836 314 OFFCURVE",
"597.836 314 QCURVE SMOOTH",
"319.836 314 LINE",
"293.032 0 LINE",
"108.032 0 LINE",
"232.323 1456 LINE"
);
},
{
closed = 1;
nodes = (
"379.421 1012 LINE",
"332.726 465 LINE",
"610.726 465 LINE SMOOTH",
"770.726 465 OFFCURVE",
"924.592 604 OFFCURVE",
"935.86 736 QCURVE SMOOTH",
"947.128 868 OFFCURVE",
"817.421 1012 OFFCURVE",
"657.421 1012 QCURVE SMOOTH"
);
}
);
width = 1170;
}
);
leftKerningGroup = StraightRight_UC;
unicode = 00DE;
userData = {
com.typemytype.robofont.guideline.magnetic.T8KKW8oxop = 5;
com.typemytype.robofont.guideline.magnetic.i9jYwjBDP4 = 5;
};
},
{
glyphname = germandbls;
layers = (
{
layerId = "33953612-DAF4-435D-999F-265D395630EB";
paths = (
{
closed = 1;
nodes = (
"270.032 0 LINE",
"86.032 0 LINE",
"179.25 1092 LINE SMOOTH",
"196.579 1295 OFFCURVE",
"424.981 1534 OFFCURVE",
"623.981 1534 QCURVE SMOOTH",
"787.981 1534 OFFCURVE",
"971.213 1361 OFFCURVE",
"958.75 1215 QCURVE SMOOTH",
"951.238 1127 OFFCURVE",
"891.762 1016 OFFCURVE",
"851.092 973 QCURVE SMOOTH",
"815.848 935 OFFCURVE",
"750.36 859 OFFCURVE",
"747.884 830 QCURVE SMOOTH",
"743.787 782 OFFCURVE",
"868.165 681 OFFCURVE",
"943.872 619 QCURVE SMOOTH",
"1016.836 560 OFFCURVE",
"1111.117 411 OFFCURVE",
"1100.105 282 QCURVE SMOOTH",
"1089.434 157 OFFCURVE",
"856.324 -20 OFFCURVE",
"689.324 -20 QCURVE SMOOTH",
"525.324 -20 OFFCURVE",
"341.044 129 OFFCURVE",
"353.763 278 QCURVE SMOOTH",
"355.983 304 LINE",
"518.983 304 LINE",
"518.214 295 LINE SMOOTH",
"511.044 211 OFFCURVE",
"609.215 131 OFFCURVE",
"704.215 131 QCURVE SMOOTH",
"805.215 131 OFFCURVE",
"919.641 218 OFFCURVE",
"926.812 302 QCURVE SMOOTH",
"932.702 371 OFFCURVE",
"841.812 466 OFFCURVE",
"788.738 512 QCURVE SMOOTH",
"721.604 569 OFFCURVE",
"561.299 706 OFFCURVE",
"569.067 797 QCURVE SMOOTH",
"575.384 871 OFFCURVE",
"667.86 982 OFFCURVE",
"703.616 1026 QCURVE SMOOTH",
"736.03 1066 OFFCURVE",
"778.116 1149 OFFCURVE",
"782.811 1204 QCURVE SMOOTH",
"790.408 1293 OFFCURVE",
"689.091 1383 OFFCURVE",
"607.091 1383 QCURVE SMOOTH",
"504.091 1383 OFFCURVE",
"375.969 1241 OFFCURVE",
"363.25 1092 QCURVE {name = hr00;}"
);
}
);
width = 1186;
}
);
unicode = 00DF;
},
{
glyphname = ae;
layers = (
{
layerId = "33953612-DAF4-435D-999F-265D395630EB";
paths = (
{
closed = 1;
nodes = (
"233.666 230 OFFCURVE",
"328.958 128 OFFCURVE",
"438.958 128 QCURVE SMOOTH",
"548.958 128 OFFCURVE",
"739.934 280 OFFCURVE",
"747.19 365 QCURVE",
"760.08 516 LINE",
"542.08 516 LINE SMOOTH",
"402.08 516 OFFCURVE",
"249.031 410 OFFCURVE",
"241.348 320 QCURVE SMOOTH"
);
},
{
closed = 1;
nodes = (
"68.153 470 OFFCURVE",
"337.348 648 OFFCURVE",
"533.348 648 QCURVE SMOOTH",
"771.348 648 LINE",
"777.494 720 LINE SMOOTH",
"785.604 815 OFFCURVE",
"697.762 934 OFFCURVE",
"577.762 934 QCURVE SMOOTH",
"457.762 934 OFFCURVE",
"346.311 835 OFFCURVE",
"340.763 770 QCURVE SMOOTH",
"340.336 765 LINE",
"155.336 765 LINE",
"155.763 770 LINE SMOOTH",
"166.433 895 OFFCURVE",
"405.396 1082 OFFCURVE",
"595.396 1082 QCURVE SMOOTH",
"759.396 1082 OFFCURVE",
"920.043 949 OFFCURVE",
"923.47 872 QCURVE",
"950.128 950 OFFCURVE",
"1129.396 1082 OFFCURVE",
"1275.396 1082 QCURVE SMOOTH",
"1490.396 1082 OFFCURVE",
"1698.323 800 OFFCURVE",
"1677.836 560 QCURVE SMOOTH",
"1671.348 484 LINE",
"862.348 484 LINE",
"874.982 632 LINE",
"1495.982 632 LINE",
"1499.031 656 LINE",
"1507.763 770 OFFCURVE",
"1392.421 930 OFFCURVE",
"1259.421 930 QCURVE SMOOTH",
"1122.421 930 OFFCURVE",
"957.214 705 OFFCURVE",
"943.299 542 QCURVE SMOOTH",
"940.568 510 LINE SMOOTH",
"926.653 347 OFFCURVE",
"1061.446 122 OFFCURVE",
"1223.446 122 QCURVE SMOOTH",
"1323.446 122 OFFCURVE",
"1474.958 210 OFFCURVE",
"1525.08 270 QCURVE",
"1636.971 175 LINE",
"1580.568 100 OFFCURVE",
"1360.471 -30 OFFCURVE",
"1210.471 -30 QCURVE SMOOTH",
"1064.471 -30 OFFCURVE",
"842.715 90 OFFCURVE",
"799.214 213 QCURVE",
"748.483 99 OFFCURVE",
"538.324 -20 OFFCURVE",
"386.324 -20 QCURVE SMOOTH",
"236.324 -20 OFFCURVE",
"40.836 150 OFFCURVE",
"53.641 300 QCURVE SMOOTH"
);
}
);
width = 1748;
}
);
leftKerningGroup = a_LC;
rightKerningGroup = e_LC;
unicode = 00E6;
},
{
glyphname = eth;
layers = (
{
layerId = "33953612-DAF4-435D-999F-265D395630EB";
paths = (
{
closed = 1;
nodes = (
"343.993 1581 LINE",
"674.591 1506 OFFCURVE",
"1053.079 1008 OFFCURVE",
"1021.068 633 QCURVE",
"1012.702 535 LINE",
"991.702 289 OFFCURVE",
"699.324 -20 OFFCURVE",
"497.324 -20 QCURVE SMOOTH",
"287.324 -20 OFFCURVE",
"45.653 265 OFFCURVE",
"62.982 468 QCURVE SMOOTH",
"82.616 698 OFFCURVE",
"361.518 978 OFFCURVE",
"554.518 978 QCURVE SMOOTH",
"723.518 978 OFFCURVE",
"934.885 748 OFFCURVE",
"923.36 613 QCURVE",
"854.446 614 LINE",
"860.08 680 OFFCURVE",
"728.543 826 OFFCURVE",
"585.543 826 QCURVE SMOOTH",
"439.543 826 OFFCURVE",
"262.982 632 OFFCURVE",
"248.982 468 QCURVE SMOOTH",
"238.483 345 OFFCURVE",
"373.3 132 OFFCURVE",
"514.3 132 QCURVE SMOOTH",
"642.3 132 OFFCURVE",
"812.019 363 OFFCURVE",
"826.702 535 QCURVE SMOOTH",
"835.238 635 LINE SMOOTH",
"865.031 984 OFFCURVE",
"521.701 1355 OFFCURVE",
"273.335 1421 QCURVE"
);
},
{
closed = 1;
nodes = (
"428.604 1061 LINE",
"355.847 1181 LINE",
"924.005 1546 LINE",
"996.847 1427 LINE"
);
}
);
width = 1114;
}
);
unicode = 00F0;
},
{
glyphname = divide;
layers = (
{
layerId = "33953612-DAF4-435D-999F-265D395630EB";
paths = (
{
closed = 1;
nodes = (
"419.469 1118 OFFCURVE",
"488.445 1188 OFFCURVE",
"550.445 1188 QCURVE SMOOTH",
"611.445 1188 OFFCURVE",
"670.469 1118 OFFCURVE",
"665.945 1065 QCURVE SMOOTH",
"661.591 1014 OFFCURVE",
"590.701 945 OFFCURVE",
"529.701 945 QCURVE SMOOTH",
"467.701 945 OFFCURVE",
"410.591 1014 OFFCURVE",
"414.945 1065 QCURVE SMOOTH"
);
},
{
closed = 1;
nodes = (
"353.056 340 OFFCURVE",
"422.117 411 OFFCURVE",
"484.117 411 QCURVE SMOOTH",
"545.117 411 OFFCURVE",
"604.056 340 OFFCURVE",
"599.617 288 QCURVE SMOOTH",
"595.263 237 OFFCURVE",
"524.288 167 OFFCURVE",
"463.288 167 QCURVE SMOOTH",
"401.288 167 OFFCURVE",
"344.263 237 OFFCURVE",
"348.617 288 QCURVE SMOOTH"
);
},
{
closed = 1;
nodes = (
"60.592 768 LINE",
"970.592 768 LINE",
"955.226 588 LINE",
"45.226 588 LINE"
);
}
);
width = 1024;
}
);
unicode = 00F7;
},
{
glyphname = oe;
layers = (
{
layerId = "33953612-DAF4-435D-999F-265D395630EB";
paths = (
{
closed = 1;
nodes = (
"256.568 510 LINE SMOOTH",
"242.653 347 OFFCURVE",
"377.446 122 OFFCURVE",
"529.446 122 QCURVE SMOOTH",
"681.446 122 OFFCURVE",
"854.568 346 OFFCURVE",
"868.568 510 QCURVE SMOOTH",
"871.299 542 LINE SMOOTH",
"885.299 706 OFFCURVE",
"750.421 930 OFFCURVE",
"598.421 930 QCURVE SMOOTH",
"446.421 930 OFFCURVE",
"273.214 705 OFFCURVE",
"259.299 542 QCURVE SMOOTH"
);
},
{
closed = 1;
nodes = (
"1014.079 926 OFFCURVE",
"1242.396 1082 OFFCURVE",
"1420.396 1082 QCURVE SMOOTH",
"1607.396 1082 OFFCURVE",
"1815.323 800 OFFCURVE",
"1794.836 560 QCURVE SMOOTH",
"1788.348 484 LINE",
"979.348 484 LINE",
"991.982 632 LINE",
"1612.982 632 LINE",
"1616.031 656 LINE",
"1624.763 770 OFFCURVE",
"1509.421 930 OFFCURVE",
"1387.421 930 QCURVE SMOOTH",
"1239.421 930 OFFCURVE",
"1074.299 706 OFFCURVE",
"1060.299 542 QCURVE SMOOTH",
"1057.568 510 LINE SMOOTH",
"1043.568 346 OFFCURVE",
"1168.446 122 OFFCURVE",
"1330.446 122 QCURVE SMOOTH",
"1430.446 122 OFFCURVE",
"1591.958 210 OFFCURVE",
"1642.08 270 QCURVE",
"1753.971 175 LINE",
"1697.568 100 OFFCURVE",
"1477.471 -30 OFFCURVE",
"1348.471 -30 QCURVE SMOOTH",
"1151.471 -30 OFFCURVE",
"956.422 110 OFFCURVE",
"932.824 185 QCURVE",
"896.507 111 OFFCURVE",
"681.471 -30 OFFCURVE",
"486.471 -30 QCURVE SMOOTH",
"290.471 -30 OFFCURVE",
"46.251 272 OFFCURVE",
"66.568 510 QCURVE SMOOTH",
"69.299 542 LINE SMOOTH",
"89.616 780 OFFCURVE",
"384.311 1081 OFFCURVE",
"599.311 1081 QCURVE SMOOTH",
"785.311 1081 OFFCURVE",
"973.653 921 OFFCURVE",
"988.958 866 QCURVE"
);
}
);
width = 1861;
}
);
leftKerningGroup = alpha;
rightKerningGroup = e_LC;
unicode = 0153;
},
{
glyphname = thorn;
layers = (
{
layerId = "33953612-DAF4-435D-999F-265D395630EB";
paths = (
{
closed = 1;
nodes = (
"217.152 1536 LINE",
"403.152 1536 LINE",
"351.25 928 LINE",
"402.799 993 OFFCURVE",
"564.543 1072 OFFCURVE",
"674.543 1072 QCURVE SMOOTH",
"874.543 1072 OFFCURVE",
"1088.933 772 OFFCURVE",
"1069.299 542 QCURVE SMOOTH",
"1066.568 510 LINE SMOOTH",
"1046.934 280 OFFCURVE",
"781.324 -20 OFFCURVE",
"581.324 -20 QCURVE SMOOTH",
"471.324 -20 OFFCURVE",
"327.898 57 OFFCURVE",
"293.019 117 QCURVE",
"289.019 117 LINE",
"235.52 -416 LINE",
"50.52 -416 LINE"
);
},
{
closed = 1;
nodes = (
"323.69 242 OFFCURVE",
"454.3 132 OFFCURVE",
"554.3 132 QCURVE SMOOTH",
"704.3 132 OFFCURVE",
"862.909 350 OFFCURVE",
"876.568 510 QCURVE SMOOTH",
"879.299 542 LINE SMOOTH",
"892.958 702 OFFCURVE",
"771.567 920 OFFCURVE",
"621.567 920 QCURVE SMOOTH",
"521.567 920 OFFCURVE",
"372.177 810 OFFCURVE",
"335.202 740 QCURVE",
"298.666 312 LINE"
);
}
);
width = 1170;
}
);
rightKerningGroup = b_LC;
unicode = 00FE;
},
{
glyphname = circumflex;
layers = (
{
layerId = "33953612-DAF4-435D-999F-265D395630EB";
paths = (
{
closed = 1;
nodes = (
"500.445 979 LINE",
"491.35 979 LINE",
"361.624 1225.087 LINE",
"190.818 979 LINE",
"181.723 979 LINE",
"356.621 1232.635 LINE",
"367.652 1232.635 LINE"
);
}
);
width = 649;
}
);
unicode = 02C6;
},
{
glyphname = caron;
layers = (
{
layerId = "33953612-DAF4-435D-999F-265D395630EB";
paths = (
{
closed = 1;
nodes = (
"201.613 1227.476 LINE",
"210.708 1227.476 LINE",
"340.433 981.389 LINE",
"511.24 1227.476 LINE",
"520.335 1227.476 LINE",
"345.437 973.841 LINE",
"334.405 973.841 LINE"
);
}
);
width = 649;
}
);
unicode = 02C7;
},
{
glyphname = breve;
layers = (
{
layerId = "33953612-DAF4-435D-999F-265D395630EB";
paths = (
{
closed = 1;
nodes = (
"533.093 1187.571 LINE",
"496.302 1069.77 OFFCURVE",
"407.046 964 OFFCURVE",
"344.966 964 QCURVE SMOOTH",
"283.371 964 OFFCURVE",
"210.675 1069.77 OFFCURVE",
"191.839 1187.571 QCURVE",
"198.44 1190.119 LINE",
"217.564 1075.833 OFFCURVE",
"286.915 972.579 OFFCURVE",
"345.478 972.579 QCURVE SMOOTH",
"404.526 972.579 OFFCURVE",
"490.096 1075.833 OFFCURVE",
"526.662 1190.119 QCURVE"
);
}
);
width = 648;
}
);
unicode = 02D8;
},
{
glyphname = dotaccent;
layers = (
{
layerId = "33953612-DAF4-435D-999F-265D395630EB";
paths = (
{
closed = 1;
nodes = (
"328.181 1049.627 OFFCURVE",
"341.344 1062.079 OFFCURVE",
"351.828 1062.079 QCURVE SMOOTH",
"362.312 1062.079 OFFCURVE",
"372.57 1049.627 OFFCURVE",
"371.801 1041.143 QCURVE SMOOTH",
"371.033 1032.143 OFFCURVE",
"357.87 1019.69 OFFCURVE",
"347.386 1019.69 QCURVE SMOOTH",
"336.901 1019.69 OFFCURVE",
"326.644 1032.143 OFFCURVE",
"327.412 1041.143 QCURVE SMOOTH"
);
}
);
width = 649;
}
);
unicode = 02D9;
},
{
glyphname = ring;
layers = (
{
layerId = "33953612-DAF4-435D-999F-265D395630EB";
paths = (
{
closed = 1;
nodes = (
"241.372 1167.365 OFFCURVE",
"312.105 1243.484 OFFCURVE",
"365.256 1243.484 QCURVE SMOOTH",
"418.407 1243.484 OFFCURVE",
"479.579 1167.365 OFFCURVE",
"475.054 1103.532 QCURVE SMOOTH",
"470.701 1041.698 OFFCURVE",
"400.053 967.095 OFFCURVE",
"346.903 967.095 QCURVE SMOOTH",
"293.752 967.095 OFFCURVE",
"232.495 1041.698 OFFCURVE",
"236.848 1103.532 QCURVE"
);
},
{
closed = 1;
nodes = (
"239.298 1044.698 OFFCURVE",
"296.78 974.127 OFFCURVE",
"347.415 974.127 QCURVE SMOOTH",
"398.05 974.127 OFFCURVE",
"464.409 1044.698 OFFCURVE",
"468.507 1103.532 QCURVE SMOOTH",
"472.775 1163.849 OFFCURVE",
"415.464 1236.421 OFFCURVE",
"364.829 1236.421 QCURVE SMOOTH",
"314.194 1236.421 OFFCURVE",
"247.664 1163.849 OFFCURVE",
"243.396 1103.532 QCURVE"
);
}
);
width = 649;
}
);
unicode = 02DA;
},
{
glyphname = ogonek;
layers = (
{
layerId = "33953612-DAF4-435D-999F-265D395630EB";
paths = (
{
closed = 1;
nodes = (
"274.707 19.992 LINE",
"202.416 -25.611 OFFCURVE",
"121.758 -127.595 OFFCURVE",
"118.428 -177.429 QCURVE SMOOTH",
"115.184 -223.683 OFFCURVE",
"165.691 -279.159 OFFCURVE",
"208.841 -279.159 QCURVE SMOOTH",
"247.54 -279.159 OFFCURVE",
"325.505 -250.841 OFFCURVE",
"339.432 -242.357 QCURVE",
"341.606 -249.452 LINE",
"323.768 -260.873 OFFCURVE",
"247.091 -286.706 OFFCURVE",
"207.329 -286.706 QCURVE SMOOTH",
"160.147 -286.706 OFFCURVE",
"106.434 -227.23 OFFCURVE",
"109.934 -177.976 QCURVE SMOOTH",
"113.093 -127.563 OFFCURVE",
"194.406 -22.032 OFFCURVE",
"267.437 24.508 QCURVE"
);
}
);
width = 649;
}
);
unicode = 02DB;
},
{
glyphname = tilde;
layers = (
{
layerId = "33953612-DAF4-435D-999F-265D395630EB";
paths = (
{
closed = 1;
nodes = (
"157.463 1057.175 OFFCURVE",
"221.696 1092.04 OFFCURVE",
"262.49 1092.04 QCURVE SMOOTH",
"283.323 1092.04 OFFCURVE",
"332.543 1072.397 OFFCURVE",
"365.967 1054.143 QCURVE SMOOTH",
"396.413 1037.921 OFFCURVE",
"440.309 1021.278 OFFCURVE",
"459.658 1021.278 QCURVE SMOOTH",
"497.452 1021.278 OFFCURVE",
"552.593 1050.143 OFFCURVE",
"577.033 1083.976 QCURVE",
"582.464 1080.397 LINE",
"556.081 1043.111 OFFCURVE",
"498.455 1013.73 OFFCURVE",
"458.63 1013.73 QCURVE SMOOTH",
"437.281 1013.73 OFFCURVE",
"390.672 1031.825 OFFCURVE",
"360.625 1048.079 QCURVE SMOOTH",
"328.632 1065.849 OFFCURVE",
"281.327 1084.492 OFFCURVE",
"260.946 1084.492 QCURVE SMOOTH",
"222.152 1084.492 OFFCURVE",
"161.52 1051.143 OFFCURVE",
"131.868 1013.73 QCURVE",
"126.608 1018.278 LINE"
);
}
);
width = 649;
}
);
unicode = 02DC;
},
{
glyphname = hungarumlaut;
layers = (
{
guideLines = (
{
position = "{14.945, 901}";
},
{
position = "{-14.591, 555}";
}
);
layerId = "33953612-DAF4-435D-999F-265D395630EB";
paths = (
{
closed = 1;
nodes = (
"443.881 1223.206 LINE",
"450.657 1218.143 LINE",
"256.53 973.159 LINE",
"251.185 977.222 LINE"
);
},
{
closed = 1;
nodes = (
"549.278 1223.206 LINE",
"556.054 1218.143 LINE",
"361.927 973.159 LINE",
"356.581 977.222 LINE"
);
}
);
width = 649;
}
);
unicode = 02DD;
userData = {
com.typemytype.robofont.guideline.magnetic.1emCWSQy5G = 5;
com.typemytype.robofont.guideline.magnetic.s1MFYmxmed = 5;
};
},
{
glyphname = quoteleft;
layers = (
{
layerId = "33953612-DAF4-435D-999F-265D395630EB";
paths = (
{
closed = 1;
nodes = (
"138.386 1220.944 LINE SMOOTH",
"143.932 1319.944 OFFCURVE",
"193.989 1443.095 OFFCURVE",
"242.662 1494.516 QCURVE",
"246.352 1490.516 LINE",
"200.419 1441.063 OFFCURVE",
"151.91 1319.976 OFFCURVE",
"146.705 1221.881 QCURVE SMOOTH",
"144.857 1141.421 LINE",
"136.708 1140.937 LINE"
);
}
);
width = 243;
}
);
leftKerningGroup = minute;
rightKerningGroup = minute;
unicode = 2018;
},
{
glyphname = quoteright;
layers = (
{
layerId = "33953612-DAF4-435D-999F-265D395630EB";
paths = (
{
closed = 1;
nodes = (
"208.603 1373.897 LINE SMOOTH",
"203.057 1274.897 OFFCURVE",
"153 1151.746 OFFCURVE",
"104.327 1100.325 QCURVE",
"100.637 1104.325 LINE",
"146.57 1153.778 OFFCURVE",
"195.079 1274.865 OFFCURVE",
"200.283 1372.96 QCURVE SMOOTH",
"202.132 1456 LINE",
"210.281 1456.484 LINE"
);
}
);
width = 243;
}
);
leftKerningGroup = minute;
rightKerningGroup = minute;
unicode = 2019;
},
{
glyphname = minus;
layers = (
{
layerId = "33953612-DAF4-435D-999F-265D395630EB";
paths = (
{
closed = 1;
nodes = (
"60.592 768 LINE",
"970.592 768 LINE",
"955.226 588 LINE",
"45.226 588 LINE"
);
}
);
width = 1024;
}
);
unicode = 2212;
},
{
glyphname = .notdef;
layers = (
{
layerId = "33953612-DAF4-435D-999F-265D395630EB";
paths = (
{
closed = 1;
nodes = (
"189.323 1456 LINE",
"184.713 1402 LINE",
"834.713 1402 LINE",
"839.323 1456 LINE"
);
},
{
closed = 1;
nodes = (
"162.323 1456 LINE",
"38.032 0 LINE",
"92.032 0 LINE",
"216.323 1456 LINE"
);
},
{
closed = 1;
nodes = (
"746.032 0 LINE",
"692.032 0 LINE",
"816.323 1456 LINE",
"870.323 1456 LINE"
);
},
{
closed = 1;
nodes = (
"69.641 54 LINE",
"65.032 0 LINE",
"715.032 0 LINE",
"719.641 54 LINE"
);
},
{
closed = 1;
nodes = (
"124.593 30 LINE",
"66.593 30 LINE",
"778.762 1426 LINE",
"836.762 1426 LINE"
);
},
{
closed = 1;
nodes = (
"717.593 30 LINE",
"243.762 1426 LINE",
"185.762 1426 LINE",
"659.593 30 LINE"
);
}
);
width = 908;
}
);
},
{
glyphname = endash;
layers = (
{
layerId = "33953612-DAF4-435D-999F-265D395630EB";
paths = (
{
closed = 1;
nodes = (
"-10.749 651.587 LINE",
"766.346 651.587 LINE",
"765.976 560.079 LINE",
"-11.119 560.079 LINE"
);
}
);
width = 778;
}
);
leftKerningGroup = emdash;
rightKerningGroup = emdash;
unicode = 2013;
},
{
glyphname = emdash;
layers = (
{
layerId = "33953612-DAF4-435D-999F-265D395630EB";
paths = (
{
closed = 1;
nodes = (
"152.425 651.587 LINE",
"1237.933 651.587 LINE",
"1237.564 560.079 LINE",
"152.056 560.079 LINE"
);
}
);
width = 1428;
}
);
leftKerningGroup = emdash;
rightKerningGroup = emdash;
unicode = 2014;
},
{
glyphname = quotedblleft;
layers = (
{
layerId = "33953612-DAF4-435D-999F-265D395630EB";
paths = (
{
closed = 1;
nodes = (
"138.386 1220.944 LINE SMOOTH",
"143.932 1319.944 OFFCURVE",
"193.989 1443.095 OFFCURVE",
"242.662 1494.516 QCURVE",
"246.352 1490.516 LINE",
"200.419 1441.063 OFFCURVE",
"151.91 1319.976 OFFCURVE",
"146.705 1221.881 QCURVE SMOOTH",
"144.857 1141.421 LINE",
"136.708 1140.937 LINE"
);
},
{
closed = 1;
nodes = (
"309.973 1220.944 LINE SMOOTH",
"315.52 1319.944 OFFCURVE",
"365.576 1443.095 OFFCURVE",
"414.249 1494.516 QCURVE",
"417.939 1490.516 LINE",
"372.006 1441.063 OFFCURVE",
"323.498 1319.976 OFFCURVE",
"318.293 1221.881 QCURVE SMOOTH",
"316.444 1141.421 LINE",
"308.295 1140.937 LINE"
);
}
);
width = 421;
}
);
leftKerningGroup = minute;
rightKerningGroup = minute;
unicode = 201C;
},
{
glyphname = quotedblright;
layers = (
{
layerId = "33953612-DAF4-435D-999F-265D395630EB";
paths = (
{
closed = 1;
nodes = (
"214.413 1377.508 LINE SMOOTH",
"208.866 1278.508 OFFCURVE",
"158.81 1155.357 OFFCURVE",
"110.137 1103.937 QCURVE",
"106.446 1107.937 LINE",
"152.379 1157.389 OFFCURVE",
"200.888 1278.476 OFFCURVE",
"206.093 1376.571 QCURVE SMOOTH",
"207.942 1457.032 LINE",
"216.091 1457.516 LINE"
);
},
{
closed = 1;
nodes = (
"386 1377.508 LINE SMOOTH",
"380.453 1278.508 OFFCURVE",
"330.397 1155.357 OFFCURVE",
"281.724 1103.937 QCURVE",
"278.034 1107.937 LINE",
"323.967 1157.389 OFFCURVE",
"372.475 1278.476 OFFCURVE",
"377.68 1376.571 QCURVE SMOOTH",
"379.529 1457.032 LINE",
"387.678 1457.516 LINE"
);
}
);
width = 421;
}
);
leftKerningGroup = minute;
rightKerningGroup = minute;
unicode = 201D;
},
{
glyphname = quotesinglbase;
layers = (
{
layerId = "33953612-DAF4-435D-999F-265D395630EB";
paths = (
{
closed = 1;
nodes = (
"108.816 139.992 LINE SMOOTH",
"103.27 40.992 OFFCURVE",
"53.214 -82.159 OFFCURVE",
"4.541 -133.579 QCURVE",
"0.85 -129.579 LINE",
"46.783 -80.127 OFFCURVE",
"95.292 40.96 OFFCURVE",
"100.497 139.056 QCURVE SMOOTH",
"102.346 219.516 LINE",
"110.495 220 LINE"
);
}
);
width = 249;
}
);
leftKerningGroup = comma;
rightKerningGroup = comma;
unicode = 201A;
},
{
glyphname = quotedblbase;
layers = (
{
layerId = "33953612-DAF4-435D-999F-265D395630EB";
paths = (
{
closed = 1;
nodes = (
"108.816 139.992 LINE SMOOTH",
"103.27 40.992 OFFCURVE",
"53.214 -82.159 OFFCURVE",
"4.541 -133.579 QCURVE",
"0.85 -129.579 LINE",
"46.783 -80.127 OFFCURVE",
"95.292 40.96 OFFCURVE",
"100.497 139.056 QCURVE SMOOTH",
"102.346 219.516 LINE",
"110.495 220 LINE"
);
},
{
closed = 1;
nodes = (
"280.404 139.992 LINE SMOOTH",
"274.857 40.992 OFFCURVE",
"224.801 -82.159 OFFCURVE",
"176.128 -133.579 QCURVE",
"172.438 -129.579 LINE",
"218.371 -80.127 OFFCURVE",
"266.879 40.96 OFFCURVE",
"272.084 139.056 QCURVE SMOOTH",
"273.933 219.516 LINE",
"282.082 220 LINE"
);
}
);
width = 421;
}
);
leftKerningGroup = comma;
rightKerningGroup = comma;
unicode = 201E;
},
{
glyphname = guilsinglleft;
layers = (
{
guideLines = (
{
position = "{14.945, 901}";
},
{
position = "{-14.591, 555}";
}
);
layerId = "33953612-DAF4-435D-999F-265D395630EB";
paths = (
{
closed = 1;
nodes = (
"95.629 581 LINE",
"422.043 949 LINE",
"584.043 949 LINE",
"292.068 551 LINE",
"516.093 153 LINE",
"354.093 153 LINE",
"90.592 522 LINE"
);
}
);
width = 652;
}
);
leftKerningGroup = guillemotleft;
rightKerningGroup = guillemotleft;
unicode = 2039;
userData = {
com.typemytype.robofont.guideline.magnetic.Amp5Ormvx4 = 5;
com.typemytype.robofont.guideline.magnetic.JDX5vz3jKp = 5;
};
},
{
glyphname = guilsinglright;
layers = (
{
guideLines = (
{
position = "{14.945, 901}";
},
{
position = "{-14.591, 555}";
}
);
layerId = "33953612-DAF4-435D-999F-265D395630EB";
paths = (
{
closed = 1;
nodes = (
"330.068 551 LINE",
"106.043 949 LINE",
"268.043 949 LINE",
"531.629 581 LINE",
"526.592 522 LINE",
"200.093 153 LINE",
"38.093 153 LINE"
);
}
);
width = 652;
}
);
leftKerningGroup = guillemotright;
rightKerningGroup = guillemotright;
unicode = 203A;
userData = {
com.typemytype.robofont.guideline.magnetic.Amp5Ormvx4 = 5;
com.typemytype.robofont.guideline.magnetic.JDX5vz3jKp = 5;
};
},
{
glyphname = dagger;
layers = (
{
layerId = "33953612-DAF4-435D-999F-265D395630EB";
paths = (
{
closed = 1;
nodes = (
"340.715 8 LINE",
"424.884 748 LINE",
"433.762 852 LINE",
"82.762 852 LINE",
"97.531 1025 LINE",
"444.531 1025 LINE",
"472.762 1508 LINE",
"663.762 1508 LINE",
"609.531 1025 LINE",
"956.531 1025 LINE",
"941.762 852 LINE",
"590.762 852 LINE",
"581.885 748 LINE",
"539.715 8 LINE",
"511.642 -274 LINE",
"426.605 -415 OFFCURVE",
"382.52 -416 OFFCURVE",
"320.642 -274 QCURVE"
);
}
);
width = 1008;
}
);
unicode = 2020;
},
{
glyphname = daggerdbl;
layers = (
{
layerId = "33953612-DAF4-435D-999F-265D395630EB";
paths = (
{
closed = 1;
nodes = (
"32.446 204 LINE",
"383.446 204 LINE",
"391.616 534 LINE",
"434.019 855 LINE",
"88.019 855 LINE",
"102.274 1022 LINE",
"434.274 1022 LINE",
"472.762 1508 LINE",
"663.762 1508 LINE",
"619.274 1022 LINE",
"951.274 1022 LINE",
"937.018 855 LINE",
"591.018 855 LINE",
"578.616 534 LINE",
"530.446 204 LINE",
"881.446 204 LINE",
"867.276 38 LINE",
"530.276 38 LINE",
"491.447 -452 LINE",
"310.447 -452 LINE",
"355.276 38 LINE",
"18.276 38 LINE"
);
}
);
width = 1008;
}
);
unicode = 2021;
},
{
glyphname = bullet;
layers = (
{
layerId = "33953612-DAF4-435D-999F-265D395630EB";
paths = (
{
closed = 1;
nodes = (
"117.921 889 OFFCURVE",
"294.604 1061 OFFCURVE",
"420.604 1061 QCURVE SMOOTH",
"546.604 1061 OFFCURVE",
"693.921 889 OFFCURVE",
"684.019 773 QCURVE SMOOTH",
"674.287 659 OFFCURVE",
"497.604 487 OFFCURVE",
"371.604 487 QCURVE SMOOTH",
"245.604 487 OFFCURVE",
"98.287 659 OFFCURVE",
"108.019 773 QCURVE SMOOTH"
);
}
);
width = 784;
}
);
unicode = 2022;
},
{
glyphname = kgreenlandic;
layers = (
{
layerId = "33953612-DAF4-435D-999F-265D395630EB";
paths = (
{
closed = 1;
nodes = (
"278.032 0 LINE",
"93.032 0 LINE",
"185.396 1082 LINE",
"370.396 1082 LINE"
);
},
{
closed = 1;
nodes = (
"494.47 462 LINE",
"227.47 462 LINE",
"241.299 624 LINE",
"423.299 624 LINE",
"858.396 1082 LINE",
"1082.396 1082 LINE"
);
},
{
closed = 1;
nodes = (
"402.86 490 LINE",
"533.299 624 LINE",
"1026.032 0 LINE",
"792.032 0 LINE"
);
}
);
width = 1072;
}
);
leftKerningGroup = mnpr_LC;
rightKerningGroup = k_LC;
unicode = 0138;
},
{
glyphname = schwa;
layers = (
{
layerId = "33953612-DAF4-435D-999F-265D395630EB";
paths = (
{
closed = 1;
nodes = (
"956.568 510 LINE SMOOTH",
"936.251 272 OFFCURVE",
"649.471 -30 OFFCURVE",
"434.471 -30 QCURVE SMOOTH",
"219.471 -30 OFFCURVE",
"11.544 252 OFFCURVE",
"32.031 492 QCURVE SMOOTH",
"38.519 568 LINE",
"847.519 568 LINE",
"834.885 420 LINE",
"213.885 420 LINE",
"210.836 396 LINE",
"202.105 282 OFFCURVE",
"317.446 122 OFFCURVE",
"439.446 122 QCURVE SMOOTH",
"587.446 122 OFFCURVE",
"752.653 347 OFFCURVE",
"766.568 510 QCURVE SMOOTH",
"769.299 542 LINE SMOOTH",
"783.214 705 OFFCURVE",
"648.421 930 OFFCURVE",
"486.421 930 QCURVE SMOOTH",
"386.421 930 OFFCURVE",
"234.909 842 OFFCURVE",
"184.787 782 QCURVE",
"72.897 877 LINE",
"129.299 952 OFFCURVE",
"349.396 1082 OFFCURVE",
"499.396 1082 QCURVE SMOOTH",
"744.396 1082 OFFCURVE",
"979.616 780 OFFCURVE",
"959.299 542 QCURVE SMOOTH"
);
}
);
width = 1060;
}
);
rightKerningGroup = o_LC;
unicode = 0259;
},
{
glyphname = trademark;
layers = (
{
layerId = "33953612-DAF4-435D-999F-265D395630EB";
paths = (
{
closed = 1;
nodes = (
"85.469 1446 LINE",
"793.469 1446 LINE",
"779.981 1288 LINE",
"511.981 1288 LINE",
"460.933 690 LINE",
"288.933 690 LINE",
"339.981 1288 LINE",
"71.981 1288 LINE"
);
},
{
closed = 1;
nodes = (
"911.469 1446 LINE",
"1082.469 1446 LINE",
"1288.958 866 LINE",
"1296.958 866 LINE",
"1606.469 1446 LINE",
"1777.469 1446 LINE",
"1712.933 690 LINE",
"1563.933 690 LINE",
"1604.482 1165 LINE",
"1592.482 1165 LINE",
"1345.933 690 LINE",
"1209.933 690 LINE",
"1054.482 1165 LINE",
"1042.482 1165 LINE",
"1001.933 690 LINE",
"846.933 690 LINE"
);
}
);
width = 1881;
}
);
unicode = 2122;
},
{
glyphname = lessequal;
layers = (
{
layerId = "33953612-DAF4-435D-999F-265D395630EB";
paths = (
{
closed = 1;
nodes = (
"84.421 602 LINE",
"96.714 746 LINE",
"944.506 1095 LINE",
"928.031 902 LINE",
"321.994 679 LINE",
"889.958 456 LINE",
"872.629 253 LINE"
);
},
{
closed = 1;
nodes = (
"4.544 170 LINE",
"914.544 170 LINE",
"900.117 1 LINE",
"-9.883 1 LINE"
);
}
);
width = 1024;
}
);
unicode = 2264;
},
{
glyphname = greaterequal;
layers = (
{
layerId = "33953612-DAF4-435D-999F-265D395630EB";
paths = (
{
closed = 1;
nodes = (
"87.958 456 LINE",
"693.994 679 LINE",
"126.031 902 LINE",
"142.506 1095 LINE",
"930.714 746 LINE",
"918.421 602 LINE",
"70.629 253 LINE"
);
},
{
closed = 1;
nodes = (
"0.117 1 LINE",
"14.544 170 LINE",
"924.544 170 LINE",
"910.117 1 LINE"
);
}
);
width = 1024;
}
);
unicode = 2265;
},
{
glyphname = notequal;
layers = (
{
layerId = "33953612-DAF4-435D-999F-265D395630EB";
paths = (
{
closed = 1;
nodes = (
"714.531 861 LINE",
"685.055 832 LINE",
"439.385 461 LINE",
"433.336 437 LINE",
"202.629 89 LINE",
"71.458 169 LINE",
"255.19 447 LINE",
"280.068 469 LINE",
"517.714 828 LINE",
"531.787 864 LINE",
"790.677 1261 LINE",
"921.847 1181 LINE"
);
},
{
closed = 1;
nodes = (
"41.982 550 LINE",
"951.982 550 LINE",
"937.556 381 LINE",
"27.556 381 LINE"
);
},
{
closed = 1;
nodes = (
"75.701 945 LINE",
"985.701 945 LINE",
"971.275 776 LINE",
"61.275 776 LINE"
);
}
);
width = 1024;
}
);
unicode = 2260;
},
{
glyphname = approxequal;
layers = (
{
layerId = "33953612-DAF4-435D-999F-265D395630EB";
paths = (
{
closed = 1;
nodes = (
"60.945 901 LINE",
"112.299 952 OFFCURVE",
"249.25 1010 OFFCURVE",
"314.335 1011 QCURVE SMOOTH",
"393.421 1012 OFFCURVE",
"481.75 969 OFFCURVE",
"542.104 938 QCURVE SMOOTH",
"598.543 908 OFFCURVE",
"680.128 868 OFFCURVE",
"754.128 868 QCURVE SMOOTH",
"819.128 868 OFFCURVE",
"949.933 936 OFFCURVE",
"1002.055 996 QCURVE",
"985.238 799 LINE",
"933.885 748 OFFCURVE",
"804.933 690 OFFCURVE",
"739.933 690 QCURVE SMOOTH",
"665.933 690 OFFCURVE",
"584.263 729 OFFCURVE",
"527.823 759 QCURVE SMOOTH",
"467.47 790 OFFCURVE",
"378.055 832 OFFCURVE",
"299.055 832 QCURVE SMOOTH",
"234.055 832 OFFCURVE",
"96.25 764 OFFCURVE",
"44.128 704 QCURVE"
);
},
{
closed = 1;
nodes = (
"24.348 484 LINE",
"75.702 535 OFFCURVE",
"212.568 592 OFFCURVE",
"277.653 593 QCURVE SMOOTH",
"356.738 594 OFFCURVE",
"445.068 551 OFFCURVE",
"505.421 520 QCURVE SMOOTH",
"561.86 490 OFFCURVE",
"643.531 451 OFFCURVE",
"717.531 451 QCURVE SMOOTH",
"782.531 451 OFFCURVE",
"913.336 519 OFFCURVE",
"965.458 579 QCURVE",
"948.556 381 LINE",
"897.202 330 OFFCURVE",
"768.251 272 OFFCURVE",
"703.251 272 QCURVE SMOOTH",
"629.251 272 OFFCURVE",
"547.58 311 OFFCURVE",
"491.141 341 QCURVE SMOOTH",
"430.787 372 OFFCURVE",
"341.373 414 OFFCURVE",
"262.373 414 QCURVE SMOOTH",
"197.373 414 OFFCURVE",
"59.653 347 OFFCURVE",
"7.531 287 QCURVE"
);
}
);
width = 1024;
}
);
unicode = 2248;
},
{
glyphname = Euro;
layers = (
{
layerId = "33953612-DAF4-435D-999F-265D395630EB";
paths = (
{
closed = 1;
nodes = (
"815.628 827 LINE",
"30.628 827 LINE",
"44.287 987 LINE",
"826.287 987 LINE"
);
},
{
closed = 1;
nodes = (
"787.885 502 LINE",
"2.885 502 LINE",
"16.458 661 LINE",
"801.458 661 LINE"
);
},
{
closed = 1;
nodes = (
"218.116 903 LINE SMOOTH",
"247.055 1242 OFFCURVE",
"534.713 1484 OFFCURVE",
"718.713 1484 QCURVE SMOOTH",
"863.713 1484 OFFCURVE",
"1020.372 1398 OFFCURVE",
"1070.164 1337 QCURVE",
"941.982 1206 LINE",
"912.055 1242 OFFCURVE",
"804.518 1306 OFFCURVE",
"717.518 1306 QCURVE SMOOTH",
"603.518 1306 OFFCURVE",
"417.518 1142 OFFCURVE",
"397.372 906 QCURVE SMOOTH",
"366.214 541 LINE SMOOTH",
"346.666 312 OFFCURVE",
"517.41 145 OFFCURVE",
"639.41 145 QCURVE SMOOTH",
"725.41 145 OFFCURVE",
"846.788 208 OFFCURVE",
"886.69 242 QCURVE",
"979.788 126 LINE",
"924.495 64 OFFCURVE",
"742.471 -30 OFFCURVE",
"591.471 -30 QCURVE SMOOTH",
"417.471 -30 OFFCURVE",
"161.69 242 OFFCURVE",
"187.47 544 QCURVE SMOOTH"
);
}
);
width = 1024;
}
);
unicode = 20AC;
},
{
glyphname = florin;
layers = (
{
layerId = "33953612-DAF4-435D-999F-265D395630EB";
paths = (
{
closed = 1;
nodes = (
"869.202 740 LINE",
"556.202 740 LINE",
"502.507 111 LINE SMOOTH",
"478.264 -173 OFFCURVE",
"249.727 -437 OFFCURVE",
"3.727 -437 QCURVE SMOOTH",
"-27.273 -437 OFFCURVE",
"-79.675 -430 OFFCURVE",
"-106.821 -420 QCURVE",
"-80.102 -271 LINE",
"-65.614 -277 OFFCURVE",
"2.788 -284 OFFCURVE",
"16.788 -284 QCURVE SMOOTH",
"137.788 -284 OFFCURVE",
"297.617 -122 OFFCURVE",
"317.507 111 QCURVE SMOOTH",
"371.202 740 LINE",
"130.202 740 LINE",
"142.323 882 LINE",
"383.323 882 LINE",
"404.152 1126 LINE SMOOTH",
"419.091 1301 OFFCURVE",
"615.969 1487 OFFCURVE",
"772.969 1487 QCURVE SMOOTH",
"858.969 1487 OFFCURVE",
"983.445 1434 OFFCURVE",
"1020.884 1404 QCURVE",
"927.506 1259 LINE",
"891.152 1290 OFFCURVE",
"809.713 1320 OFFCURVE",
"762.713 1320 QCURVE SMOOTH",
"692.713 1320 OFFCURVE",
"597.518 1224 OFFCURVE",
"589.152 1126 QCURVE SMOOTH",
"568.323 882 LINE",
"881.323 882 LINE"
);
}
);
width = 1024;
}
);
unicode = 0192;
},
{
glyphname = minute;
layers = (
{
layerId = "33953612-DAF4-435D-999F-265D395630EB";
paths = (
{
closed = 1;
nodes = (
"466.115 1559 LINE",
"649.981 1452 LINE SMOOTH",
"244.494 884 LINE",
"120.323 964 LINE"
);
}
);
width = 654;
}
);
leftKerningGroup = minute;
rightKerningGroup = minute;
unicode = 2032;
},
{
glyphname = second;
layers = (
{
layerId = "33953612-DAF4-435D-999F-265D395630EB";
paths = (
{
closed = 1;
nodes = (
"466.115 1559 LINE",
"649.981 1452 LINE SMOOTH",
"244.494 884 LINE",
"120.323 964 LINE"
);
},
{
closed = 1;
nodes = (
"866.115 1559 LINE",
"1049.981 1452 LINE SMOOTH",
"644.494 884 LINE",
"520.323 964 LINE"
);
}
);
width = 1054;
}
);
leftKerningGroup = minute;
rightKerningGroup = minute;
unicode = 2033;
},
{
glyphname = fraction;
layers = (
{
guideLines = (
{
position = "{14.945, 901}";
},
{
position = "{-14.591, 555}";
}
);
layerId = "33953612-DAF4-435D-999F-265D395630EB";
paths = (
{
closed = 1;
nodes = (
"-284.327 -6.087 LINE",
"-290.704 -2.024 LINE",
"508.939 1459.182 LINE",
"516.455 1455.571 LINE"
);
}
);
width = 226;
}
);
unicode = 2044;
userData = {
com.typemytype.robofont.guideline.magnetic.0lx51aIE0d = 5;
com.typemytype.robofont.guideline.magnetic.tcCoNUQTdD = 5;
};
},
{
glyphname = Schwa;
layers = (
{
layerId = "33953612-DAF4-435D-999F-265D395630EB";
paths = (
{
closed = 1;
nodes = (
"215.786 1356 OFFCURVE",
"519.701 1519 OFFCURVE",
"736.701 1519 QCURVE SMOOTH",
"1069.701 1519 OFFCURVE",
"1397.421 1094 OFFCURVE",
"1371.384 789 QCURVE SMOOTH",
"1342.019 445 OFFCURVE",
"917.471 -30 OFFCURVE",
"627.471 -30 QCURVE SMOOTH",
"351.471 -30 OFFCURVE",
"64.019 281 OFFCURVE",
"89.373 578 QCURVE SMOOTH",
"98.592 686 LINE",
"1224.592 686 LINE",
"1213.324 554 LINE",
"651.007 562 LINE",
"283.494 556 LINE",
"277.092 481 LINE SMOOTH",
"262.922 315 OFFCURVE",
"449.312 97 OFFCURVE",
"648.312 97 QCURVE SMOOTH",
"858.312 97 OFFCURVE",
"1154.47 462 OFFCURVE",
"1176.97 749 QCURVE SMOOTH",
"1200.409 1047 OFFCURVE",
"915.408 1375 OFFCURVE",
"706.408 1375 QCURVE SMOOTH",
"524.408 1375 OFFCURVE",
"261.372 1234 OFFCURVE",
"191.152 1126 QCURVE",
"104.384 1199 LINE"
);
}
);
width = 1446;
}
);
rightKerningGroup = D_UC;
unicode = 018F;
},
{
glyphname = Germandbls;
layers = (
{
layerId = "33953612-DAF4-435D-999F-265D395630EB";
paths = (
{
closed = 1;
nodes = (
"224.189 1267 OFFCURVE",
"465.932 1510 OFFCURVE",
"677.932 1510 QCURVE SMOOTH",
"903.932 1510 OFFCURVE",
"1072.018 1347 OFFCURVE",
"1063.225 1244 QCURVE SMOOTH",
"1054.518 1142 OFFCURVE",
"940.25 1010 OFFCURVE",
"876.494 966 QCURVE SMOOTH",
"822.336 929 OFFCURVE",
"763.238 881 OFFCURVE",
"761.531 861 QCURVE SMOOTH",
"759.823 841 OFFCURVE",
"822.75 805 OFFCURVE",
"1006.86 736 QCURVE SMOOTH",
"1193.885 666 OFFCURVE",
"1348.519 486 OFFCURVE",
"1335.714 336 QCURVE SMOOTH",
"1323.251 190 OFFCURVE",
"1061.471 -30 OFFCURVE",
"875.471 -30 QCURVE SMOOTH",
"635.471 -30 OFFCURVE",
"416.007 152 OFFCURVE",
"431.885 338 QCURVE SMOOTH",
"432.909 350 LINE",
"635.909 350 LINE",
"634.885 338 LINE SMOOTH",
"626.349 238 OFFCURVE",
"742.556 135 OFFCURVE",
"878.556 135 QCURVE SMOOTH",
"983.556 135 OFFCURVE",
"1130.605 241 OFFCURVE",
"1138.202 330 QCURVE SMOOTH",
"1146.482 427 OFFCURVE",
"1022.507 521 OFFCURVE",
"856.885 584 QCURVE SMOOTH",
"636.055 668 OFFCURVE",
"526.909 760 OFFCURVE",
"532.97 831 QCURVE SMOOTH",
"539.201 904 OFFCURVE",
"620.457 989 OFFCURVE",
"720.177 1056 QCURVE SMOOTH",
"794.445 1106 OFFCURVE",
"862.079 1172 OFFCURVE",
"866.945 1229 QCURVE SMOOTH",
"871.64 1284 OFFCURVE",
"775.103 1348 OFFCURVE",
"670.103 1348 QCURVE SMOOTH",
"549.103 1348 OFFCURVE",
"410.299 1198 OFFCURVE",
"396.47 1036 QCURVE SMOOTH",
"338.336 355 LINE SMOOTH",
"323.739 184 OFFCURVE",
"139.666 -16 OFFCURVE",
"4.666 -16 QCURVE SMOOTH",
"-8.334 -16 OFFCURVE",
"-35.163 -14 OFFCURVE",
"-47.993 -12 QCURVE",
"-34.286 172 LINE",
"-25.542 169 OFFCURVE",
"-6.712 167 OFFCURVE",
"2.288 167 QCURVE SMOOTH",
"62.288 167 OFFCURVE",
"138.568 264 OFFCURVE",
"146.336 355 QCURVE SMOOTH",
"207.03 1066 LINE SMOOTH"
);
}
);
width = 1449;
}
);
unicode = 1E9E;
},
{
glyphname = micro;
layers = (
{
layerId = "33953612-DAF4-435D-999F-265D395630EB";
paths = (
{
closed = 1;
nodes = (
"455.835 1052 LINE",
"265.702 371 LINE SMOOTH",
"229.946 245 OFFCURVE",
"312.641 136 OFFCURVE",
"416.641 136 QCURVE SMOOTH",
"505.641 136 OFFCURVE",
"668.836 232 OFFCURVE",
"728.324 308 QCURVE",
"935.835 1052 LINE",
"1121.835 1052 LINE",
"828.032 0 LINE",
"660.032 0 LINE",
"689.556 135 LINE",
"683.556 135 LINE",
"606.41 63 OFFCURVE",
"418.324 -20 OFFCURVE",
"318.324 -20 QCURVE SMOOTH",
"272.324 -20 OFFCURVE",
"200.312 15 OFFCURVE",
"173.617 42 QCURVE",
"46.52 -416 LINE",
"-139.48 -416 LINE",
"269.835 1052 LINE"
);
}
);
width = 1198;
}
);
unicode = 00B5;
},
{
glyphname = primemod;
layers = (
{
layerId = "33953612-DAF4-435D-999F-265D395630EB";
paths = (
{
closed = 1;
nodes = (
"479.249 1502 LINE",
"316.628 991 LINE",
"195.055 996 LINE",
"290.249 1502 LINE"
);
}
);
width = 600;
}
);
unicode = 02B9;
},
{
glyphname = doubleprimemod;
layers = (
{
layerId = "33953612-DAF4-435D-999F-265D395630EB";
paths = (
{
closed = 1;
nodes = (
"479.249 1502 LINE",
"318.738 1004 LINE",
"197.165 1009 LINE",
"290.249 1502 LINE"
);
},
{
closed = 1;
nodes = (
"779.249 1502 LINE",
"618.738 1004 LINE",
"497.165 1009 LINE",
"590.249 1502 LINE"
);
}
);
width = 788;
}
);
unicode = 02BA;
},
{
glyphname = apostrophemod;
layers = (
{
layerId = "33953612-DAF4-435D-999F-265D395630EB";
paths = (
{
closed = 1;
nodes = (
"226.25 1092 OFFCURVE",
"340.323 1210 OFFCURVE",
"361.042 1277 QCURVE",
"290.042 1277 OFFCURVE",
"216.445 1352 OFFCURVE",
"221.481 1411 QCURVE SMOOTH",
"226.432 1469 OFFCURVE",
"314.005 1546 OFFCURVE",
"377.005 1546 QCURVE SMOOTH",
"436.005 1546 OFFCURVE",
"523.81 1450 OFFCURVE",
"517.237 1373 QCURVE SMOOTH",
"506.823 1251 OFFCURVE",
"331.774 1063 OFFCURVE",
"222.506 1013 QCURVE",
"183.689 1062 LINE"
);
}
);
width = 600;
}
);
leftKerningGroup = minute;
rightKerningGroup = minute;
unicode = 02BC;
},
{
glyphname = hookabovecomb;
layers = (
{
layerId = "33953612-DAF4-435D-999F-265D395630EB";
paths = (
{
closed = 1;
nodes = (
"283.032 1003.246 LINE SMOOTH",
"283.374 1010.341 OFFCURVE",
"290.81 1016.921 OFFCURVE",
"301.422 1017.437 QCURVE SMOOTH",
"391.842 1020.532 OFFCURVE",
"472.358 1082.944 OFFCURVE",
"476.114 1135.198 QCURVE SMOOTH",
"479.529 1188.611 OFFCURVE",
"418.573 1246.571 OFFCURVE",
"360.43 1246.571 QCURVE SMOOTH",
"313.962 1246.571 OFFCURVE",
"230.106 1225.318 OFFCURVE",
"207.786 1211.738 QCURVE",
"203.181 1218.802 LINE",
"228.618 1232.865 OFFCURVE",
"314.99 1254.635 OFFCURVE",
"361.458 1254.635 QCURVE SMOOTH",
"423.117 1254.635 OFFCURVE",
"488.365 1192.643 OFFCURVE",
"484.694 1134.682 QCURVE SMOOTH",
"480.596 1078.429 OFFCURVE",
"392.814 1011.952 OFFCURVE",
"291.782 1008.857 QCURVE",
"290.587 961.841 LINE",
"282.008 961.841 LINE"
);
}
);
width = 649;
}
);
unicode = 0309;
},
{
glyphname = breveinvertedcomb;
layers = (
{
layerId = "33953612-DAF4-435D-999F-265D395630EB";
paths = (
{
closed = 1;
nodes = (
"174.424 966.548 LINE",
"211.215 1084.349 OFFCURVE",
"300.472 1190.119 OFFCURVE",
"362.551 1190.119 QCURVE SMOOTH",
"424.146 1190.119 OFFCURVE",
"496.842 1084.349 OFFCURVE",
"515.678 966.548 QCURVE",
"509.077 964 LINE",
"489.953 1078.286 OFFCURVE",
"420.603 1181.54 OFFCURVE",
"362.039 1181.54 QCURVE SMOOTH",
"302.991 1181.54 OFFCURVE",
"217.421 1078.286 OFFCURVE",
"180.855 964 QCURVE"
);
}
);
width = 649;
}
);
unicode = 030F;
},
{
glyphname = horncomb;
layers = (
{
layerId = "33953612-DAF4-435D-999F-265D395630EB";
paths = (
{
closed = 1;
nodes = (
"85.865 899.04 LINE SMOOTH",
"152.166 899.04 OFFCURVE",
"215.755 942.651 OFFCURVE",
"218.914 987.905 QCURVE SMOOTH",
"221.048 1026.833 OFFCURVE",
"207.449 1093.175 OFFCURVE",
"197.817 1123.008 QCURVE",
"205.396 1123.008 LINE",
"215.028 1093.69 OFFCURVE",
"229.627 1026.318 OFFCURVE",
"227.493 986.873 QCURVE SMOOTH",
"224.164 938.587 OFFCURVE",
"157.233 890.976 OFFCURVE",
"87.932 890.976 QCURVE SMOOTH",
"74.614 890.976 OFFCURVE",
"33.471 891.492 OFFCURVE",
"15.543 892.008 QCURVE",
"16.055 899.04 LINE"
);
}
);
width = 649;
}
);
unicode = 031B;
},
{
glyphname = dotbelowcomb;
layers = (
{
layerId = "33953612-DAF4-435D-999F-265D395630EB";
paths = (
{
closed = 1;
nodes = (
"229.496 -156.603 OFFCURVE",
"242.659 -144.151 OFFCURVE",
"253.143 -144.151 QCURVE SMOOTH",
"263.627 -144.151 OFFCURVE",
"273.884 -156.603 OFFCURVE",
"273.116 -165.087 QCURVE SMOOTH",
"272.348 -174.087 OFFCURVE",
"259.184 -186.54 OFFCURVE",
"248.7 -186.54 QCURVE SMOOTH",
"238.216 -186.54 OFFCURVE",
"227.959 -174.087 OFFCURVE",
"228.727 -165.087 QCURVE SMOOTH"
);
}
);
width = 649;
}
);
unicode = 0323;
},
{
glyphname = dieresisbelowcomb;
layers = (
{
layerId = "33953612-DAF4-435D-999F-265D395630EB";
paths = (
{
closed = 1;
nodes = (
"44.237 -208.127 OFFCURVE",
"80.486 -172.365 OFFCURVE",
"113.732 -172.365 QCURVE SMOOTH",
"145.43 -172.365 OFFCURVE",
"181.833 -210.19 OFFCURVE",
"181.235 -239.889 QCURVE SMOOTH",
"180.638 -271.135 OFFCURVE",
"144.421 -306.897 OFFCURVE",
"110.659 -306.897 QCURVE SMOOTH",
"78.961 -306.897 OFFCURVE",
"43.042 -269.587 OFFCURVE",
"43.64 -239.889 QCURVE SMOOTH"
);
},
{
closed = 1;
nodes = (
"316.88 -208.127 OFFCURVE",
"353.129 -172.365 OFFCURVE",
"386.859 -172.365 QCURVE SMOOTH",
"418.557 -172.365 OFFCURVE",
"454.476 -210.19 OFFCURVE",
"453.793 -240.373 QCURVE SMOOTH",
"453.195 -271.619 OFFCURVE",
"417.548 -306.897 OFFCURVE",
"383.786 -306.897 QCURVE SMOOTH",
"351.603 -306.897 OFFCURVE",
"315.6 -270.071 OFFCURVE",
"316.197 -240.373 QCURVE SMOOTH"
);
}
);
width = 649;
}
);
unicode = 0324;
},
{
glyphname = commaaccentcomb;
layers = (
{
layerId = "33953612-DAF4-435D-999F-265D395630EB";
paths = (
{
closed = 1;
nodes = (
"212.112 -374.167 OFFCURVE",
"258.875 -284 OFFCURVE",
"316.628 -156 QCURVE",
"325.808 -154.484 LINE",
"171.46 -480.167 LINE",
"164.599 -478.167 LINE"
);
}
);
width = 649;
}
);
unicode = 0326;
},
{
glyphname = brevebelowcomb;
layers = (
{
layerId = "33953612-DAF4-435D-999F-265D395630EB";
paths = (
{
closed = 1;
nodes = (
"513.663 -164.079 LINE",
"483.779 -240.325 OFFCURVE",
"339.912 -367.627 OFFCURVE",
"239.968 -367.627 QCURVE SMOOTH",
"150.698 -367.627 OFFCURVE",
"17.336 -249.968 OFFCURVE",
"-9.736 -163.079 QCURVE",
"45.411 -126.516 LINE",
"70.16 -185.643 OFFCURVE",
"169.772 -277.056 OFFCURVE",
"240.565 -277.056 QCURVE SMOOTH",
"317.391 -277.056 OFFCURVE",
"430.351 -188.222 OFFCURVE",
"462.554 -126.516 QCURVE"
);
}
);
width = 649;
}
);
unicode = 032E;
},
{
glyphname = macronbelowcomb;
layers = (
{
layerId = "33953612-DAF4-435D-999F-265D395630EB";
paths = (
{
closed = 1;
nodes = (
"50.038 -110.262 LINE",
"455.165 -110.262 LINE",
"454.653 -193.643 LINE",
"49.526 -193.643 LINE"
);
}
);
width = 649;
}
);
unicode = 0331;
},
{
glyphname = foursuperior;
layers = (
{
layerId = "33953612-DAF4-435D-999F-265D395630EB";
paths = (
{
closed = 1;
nodes = (
"56.814 939.881 LINE",
"356.346 1476.635 LINE",
"423.704 1476.635 LINE",
"299.754 1248.214 LINE",
"141.056 953.357 LINE",
"477.04 953.357 LINE",
"476.528 883.389 LINE",
"59.742 883.389 LINE"
);
},
{
closed = 1;
nodes = (
"377.914 674.73 LINE",
"294.017 674.73 LINE",
"362.735 1476.635 LINE",
"446.632 1476.635 LINE"
);
}
);
width = 507;
}
);
unicode = 2074;
},
{
glyphname = horizontalbar;
layers = (
{
layerId = "33953612-DAF4-435D-999F-265D395630EB";
paths = (
{
closed = 1;
nodes = (
"16.616 731.135 LINE",
"394.077 731.135 LINE",
"393.565 723.071 LINE",
"16.104 723.071 LINE"
);
}
);
width = 455;
}
);
leftKerningGroup = emdash;
rightKerningGroup = emdash;
unicode = 2015;
},
{
glyphname = leftanglebracket;
layers = (
{
layerId = "33953612-DAF4-435D-999F-265D395630EB";
paths = (
{
closed = 1;
nodes = (
"-21.201 665 LINE",
"651.993 1499 LINE",
"757.652 1413 LINE",
"164.592 604 LINE",
"617.337 -219 LINE",
"498.081 -304 LINE",
"-32.213 536 LINE"
);
}
);
width = 700;
}
);
rightKerningGroup = parens;
unicode = 27E8;
},
{
glyphname = rightanglebracket;
layers = (
{
layerId = "33953612-DAF4-435D-999F-265D395630EB";
paths = (
{
closed = 1;
nodes = (
"496.482 591 LINE",
"43.737 1414 LINE",
"162.993 1499 LINE",
"693.287 659 LINE",
"682.275 530 LINE",
"9.081 -304 LINE",
"-96.578 -218 LINE"
);
}
);
width = 700;
}
);
leftKerningGroup = parens;
unicode = 27E9;
},
{
glyphname = numero;
layers = (
{
layerId = "33953612-DAF4-435D-999F-265D395630EB";
paths = (
{
closed = 1;
nodes = (
"232.323 1456 LINE",
"427.323 1456 LINE",
"940.543 416 LINE SMOOTH",
"955.982 386 OFFCURVE",
"986.861 326 OFFCURVE",
"996.727 301 QCURVE",
"1006.727 301 LINE",
"1005.287 331 OFFCURVE",
"1009.69 406 OFFCURVE",
"1012.251 436 QCURVE SMOOTH",
"1099.323 1456 LINE",
"1276.323 1456 LINE",
"1152.032 0 LINE",
"955.032 0 LINE",
"432.787 1028 LINE SMOOTH",
"416.433 1059 OFFCURVE",
"395.469 1118 OFFCURVE",
"390.774 1145 QCURVE",
"380.774 1145 LINE",
"382.213 1115 OFFCURVE",
"376.811 1040 OFFCURVE",
"374.25 1010 QCURVE SMOOTH",
"288.032 0 LINE",
"108.032 0 LINE"
);
},
{
closed = 1;
nodes = (
"1378.018 1019 LINE SMOOTH",
"1395.091 1219 OFFCURVE",
"1656.774 1473 OFFCURVE",
"1852.774 1473 QCURVE SMOOTH",
"2048.774 1473 OFFCURVE",
"2268.091 1219 OFFCURVE",
"2251.018 1019 QCURVE SMOOTH",
"2248.713 992 LINE SMOOTH",
"2231.641 792 OFFCURVE",
"1981.043 539 OFFCURVE",
"1773.043 539 QCURVE SMOOTH",
"1565.043 539 OFFCURVE",
"1358.641 792 OFFCURVE",
"1375.714 992 QCURVE SMOOTH"
);
},
{
closed = 1;
nodes = (
"1573.628 991 LINE SMOOTH",
"1562.787 864 OFFCURVE",
"1665.702 699 OFFCURVE",
"1786.702 699 QCURVE SMOOTH",
"1907.702 699 OFFCURVE",
"2039.787 864 OFFCURVE",
"2050.628 991 QCURVE SMOOTH",
"2052.762 1016 LINE SMOOTH",
"2063.604 1143 OFFCURVE",
"1958.689 1308 OFFCURVE",
"1838.689 1308 QCURVE SMOOTH",
"1718.689 1308 OFFCURVE",
"1586.604 1143 OFFCURVE",
"1575.762 1016 QCURVE SMOOTH"
);
},
{
closed = 1;
nodes = (
"1366.373 414 LINE",
"2159.373 414 LINE",
"2143.836 232 LINE",
"1350.836 232 LINE"
);
}
);
width = 2331;
}
);
unicode = 2116;
},
{
glyphname = commercialMinusSign;
layers = (
{
layerId = "33953612-DAF4-435D-999F-265D395630EB";
paths = (
{
closed = 1;
nodes = (
"712.164 1501 LINE",
"876.493 1458 LINE",
"163.19 -45 LINE",
"-1.139 -2 LINE"
);
},
{
closed = 1;
nodes = (
"461.214 213 OFFCURVE",
"560.495 310 OFFCURVE",
"631.495 310 QCURVE SMOOTH",
"702.495 310 OFFCURVE",
"785.214 213 OFFCURVE",
"779.666 148 QCURVE SMOOTH",
"774.202 84 OFFCURVE",
"674.922 -13 OFFCURVE",
"603.922 -13 QCURVE SMOOTH",
"532.922 -13 OFFCURVE",
"450.202 84 OFFCURVE",
"455.666 148 QCURVE SMOOTH"
);
},
{
closed = 1;
nodes = (
"114.896 1369 OFFCURVE",
"214.176 1466 OFFCURVE",
"285.176 1466 QCURVE SMOOTH",
"356.176 1466 OFFCURVE",
"438.896 1369 OFFCURVE",
"433.347 1304 QCURVE SMOOTH",
"427.884 1240 OFFCURVE",
"328.604 1143 OFFCURVE",
"257.604 1143 QCURVE SMOOTH",
"186.604 1143 OFFCURVE",
"103.884 1240 OFFCURVE",
"109.347 1304 QCURVE SMOOTH"
);
}
);
width = 889;
}
);
unicode = 2052;
},
{
glyphname = divisionslash;
layers = (
{
layerId = "33953612-DAF4-435D-999F-265D395630EB";
paths = (
{
closed = 1;
nodes = (
"624.774 1555 LINE",
"762.103 1512 LINE",
"3.288 -161 LINE",
"-134.041 -118 LINE"
);
}
);
width = 656;
}
);
unicode = 2215;
},
{
glyphname = bulletoperator;
layers = (
{
layerId = "33953612-DAF4-435D-999F-265D395630EB";
paths = (
{
closed = 1;
nodes = (
"368.519 732 OFFCURVE",
"456.86 818 OFFCURVE",
"519.86 818 QCURVE SMOOTH",
"582.86 818 OFFCURVE",
"656.519 732 OFFCURVE",
"651.568 674 QCURVE SMOOTH",
"646.702 617 OFFCURVE",
"558.36 531 OFFCURVE",
"495.36 531 QCURVE SMOOTH",
"432.36 531 OFFCURVE",
"358.702 617 OFFCURVE",
"363.568 674 QCURVE SMOOTH"
);
}
);
width = 1024;
}
);
unicode = 2219;
},
{
glyphname = coloncurrency;
layers = (
{
guideLines = (
{
position = "{72.054, 1570}";
}
);
layerId = "33953612-DAF4-435D-999F-265D395630EB";
paths = (
{
closed = 1;
nodes = (
"974.055 1324 LINE",
"959.091 1301 LINE",
"681.837 68 LINE",
"685.702 43 LINE",
"647.361 -125 LINE",
"488.361 -125 LINE",
"525.446 40 LINE",
"541.666 66 LINE",
"837.213 1361 LINE",
"831.92 1381 LINE",
"876.054 1570 LINE",
"1034.054 1570 LINE"
);
},
{
closed = 1;
nodes = (
"722.115 1395 LINE",
"707.323 1374 LINE",
"408.666 66 LINE",
"412.361 39 LINE",
"375.361 -125 LINE",
"216.361 -125 LINE",
"272.446 122 LINE",
"288.666 148 LINE",
"569.494 1376 LINE",
"564.457 1399 LINE",
"604.054 1570 LINE",
"762.054 1570 LINE"
);
},
{
closed = 1;
nodes = (
"95.08 844 LINE SMOOTH",
"121.543 1154 OFFCURVE",
"451.884 1486 OFFCURVE",
"685.884 1486 QCURVE SMOOTH",
"920.884 1486 OFFCURVE",
"1166.286 1233 OFFCURVE",
"1149.811 1040 QCURVE SMOOTH",
"1145.543 990 LINE",
"963.543 990 LINE",
"967.896 1041 LINE SMOOTH",
"978.14 1161 OFFCURVE",
"835.737 1332 OFFCURVE",
"672.737 1332 QCURVE SMOOTH",
"510.737 1332 OFFCURVE",
"301.652 1085 OFFCURVE",
"281.079 844 QCURVE SMOOTH",
"259.568 592 LINE SMOOTH",
"240.531 369 OFFCURVE",
"416.763 114 OFFCURVE",
"578.763 114 QCURVE SMOOTH",
"741.763 114 OFFCURVE",
"908.873 291 OFFCURVE",
"919.202 412 QCURVE SMOOTH",
"923.812 466 LINE",
"1110.812 466 LINE",
"1107.397 426 LINE SMOOTH",
"1091.605 241 OFFCURVE",
"801.471 -30 OFFCURVE",
"566.471 -30 QCURVE SMOOTH",
"327.471 -30 OFFCURVE",
"49.324 308 OFFCURVE",
"75.275 612 QCURVE SMOOTH"
);
}
);
width = 1154;
}
);
unicode = 20A1;
userData = {
com.typemytype.robofont.guideline.magnetic.0DwZ2nfhdf = 5;
};
},
{
glyphname = franc;
layers = (
{
layerId = "33953612-DAF4-435D-999F-265D395630EB";
paths = (
{
closed = 1;
nodes = (
"242.323 1456 LINE",
"1064.323 1456 LINE",
"1050.835 1298 LINE",
"420.835 1298 LINE",
"383.531 861 LINE",
"924.531 861 LINE",
"911.043 703 LINE",
"370.043 703 LINE",
"310.032 0 LINE",
"118.032 0 LINE"
);
},
{
closed = 1;
nodes = (
"-3.213 454 LINE",
"701.787 454 LINE",
"688.3 296 LINE",
"-16.7 296 LINE"
);
}
);
width = 1024;
}
);
unicode = 20A3;
},
{
glyphname = lira;
layers = (
{
layerId = "33953612-DAF4-435D-999F-265D395630EB";
paths = (
{
closed = 1;
nodes = (
"-25.968 0 LINE",
"-12.31 160 LINE",
"43.69 160 LINE SMOOTH",
"135.69 160 OFFCURVE",
"232.69 324 OFFCURVE",
"230.897 467 QCURVE SMOOTH",
"224.726 1039 LINE SMOOTH",
"222.86 1228 OFFCURVE",
"444.03 1476 OFFCURVE",
"645.03 1476 QCURVE SMOOTH",
"835.03 1476 OFFCURVE",
"1030.445 1270 OFFCURVE",
"1016.189 1103 QCURVE SMOOTH",
"1014.823 1087 LINE",
"822.823 1087 LINE",
"824.189 1103 LINE SMOOTH",
"827.006 1218 OFFCURVE",
"725.628 1319 OFFCURVE",
"633.628 1319 QCURVE SMOOTH",
"531.628 1319 OFFCURVE",
"405.225 1162 OFFCURVE",
"406.726 1039 QCURVE SMOOTH",
"412.397 508 LINE SMOOTH",
"413.787 372 OFFCURVE",
"347.702 207 OFFCURVE",
"274.202 166 QCURVE",
"980.202 166 LINE",
"966.032 0 LINE"
);
},
{
closed = 1;
nodes = (
"17.165 435 LINE",
"29.543 580 LINE",
"791.543 580 LINE",
"779.165 435 LINE"
);
},
{
closed = 1;
nodes = (
"45.336 765 LINE",
"57.714 910 LINE",
"819.714 910 LINE",
"807.336 765 LINE"
);
}
);
width = 1024;
}
);
unicode = 20A4;
},
{
glyphname = naira;
layers = (
{
layerId = "33953612-DAF4-435D-999F-265D395630EB";
paths = (
{
closed = 1;
nodes = (
"1.287 987 LINE",
"183.287 987 LINE",
"182.433 977 LINE",
"848.433 977 LINE",
"849.287 987 LINE",
"1041.457 989 LINE",
"1029.762 852 LINE",
"837.592 850 LINE",
"838.018 855 LINE",
"172.019 855 LINE",
"171.592 850 LINE",
"-10.408 850 LINE"
);
},
{
closed = 1;
nodes = (
"-25.176 677 LINE",
"156.824 677 LINE",
"156.397 672 LINE",
"822.397 672 LINE",
"822.824 677 LINE",
"1014.994 679 LINE",
"1003.299 542 LINE",
"811.129 540 LINE",
"811.982 550 LINE",
"145.982 550 LINE",
"145.129 540 LINE",
"-36.871 540 LINE"
);
},
{
closed = 1;
nodes = (
"844.032 0 LINE",
"663.032 0 LINE",
"289.518 1142 LINE",
"276.994 1253 LINE",
"264.994 1253 LINE",
"267.067 1125 LINE",
"171.032 0 LINE",
"21.032 0 LINE",
"145.323 1456 LINE",
"331.323 1456 LINE",
"690.653 347 LINE",
"709.41 227 LINE",
"723.666 230 LINE",
"723.995 351 LINE",
"818.323 1456 LINE",
"968.323 1456 LINE"
);
}
);
width = 1024;
}
);
unicode = 20A6;
},
{
glyphname = peseta;
layers = (
{
layerId = "33953612-DAF4-435D-999F-265D395630EB";
paths = (
{
closed = 1;
nodes = (
"297.263 565 LINE",
"310.238 717 LINE",
"544.238 717 LINE",
"717.372 717 OFFCURVE",
"836.736 898.552 OFFCURVE",
"846.165 1009 QCURVE",
"855.72 1120.94 OFFCURVE",
"767.482 1304 OFFCURVE",
"594.347 1304 QCURVE",
"401.347 1304 LINE",
"290.032 0 LINE",
"105.032 0 LINE",
"229.323 1456 LINE",
"607.323 1456 LINE",
"853.591 1456 OFFCURVE",
"1048.644 1202.045 OFFCURVE",
"1032.335 1011 QCURVE",
"1015.963 819.209 OFFCURVE",
"777.531 565 OFFCURVE",
"531.263 565 QCURVE"
);
},
{
closed = 1;
nodes = (
"1567.494 884 LINE",
"963.494 884 LINE",
"975.616 1026 LINE",
"1579.616 1026 LINE"
);
},
{
closed = 1;
nodes = (
"1384.847 1345 LINE",
"1292.909 268 LINE",
"1285.838 185.164 OFFCURVE",
"1354.629 139 OFFCURVE",
"1400.897 139 QCURVE SMOOTH",
"1424.032 139 OFFCURVE",
"1494.068 141 OFFCURVE",
"1554.946 163 QCURVE",
"1542.056 12 LINE",
"1491.52 -6 OFFCURVE",
"1381.832 -20 OFFCURVE",
"1333.324 -20 QCURVE SMOOTH",
"1231.086 -20 OFFCURVE",
"1094.171 107.06 OFFCURVE",
"1107.995 269 QCURVE",
"1199.847 1345 LINE"
);
}
);
width = 1681;
}
);
unicode = 20A7;
},
{
glyphname = won;
layers = (
{
layerId = "33953612-DAF4-435D-999F-265D395630EB";
paths = (
{
closed = 1;
nodes = (
"72.848 1017 LINE",
"360.848 1017 LINE",
"359.994 1007 LINE",
"1495.994 1007 LINE",
"1496.848 1017 LINE",
"1773.018 1019 LINE",
"1761.323 882 LINE",
"1485.153 880 LINE",
"1485.579 885 LINE",
"349.579 885 LINE",
"349.153 880 LINE",
"61.153 880 LINE"
);
},
{
closed = 1;
nodes = (
"73.116 657 LINE",
"421.116 657 LINE",
"420.689 652 LINE",
"1386.689 652 LINE",
"1387.116 657 LINE",
"1703.287 659 LINE",
"1691.592 522 LINE",
"1375.421 520 LINE",
"1376.275 530 LINE",
"410.275 530 LINE",
"409.421 520 LINE",
"61.421 520 LINE"
);
},
{
closed = 1;
nodes = (
"177.323 1456 LINE",
"351.323 1456 LINE",
"508.3 378 LINE",
"515.373 250 LINE",
"521.373 250 LINE",
"550.3 378 LINE SMOOTH",
"860.323 1456 LINE",
"1058.323 1456 LINE",
"1214.3 378 LINE",
"1221.373 250 LINE",
"1227.373 250 LINE",
"1256.3 378 LINE SMOOTH",
"1567.323 1456 LINE",
"1729.323 1456 LINE",
"1286.178 -10 LINE",
"1108.178 -10 LINE",
"956.933 1100 LINE",
"946.86 1228 LINE",
"940.86 1228 LINE",
"908.933 1100 LINE SMOOTH",
"588.178 -10 LINE",
"410.178 -10 LINE"
);
}
);
width = 1796;
}
);
unicode = 20A9;
},
{
glyphname = dong;
layers = (
{
layerId = "33953612-DAF4-435D-999F-265D395630EB";
paths = (
{
closed = 1;
nodes = (
"-4.969 492 LINE SMOOTH",
"13.982 714 OFFCURVE",
"257.713 992 OFFCURVE",
"437.713 992 QCURVE SMOOTH",
"547.714 992 OFFCURVE",
"685.994 925 OFFCURVE",
"728.128 868 QCURVE",
"778.323 1456 LINE",
"954.323 1456 LINE",
"830.032 0 LINE",
"672.032 0 LINE",
"675.727 137 LINE",
"669.727 137 LINE",
"624.178 72 OFFCURVE",
"461.324 -20 OFFCURVE",
"370.324 -20 QCURVE SMOOTH",
"171.324 -20 OFFCURVE",
"-25.542 251 OFFCURVE",
"-5.993 480 QCURVE SMOOTH"
);
},
{
closed = 1;
nodes = (
"169.495 310 OFFCURVE",
"274.3 132 OFFCURVE",
"394.3 132 QCURVE SMOOTH",
"504.3 132 OFFCURVE",
"643.69 242 OFFCURVE",
"680.666 312 QCURVE",
"712.08 680 LINE",
"687.055 750 OFFCURVE",
"564.738 840 OFFCURVE",
"464.738 840 QCURVE SMOOTH",
"334.738 840 OFFCURVE",
"200.397 672 OFFCURVE",
"185.031 492 QCURVE SMOOTH",
"184.007 480 LINE SMOOTH"
);
},
{
closed = 1;
nodes = (
"341.713 1156 LINE",
"354.177 1302 LINE",
"1070.177 1302 LINE",
"1057.713 1156 LINE"
);
},
{
closed = 1;
nodes = (
"-37.675 -266 LINE",
"-25.895 -128 LINE",
"898.105 -128 LINE",
"886.325 -266 LINE"
);
}
);
width = 1024;
}
);
unicode = 20AB;
},
{
glyphname = uni20AD;
layers = (
{
layerId = "33953612-DAF4-435D-999F-265D395630EB";
paths = (
{
closed = 1;
nodes = (
"130 1456 LINE",
"317 1456 LINE",
"317 769 LINE",
"835 1456 LINE",
"1037 1456 LINE",
"317 500 LINE",
"317 0 LINE",
"130 0 LINE"
);
},
{
closed = 1;
nodes = (
"441 756 LINE",
"557 901 LINE",
"1061 0 LINE",
"845 0 LINE"
);
},
{
closed = 1;
nodes = (
"-9 661 LINE",
"-9 809 LINE",
"267 809 LINE",
"267 661 LINE"
);
},
{
closed = 1;
nodes = (
"1021 661 LINE",
"590 661 LINE",
"590 809 LINE",
"1021 809 LINE"
);
}
);
width = 1024;
}
);
unicode = 20AD;
},
{
glyphname = uni20B1;
layers = (
{
layerId = "33953612-DAF4-435D-999F-265D395630EB";
paths = (
{
closed = 1;
nodes = (
"160.97 421 LINE",
"174.287 577 LINE",
"429.287 577 LINE SMOOTH",
"583.287 577 OFFCURVE",
"710.823 759 OFFCURVE",
"726.701 945 QCURVE SMOOTH",
"742.579 1131 OFFCURVE",
"645.006 1300 OFFCURVE",
"491.006 1300 QCURVE SMOOTH",
"326.006 1300 LINE",
"215.032 0 LINE",
"27.032 0 LINE",
"151.323 1456 LINE",
"507.323 1456 LINE SMOOTH",
"742.323 1456 OFFCURVE",
"934.725 1203 OFFCURVE",
"913.555 955 QCURVE SMOOTH",
"893.921 725 OFFCURVE",
"652.97 421 OFFCURVE",
"417.97 421 QCURVE SMOOTH"
);
},
{
closed = 1;
nodes = (
"34.091 1137 LINE",
"236.091 1137 LINE",
"233.957 1112 LINE",
"819.957 1112 LINE",
"822.091 1137 LINE",
"1054.262 1139 LINE",
"1040.86 982 LINE",
"828.689 980 LINE",
"829.97 995 LINE",
"223.97 995 LINE",
"222.689 980 LINE",
"20.689 980 LINE"
);
},
{
closed = 1;
nodes = (
"11.043 867 LINE",
"213.043 867 LINE",
"211.762 852 LINE",
"817.762 852 LINE",
"819.043 867 LINE",
"1031.214 869 LINE",
"1017.811 712 LINE",
"765.641 710 LINE",
"767.689 734 LINE",
"201.689 734 LINE",
"199.641 710 LINE",
"-2.359 710 LINE"
);
}
);
width = 1024;
}
);
unicode = 20B1;
},
{
glyphname = uni20B2;
layers = (
{
layerId = "33953612-DAF4-435D-999F-265D395630EB";
paths = (
{
closed = 1;
nodes = (
"421.898 57 LINE",
"441.093 71 LINE",
"495.47 708 LINE",
"625.47 708 LINE",
"571.007 70 LINE",
"592.154 60 LINE",
"570.812 -190 LINE",
"400.812 -190 LINE"
);
},
{
closed = 1;
nodes = (
"549.591 1342 LINE",
"535.445 1352 LINE",
"555.079 1582 LINE",
"715.079 1582 LINE",
"695.445 1352 LINE",
"679.335 1339 LINE",
"625.47 708 LINE",
"495.47 708 LINE"
);
},
{
closed = 1;
nodes = (
"971.617 452 LINE SMOOTH",
"955.141 259 OFFCURVE",
"691.605 -5 OFFCURVE",
"508.605 -5 QCURVE SMOOTH",
"287.605 -5 OFFCURVE",
"56.617 288 OFFCURVE",
"78.299 542 QCURVE SMOOTH",
"108.604 897 LINE SMOOTH",
"134.128 1196 OFFCURVE",
"414.798 1485 OFFCURVE",
"613.798 1485 QCURVE SMOOTH",
"791.798 1485 OFFCURVE",
"993.42 1340 OFFCURVE",
"1035.018 1265 QCURVE",
"907.579 1131 LINE",
"858.811 1204 OFFCURVE",
"722.774 1309 OFFCURVE",
"606.774 1309 QCURVE SMOOTH",
"474.774 1309 OFFCURVE",
"320.957 1112 OFFCURVE",
"302.775 899 QCURVE SMOOTH",
"272.47 544 LINE SMOOTH",
"256.678 359 OFFCURVE",
"385.154 142 OFFCURVE",
"535.154 142 QCURVE SMOOTH",
"622.154 142 OFFCURVE",
"786.556 299 OFFCURVE",
"797.995 433 QCURVE SMOOTH",
"809.604 569 LINE",
"682.604 569 LINE",
"695.921 725 LINE",
"994.921 725 LINE"
);
}
);
width = 1024;
}
);
unicode = 20B2;
},
{
glyphname = uni20B5;
layers = (
{
guideLines = (
{
position = "{-72.639, -125}";
}
);
layerId = "33953612-DAF4-435D-999F-265D395630EB";
paths = (
{
closed = 1;
nodes = (
"414.19 37 LINE",
"428.385 51 LINE",
"484.47 708 LINE",
"629.47 708 LINE",
"573.3 50 LINE",
"584.446 40 LINE",
"564.812 -190 LINE",
"394.812 -190 LINE"
);
},
{
closed = 1;
nodes = (
"540.298 1362 LINE",
"531.152 1372 LINE",
"549.079 1582 LINE",
"709.079 1582 LINE",
"691.152 1372 LINE",
"685.042 1359 LINE",
"629.47 708 LINE",
"484.47 708 LINE"
);
},
{
closed = 1;
nodes = (
"798.299 460 LINE",
"987.129 458 LINE",
"984.251 436 LINE SMOOTH",
"950.861 244 OFFCURVE",
"714.898 -25 OFFCURVE",
"500.898 -25 QCURVE SMOOTH",
"279.898 -25 OFFCURVE",
"60.263 237 OFFCURVE",
"79.47 462 QCURVE SMOOTH",
"125.567 1002 LINE SMOOTH",
"143.835 1216 OFFCURVE",
"408.798 1485 OFFCURVE",
"627.798 1485 QCURVE SMOOTH",
"844.798 1485 OFFCURVE",
"1043.542 1236 OFFCURVE",
"1034.957 1030 QCURVE SMOOTH",
"1034.079 1008 LINE",
"839.909 1006 LINE",
"841.957 1030 LINE SMOOTH",
"846.921 1135 OFFCURVE",
"763.481 1329 OFFCURVE",
"617.481 1329 QCURVE SMOOTH",
"470.481 1329 OFFCURVE",
"332.201 1150 OFFCURVE",
"319.738 1004 QCURVE SMOOTH",
"273.641 464 LINE SMOOTH",
"260.58 311 OFFCURVE",
"377.446 122 OFFCURVE",
"527.446 122 QCURVE SMOOTH",
"645.446 122 OFFCURVE",
"784.812 302 OFFCURVE",
"796.251 436 QCURVE SMOOTH"
);
}
);
width = 1024;
}
);
unicode = 20B5;
userData = {
com.typemytype.robofont.guideline.magnetic.1Am3eQoiKr = 5;
};
},
{
glyphname = rupeeIndian;
layers = (
{
layerId = "33953612-DAF4-435D-999F-265D395630EB";
paths = (
{
closed = 1;
nodes = (
"49.994 1089 LINE",
"1020.994 1089 LINE",
"1007.762 934 LINE",
"36.762 934 LINE"
);
},
{
closed = 1;
nodes = (
"620.824 267 LINE SMOOTH",
"541.507 439 OFFCURVE",
"308.348 566 OFFCURVE",
"119.031 574 QCURVE SMOOTH",
"6.458 579 LINE",
"19.519 732 LINE",
"307.519 732 LINE SMOOTH",
"498.519 732 OFFCURVE",
"666.579 885 OFFCURVE",
"678.018 1019 QCURVE SMOOTH",
"688.774 1145 OFFCURVE",
"540.92 1299 OFFCURVE",
"369.92 1299 QCURVE SMOOTH",
"67.92 1299 LINE",
"81.323 1456 LINE",
"1061.323 1456 LINE",
"1048.006 1300 LINE",
"813.006 1300 LINE",
"736.689 1308 LINE",
"738.006 1300 LINE",
"792.616 1272 OFFCURVE",
"870.957 1112 OFFCURVE",
"863.018 1019 QCURVE SMOOTH",
"846.97 831 OFFCURVE",
"655.628 663 OFFCURVE",
"467.836 642 QCURVE",
"559.872 619 OFFCURVE",
"739.385 461 OFFCURVE",
"804.092 317 QCURVE SMOOTH",
"947.032 0 LINE",
"744.032 0 LINE"
);
}
);
width = 1024;
}
);
unicode = 20B9;
},
{
glyphname = liraTurkish;
layers = (
{
layerId = "33953612-DAF4-435D-999F-265D395630EB";
paths = (
{
closed = 1;
nodes = (
"-13.115 502 LINE",
"868.811 876 LINE",
"848.555 709 LINE",
"-27.456 334 LINE"
);
},
{
closed = 1;
nodes = (
"242.323 1456 LINE",
"424.323 1456 LINE",
"313.093 153 LINE",
"390.093 153 LINE SMOOTH",
"598.093 153 OFFCURVE",
"808.019 363 OFFCURVE",
"817.507 521 QCURVE SMOOTH",
"820.665 558 LINE",
"1000.665 558 LINE",
"997.677 523 LINE SMOOTH",
"978.47 298 OFFCURVE",
"664.605 -5 OFFCURVE",
"339.861 -2 QCURVE SMOOTH",
"118.032 0 LINE"
);
},
{
closed = 1;
nodes = (
"17.616 862 LINE",
"899.542 1236 LINE",
"879.287 1069 LINE",
"3.275 694 LINE"
);
}
);
width = 1024;
}
);
unicode = 20BA;
},
{
glyphname = manat;
layers = (
{
layerId = "33953612-DAF4-435D-999F-265D395630EB";
paths = (
{
closed = 1;
nodes = (
"1000.032 0 LINE",
"818.032 0 LINE",
"896.226 916 LINE SMOOTH",
"908.738 1086 OFFCURVE",
"748.908 1252 OFFCURVE",
"609.908 1252 QCURVE SMOOTH",
"470.908 1252 OFFCURVE",
"280.738 1086 OFFCURVE",
"266.226 916 QCURVE SMOOTH",
"188.032 0 LINE",
"6.032 0 LINE",
"84.226 916 LINE SMOOTH",
"108.567 1166 OFFCURVE",
"414.908 1416 OFFCURVE",
"623.908 1416 QCURVE SMOOTH",
"833.908 1416 OFFCURVE",
"1099.567 1166 OFFCURVE",
"1078.226 916 QCURVE SMOOTH"
);
},
{
closed = 1;
nodes = (
"423.032 0 LINE",
"558.079 1582 LINE",
"718.079 1582 LINE",
"583.032 0 LINE"
);
}
);
width = 1130;
}
);
unicode = 20BC;
},
{
glyphname = ruble;
layers = (
{
layerId = "33953612-DAF4-435D-999F-265D395630EB";
paths = (
{
closed = 1;
nodes = (
"20.19 611 LINE",
"33.592 768 LINE",
"529.592 768 LINE SMOOTH",
"692.592 768 OFFCURVE",
"857.97 913 OFFCURVE",
"868.213 1033 QCURVE SMOOTH",
"877.177 1138 OFFCURVE",
"743.835 1298 OFFCURVE",
"574.835 1298 QCURVE SMOOTH",
"415.835 1298 LINE",
"305.032 0 LINE",
"126.032 0 LINE",
"250.323 1456 LINE",
"588.323 1456 LINE SMOOTH",
"834.323 1456 OFFCURVE",
"1075.921 1217 OFFCURVE",
"1060.384 1035 QCURVE SMOOTH",
"1043.311 835 OFFCURVE",
"762.19 611 OFFCURVE",
"516.19 611 QCURVE SMOOTH"
);
},
{
closed = 1;
nodes = (
"714.739 266 LINE",
"-9.261 266 LINE",
"4.226 424 LINE",
"728.226 424 LINE"
);
}
);
width = 1024;
}
);
unicode = 20BD;
},
{
glyphname = diagonalbarL;
layers = (
{
layerId = "33953612-DAF4-435D-999F-265D395630EB";
paths = (
{
closed = 1;
nodes = (
"-13.191 539.46 LINE",
"397.12 792.635 LINE",
"439.277 719.603 LINE",
"28.051 465.365 LINE"
);
}
);
width = 462;
}
);
},
{
glyphname = diagonalbarO;
layers = (
{
layerId = "33953612-DAF4-435D-999F-265D395630EB";
paths = (
{
closed = 1;
nodes = (
"-14.163 52.278 LINE",
"-13.993 53.246 LINE",
"230.341 809.31 LINE",
"230.872 791.381 LINE",
"-9.882 39.96 LINE",
"-10.052 38.992 LINE",
"-55.677 -97.381 LINE",
"-65.256 -97.381 LINE"
);
},
{
closed = 1;
nodes = (
"494.346 1577.333 LINE",
"440.806 1431.873 LINE",
"440.72 1431.389 LINE",
"230.872 791.381 LINE",
"230.341 809.31 LINE",
"437.986 1446.286 LINE",
"438.072 1446.77 LINE",
"485.283 1577.333 LINE"
);
}
);
width = 444;
}
);
},
{
glyphname = diagonalbarl;
layers = (
{
layerId = "33953612-DAF4-435D-999F-265D395630EB";
paths = (
{
closed = 1;
nodes = (
"15.408 562.976 LINE",
"172.719 682.929 LINE",
"345.839 817.952 LINE",
"348.959 811.405 LINE",
"175.957 677.381 LINE",
"20.216 556.881 LINE"
);
}
);
width = 393;
}
);
},
{
glyphname = diagonalbaro;
layers = (
{
layerId = "33953612-DAF4-435D-999F-265D395630EB";
paths = (
{
closed = 1;
nodes = (
"-10.254 65.119 LINE",
"-10.254 65.119 LINE",
"188.618 553.5 LINE",
"178.088 516.905 LINE",
"-10.915 47.286 LINE",
"-10.915 47.286 LINE",
"-70.369 -82.333 LINE",
"-77.895 -81.333 LINE"
);
},
{
closed = 1;
nodes = (
"407.581 1068.381 LINE",
"345.276 926.373 LINE",
"345.276 926.373 LINE",
"178.088 516.905 LINE",
"188.618 553.5 LINE",
"345.229 942.754 LINE",
"345.229 942.754 LINE",
"399.571 1069.381 LINE"
);
}
);
width = 357;
}
);
},
{
glyphname = engtail;
layers = (
{
layerId = "33953612-DAF4-435D-999F-265D395630EB";
paths = (
{
closed = 1;
nodes = (
"476.251 190 LINE",
"443.386 -195 LINE SMOOTH",
"434.849 -295 OFFCURVE",
"301.215 -443 OFFCURVE",
"169.215 -443 QCURVE SMOOTH",
"97.215 -443 OFFCURVE",
"-27.492 -381 OFFCURVE",
"-63.053 -329 QCURVE",
"6.349 -254 LINE",
"44.849 -295 OFFCURVE",
"117.288 -325 OFFCURVE",
"158.288 -325 QCURVE SMOOTH",
"202.288 -325 OFFCURVE",
"271.41 -265 OFFCURVE",
"279.947 -165 QCURVE SMOOTH",
"286.69 -86 OFFCURVE",
"306.836 150 OFFCURVE",
"306.836 150 QCURVE",
"373.251 190 LINE"
);
}
);
width = 629;
}
);
},
{
glyphname = horizontalbarH;
layers = (
{
layerId = "33953612-DAF4-435D-999F-265D395630EB";
paths = (
{
closed = 1;
nodes = (
"856.746 1065.762 LINE",
"857.258 1074.341 LINE",
"992.916 1075.373 LINE",
"986.277 1066.794 LINE"
);
},
{
closed = 1;
nodes = (
"-62.504 1074.341 LINE",
"78.218 1074.341 LINE",
"77.706 1065.762 LINE",
"-57.889 1065.762 LINE"
);
},
{
closed = 1;
nodes = (
"78.218 1074.341 LINE",
"857.258 1074.341 LINE",
"856.746 1065.762 LINE",
"77.706 1065.762 LINE"
);
}
);
width = 884;
}
);
},
{
glyphname = horizontalbarlc;
layers = (
{
layerId = "33953612-DAF4-435D-999F-265D395630EB";
paths = (
{
closed = 1;
nodes = (
"34.982 758.857 LINE",
"37.01 766.921 LINE",
"225.328 766.921 LINE",
"418.828 766.921 LINE",
"418.315 758.857 LINE",
"203.696 758.857 LINE"
);
}
);
width = 426;
}
);
},
{
glyphname = idotless;
layers = (
{
layerId = "33953612-DAF4-435D-999F-265D395630EB";
paths = (
{
closed = 1;
nodes = (
"151 913 LINE",
"158 913 LINE",
"14 0 LINE",
"7 0 LINE"
);
}
);
width = 255;
}
);
leftKerningGroup = mnpr_LC;
rightKerningGroup = u_LC;
},
{
glyphname = jdotless;
layers = (
{
layerId = "33953612-DAF4-435D-999F-265D395630EB";
paths = (
{
closed = 1;
nodes = (
"-284 -405 LINE",
"-267 -415 OFFCURVE",
"-220 -429 OFFCURVE",
"-183 -429 QCURVE SMOOTH",
"-124 -429 OFFCURVE",
"-36 -340 OFFCURVE",
"-18 -229 QCURVE SMOOTH",
"161 913 LINE",
"169 913 LINE",
"-12 -237 LINE SMOOTH",
"-29 -345 OFFCURVE",
"-122 -436 OFFCURVE",
"-184 -436 QCURVE SMOOTH",
"-222 -436 OFFCURVE",
"-270 -423 OFFCURVE",
"-285 -414 QCURVE"
);
}
);
width = 259;
}
);
rightKerningGroup = j_LC;
},
{
glyphname = zerosuperior;
layers = (
{
layerId = "33953612-DAF4-435D-999F-265D395630EB";
paths = (
{
closed = 1;
nodes = (
"165.504 1238.31 LINE SMOOTH",
"186.614 1357.96 OFFCURVE",
"303.267 1478.571 OFFCURVE",
"383.918 1478.571 QCURVE SMOOTH",
"466.117 1478.571 OFFCURVE",
"539.328 1357.96 OFFCURVE",
"518.218 1238.31 QCURVE SMOOTH",
"459.25 901.865 LINE SMOOTH",
"438.311 783.183 OFFCURVE",
"321.832 660.635 OFFCURVE",
"239.633 660.635 QCURVE SMOOTH",
"159.467 660.635 OFFCURVE",
"85.596 783.183 OFFCURVE",
"106.536 901.865 QCURVE SMOOTH"
);
},
{
closed = 1;
nodes = (
"94.773 790.183 OFFCURVE",
"165.074 668.698 OFFCURVE",
"241.177 668.698 QCURVE SMOOTH",
"319.86 668.698 OFFCURVE",
"431.361 790.183 OFFCURVE",
"450.415 898.349 QCURVE SMOOTH",
"510.67 1240.373 LINE SMOOTH",
"530.322 1351.929 OFFCURVE",
"461.057 1470.508 OFFCURVE",
"382.374 1470.508 QCURVE SMOOTH",
"306.271 1470.508 OFFCURVE",
"193.735 1351.929 OFFCURVE",
"174.083 1240.373 QCURVE SMOOTH",
"113.827 898.349 LINE SMOOTH"
);
}
);
width = 487;
}
);
},
{
glyphname = gravecomb.case;
layers = (
{
layerId = "33953612-DAF4-435D-999F-265D395630EB";
paths = (
{
closed = 1;
nodes = (
"262.184 1822.389 LINE",
"268.956 1827.968 LINE",
"495.372 1553.246 LINE",
"490.116 1548.182 LINE"
);
}
);
width = 649;
}
);
},
{
glyphname = acutecomb.case;
layers = (
{
layerId = "33953612-DAF4-435D-999F-265D395630EB";
paths = (
{
closed = 1;
nodes = (
"559.988 1827.968 LINE",
"566.248 1822.389 LINE",
"298.195 1548.182 LINE",
"293.451 1553.246 LINE"
);
}
);
width = 649;
}
);
},
{
glyphname = circumflexcomb.case;
layers = (
{
layerId = "33953612-DAF4-435D-999F-265D395630EB";
paths = (
{
closed = 1;
nodes = (
"550.335 1542.206 LINE",
"541.24 1542.206 LINE",
"406.355 1788.294 LINE",
"230.39 1542.206 LINE",
"221.295 1542.206 LINE",
"401.352 1795.841 LINE",
"412.384 1795.841 LINE"
);
}
);
width = 649;
}
);
},
{
glyphname = tildecomb.case;
layers = (
{
layerId = "33953612-DAF4-435D-999F-265D395630EB";
paths = (
{
closed = 1;
nodes = (
"207 1625.095 OFFCURVE",
"271.749 1662.54 OFFCURVE",
"310.995 1662.54 QCURVE SMOOTH",
"338.019 1662.54 OFFCURVE",
"388.786 1638.77 OFFCURVE",
"411.377 1624.643 QCURVE SMOOTH",
"434.601 1611 OFFCURVE",
"477.981 1591.778 OFFCURVE",
"501.973 1591.778 QCURVE SMOOTH",
"537.703 1591.778 OFFCURVE",
"591.297 1619.095 OFFCURVE",
"615.737 1654.476 QCURVE",
"621.167 1650.381 LINE",
"594.785 1612.063 OFFCURVE",
"538.707 1583.714 OFFCURVE",
"500.945 1583.714 QCURVE SMOOTH",
"474.953 1583.714 OFFCURVE",
"425.765 1606.452 OFFCURVE",
"406.551 1618.063 QCURVE SMOOTH",
"384.875 1631.19 OFFCURVE",
"334.475 1654.476 OFFCURVE",
"309.967 1654.476 QCURVE SMOOTH",
"270.658 1654.476 OFFCURVE",
"210.026 1617.516 OFFCURVE",
"185.017 1583.714 QCURVE",
"179.757 1588.778 LINE"
);
}
);
width = 649;
}
);
},
{
glyphname = macroncomb.case;
layers = (
{
layerId = "33953612-DAF4-435D-999F-265D395630EB";
paths = (
{
closed = 1;
nodes = (
"208.746 1576.23 LINE",
"576.596 1576.23 LINE",
"576.083 1568.167 LINE",
"208.234 1568.167 LINE"
);
}
);
width = 649;
}
);
},
{
glyphname = brevecomb.case;
layers = (
{
layerId = "33953612-DAF4-435D-999F-265D395630EB";
paths = (
{
closed = 1;
nodes = (
"606.931 1767.722 LINE",
"566.098 1650.405 OFFCURVE",
"464.641 1545.119 OFFCURVE",
"392.856 1545.119 QCURVE SMOOTH",
"322.038 1545.119 OFFCURVE",
"236.971 1650.405 OFFCURVE",
"213.439 1767.722 QCURVE",
"221.04 1770.27 LINE",
"244.376 1656.468 OFFCURVE",
"326.098 1553.182 OFFCURVE",
"393.368 1553.182 QCURVE SMOOTH",
"461.122 1553.182 OFFCURVE",
"558.892 1656.468 OFFCURVE",
"599.984 1770.27 QCURVE"
);
}
);
width = 649;
}
);
},
{
glyphname = dotaccentcomb.case;
layers = (
{
layerId = "33953612-DAF4-435D-999F-265D395630EB";
paths = (
{
closed = 1;
nodes = (
"372.57 1589.23 OFFCURVE",
"385.734 1601.682 OFFCURVE",
"396.218 1601.682 QCURVE SMOOTH",
"406.702 1601.682 OFFCURVE",
"416.959 1589.23 OFFCURVE",
"416.191 1580.746 QCURVE SMOOTH",
"415.423 1571.746 OFFCURVE",
"402.259 1559.294 OFFCURVE",
"391.775 1559.294 QCURVE SMOOTH",
"381.291 1559.294 OFFCURVE",
"371.034 1571.746 OFFCURVE",
"371.802 1580.746 QCURVE SMOOTH"
);
}
);
width = 649;
}
);
},
{
glyphname = dieresiscomb.case;
layers = (
{
layerId = "33953612-DAF4-435D-999F-265D395630EB";
paths = (
{
closed = 1;
nodes = (
"224.175 1621.246 OFFCURVE",
"235.716 1632.73 OFFCURVE",
"245.232 1632.73 QCURVE SMOOTH",
"254.747 1632.73 OFFCURVE",
"264.207 1621.246 OFFCURVE",
"263.61 1613.73 QCURVE SMOOTH",
"263.012 1605.698 OFFCURVE",
"250.988 1594.214 OFFCURVE",
"241.472 1594.214 QCURVE SMOOTH",
"231.956 1594.214 OFFCURVE",
"222.98 1605.698 OFFCURVE",
"223.578 1613.73 QCURVE SMOOTH"
);
},
{
closed = 1;
nodes = (
"519.279 1621.246 OFFCURVE",
"530.819 1632.73 OFFCURVE",
"540.819 1632.73 QCURVE SMOOTH",
"550.335 1632.73 OFFCURVE",
"559.31 1621.246 OFFCURVE",
"558.627 1613.246 QCURVE SMOOTH",
"558.03 1605.214 OFFCURVE",
"546.575 1594.214 OFFCURVE",
"537.059 1594.214 QCURVE SMOOTH",
"527.059 1594.214 OFFCURVE",
"517.998 1605.214 OFFCURVE",
"518.596 1613.246 QCURVE SMOOTH"
);
}
);
width = 649;
}
);
},
{
glyphname = hookabovecomb.case;
layers = (
{
layerId = "33953612-DAF4-435D-999F-265D395630EB";
paths = (
{
closed = 1;
nodes = (
"328.791 1559.04 LINE SMOOTH",
"329.133 1566.135 OFFCURVE",
"336.054 1572.714 OFFCURVE",
"346.665 1573.23 QCURVE SMOOTH",
"436.57 1576.325 OFFCURVE",
"517.086 1638.738 OFFCURVE",
"520.842 1690.992 QCURVE SMOOTH",
"524.256 1744.405 OFFCURVE",
"463.3 1802.365 OFFCURVE",
"405.673 1802.365 QCURVE SMOOTH",
"359.205 1802.365 OFFCURVE",
"275.865 1781.111 OFFCURVE",
"253.545 1767.532 QCURVE",
"248.94 1774.595 LINE",
"274.377 1788.659 OFFCURVE",
"360.233 1810.429 OFFCURVE",
"406.701 1810.429 QCURVE SMOOTH",
"468.36 1810.429 OFFCURVE",
"533.092 1748.437 OFFCURVE",
"529.421 1690.476 QCURVE SMOOTH",
"525.324 1634.222 OFFCURVE",
"438.057 1567.746 OFFCURVE",
"337.542 1564.651 QCURVE",
"336.346 1517.635 LINE",
"327.767 1517.635 LINE"
);
}
);
width = 649;
}
);
},
{
glyphname = ringcomb.case;
layers = (
{
layerId = "33953612-DAF4-435D-999F-265D395630EB";
paths = (
{
closed = 1;
nodes = (
"286.616 1743.278 OFFCURVE",
"357.349 1819.397 OFFCURVE",
"410.499 1819.397 QCURVE SMOOTH",
"463.65 1819.397 OFFCURVE",
"524.822 1743.278 OFFCURVE",
"520.298 1679.444 QCURVE SMOOTH",
"515.944 1617.611 OFFCURVE",
"445.297 1543.008 OFFCURVE",
"392.146 1543.008 QCURVE SMOOTH",
"338.995 1543.008 OFFCURVE",
"277.738 1617.611 OFFCURVE",
"282.091 1679.444 QCURVE"
);
},
{
closed = 1;
nodes = (
"284.542 1620.611 OFFCURVE",
"342.023 1550.04 OFFCURVE",
"392.658 1550.04 QCURVE SMOOTH",
"443.293 1550.04 OFFCURVE",
"509.653 1620.611 OFFCURVE",
"513.75 1679.444 QCURVE SMOOTH",
"518.018 1739.762 OFFCURVE",
"460.707 1812.333 OFFCURVE",
"410.072 1812.333 QCURVE SMOOTH",
"359.438 1812.333 OFFCURVE",
"292.907 1739.762 OFFCURVE",
"288.639 1679.444 QCURVE"
);
}
);
width = 649;
}
);
},
{
glyphname = caroncomb.case;
layers = (
{
layerId = "33953612-DAF4-435D-999F-265D395630EB";
paths = (
{
closed = 1;
nodes = (
"241.185 1795.841 LINE",
"250.28 1795.841 LINE",
"385.164 1549.754 LINE",
"561.13 1795.841 LINE",
"570.225 1795.841 LINE",
"390.168 1542.206 LINE",
"379.136 1542.206 LINE"
);
}
);
width = 649;
}
);
},
{
glyphname = breveinvertedcomb.case;
layers = (
{
layerId = "33953612-DAF4-435D-999F-265D395630EB";
paths = (
{
closed = 1;
nodes = (
"196.195 1561.079 LINE",
"237.027 1678.397 OFFCURVE",
"338.484 1783.682 OFFCURVE",
"410.27 1783.682 QCURVE SMOOTH",
"481.088 1783.682 OFFCURVE",
"566.154 1678.397 OFFCURVE",
"589.687 1561.079 QCURVE",
"582.086 1558.532 LINE",
"558.75 1672.333 OFFCURVE",
"477.028 1775.619 OFFCURVE",
"409.758 1775.619 QCURVE SMOOTH",
"342.004 1775.619 OFFCURVE",
"244.234 1672.333 OFFCURVE",
"203.141 1558.532 QCURVE"
);
}
);
width = 649;
}
);
},
{
glyphname = horncomb.case;
layers = (
{
layerId = "33953612-DAF4-435D-999F-265D395630EB";
paths = (
{
closed = 1;
nodes = (
"136.227 1441.04 LINE SMOOTH",
"207.077 1441.04 OFFCURVE",
"274.213 1483.619 OFFCURVE",
"277.372 1529.905 QCURVE SMOOTH",
"279.506 1568.833 OFFCURVE",
"265.391 1635.175 OFFCURVE",
"254.759 1665.008 QCURVE",
"262.822 1665.008 LINE",
"272.97 1635.69 OFFCURVE",
"287.57 1568.318 OFFCURVE",
"285.435 1528.873 QCURVE SMOOTH",
"282.106 1480.587 OFFCURVE",
"212.66 1432.976 OFFCURVE",
"138.295 1432.976 QCURVE SMOOTH",
"124.461 1432.976 OFFCURVE",
"80.255 1433.492 OFFCURVE",
"61.81 1434.008 QCURVE",
"62.323 1441.04 LINE"
);
}
);
width = 649;
}
);
},
{
glyphname = commaaccentcomb.case;
layers = (
{
layerId = "33953612-DAF4-435D-999F-265D395630EB";
paths = (
{
closed = 1;
nodes = (
"200.763 -436.071 OFFCURVE",
"258.875 -325.786 OFFCURVE",
"316.628 -197.786 QCURVE",
"325.808 -196.27 LINE",
"160.111 -542.071 LINE",
"153.25 -540.071 LINE"
);
}
);
width = 649;
}
);
},
{
glyphname = cedillacomb.case;
layers = (
{
layerId = "33953612-DAF4-435D-999F-265D395630EB";
paths = (
{
closed = 1;
nodes = (
"244.056 24.381 LINE",
"215.163 -70.468 LINE",
"297.633 -75.079 OFFCURVE",
"379.849 -129.587 OFFCURVE",
"376.435 -173.198 QCURVE SMOOTH",
"371.654 -241.579 OFFCURVE",
"224.79 -322.667 OFFCURVE",
"112.6 -322.667 QCURVE",
"112.596 -315.635 LINE",
"219.207 -315.635 OFFCURVE",
"363.448 -237.579 OFFCURVE",
"367.802 -174.714 QCURVE SMOOTH",
"371.046 -133.103 OFFCURVE",
"294.089 -82.111 OFFCURVE",
"205.673 -76.5 QCURVE",
"235.508 24.381 LINE"
);
}
);
width = 649;
}
);
},
{
glyphname = ogonekcomb.case;
layers = (
{
layerId = "33953612-DAF4-435D-999F-265D395630EB";
paths = (
{
closed = 1;
nodes = (
"98.513 -127.563 OFFCURVE",
"186.805 -21.484 OFFCURVE",
"265.899 25.571 QCURVE",
"273.653 20.54 LINE",
"195.814 -25.063 OFFCURVE",
"107.178 -127.595 OFFCURVE",
"103.849 -177.944 QCURVE SMOOTH",
"100.605 -224.714 OFFCURVE",
"159.228 -279.706 OFFCURVE",
"211.506 -279.706 QCURVE SMOOTH",
"257.847 -279.706 OFFCURVE",
"352.098 -251.389 OFFCURVE",
"368.573 -242.905 QCURVE",
"370.715 -250 LINE",
"349.878 -261.421 OFFCURVE",
"257.914 -287.77 OFFCURVE",
"209.51 -287.77 QCURVE SMOOTH",
"152.168 -287.77 OFFCURVE",
"91.855 -228.262 OFFCURVE",
"95.355 -178.492 QCURVE SMOOTH"
);
}
);
width = 649;
}
);
},
{
glyphname = acutecombstack.case;
layers = (
{
layerId = "33953612-DAF4-435D-999F-265D395630EB";
paths = (
{
closed = 1;
nodes = (
"546.702 1745.318 LINE",
"551.446 1739.738 LINE",
"277.56 1571.913 LINE",
"274.332 1576.46 LINE"
);
}
);
width = 649;
}
);
},
{
glyphname = brevecombstack.case;
layers = (
{
layerId = "33953612-DAF4-435D-999F-265D395630EB";
paths = (
{
closed = 1;
nodes = (
"599.229 1738.675 LINE",
"563.609 1639.754 OFFCURVE",
"464.094 1545.119 OFFCURVE",
"392.856 1545.119 QCURVE SMOOTH",
"322.102 1545.119 OFFCURVE",
"234.736 1639.754 OFFCURVE",
"210.896 1738.675 QCURVE",
"218.497 1741.222 LINE",
"242.625 1644.27 OFFCURVE",
"326.13 1553.182 OFFCURVE",
"393.368 1553.182 QCURVE SMOOTH",
"461.09 1553.182 OFFCURVE",
"556.887 1644.27 OFFCURVE",
"592.283 1741.222 QCURVE"
);
}
);
width = 649;
}
);
},
{
glyphname = circumflexcombstack.case;
layers = (
{
layerId = "33953612-DAF4-435D-999F-265D395630EB";
paths = (
{
closed = 1;
nodes = (
"550.335 1542.206 LINE",
"541.24 1542.206 LINE",
"401.234 1759.762 LINE",
"230.39 1542.206 LINE",
"221.295 1542.206 LINE",
"396.23 1766.794 LINE",
"407.262 1766.794 LINE"
);
}
);
width = 649;
}
);
},
{
glyphname = dieresiscombstack.case;
layers = (
{
layerId = "33953612-DAF4-435D-999F-265D395630EB";
paths = (
{
closed = 1;
nodes = (
"224.175 1621.246 OFFCURVE",
"235.716 1632.73 OFFCURVE",
"245.232 1632.73 QCURVE SMOOTH",
"254.747 1632.73 OFFCURVE",
"264.207 1621.246 OFFCURVE",
"263.61 1613.73 QCURVE SMOOTH",
"263.012 1605.698 OFFCURVE",
"250.988 1594.214 OFFCURVE",
"241.472 1594.214 QCURVE SMOOTH",
"231.956 1594.214 OFFCURVE",
"222.98 1605.698 OFFCURVE",
"223.578 1613.73 QCURVE SMOOTH"
);
},
{
closed = 1;
nodes = (
"519.279 1621.246 OFFCURVE",
"530.819 1632.73 OFFCURVE",
"540.819 1632.73 QCURVE SMOOTH",
"550.335 1632.73 OFFCURVE",
"559.31 1621.246 OFFCURVE",
"558.627 1613.246 QCURVE SMOOTH",
"558.03 1605.214 OFFCURVE",
"546.575 1594.214 OFFCURVE",
"537.059 1594.214 QCURVE SMOOTH",
"527.059 1594.214 OFFCURVE",
"517.998 1605.214 OFFCURVE",
"518.596 1613.246 QCURVE SMOOTH"
);
}
);
width = 649;
}
);
},
{
glyphname = dotaccentcombstack.case;
layers = (
{
layerId = "33953612-DAF4-435D-999F-265D395630EB";
paths = (
{
closed = 1;
nodes = (
"372.57 1589.23 OFFCURVE",
"385.734 1601.682 OFFCURVE",
"396.218 1601.682 QCURVE SMOOTH",
"406.702 1601.682 OFFCURVE",
"416.959 1589.23 OFFCURVE",
"416.191 1580.746 QCURVE SMOOTH",
"415.423 1571.746 OFFCURVE",
"402.259 1559.294 OFFCURVE",
"391.775 1559.294 QCURVE SMOOTH",
"381.291 1559.294 OFFCURVE",
"371.034 1571.746 OFFCURVE",
"371.802 1580.746 QCURVE SMOOTH"
);
}
);
width = 649;
}
);
},
{
glyphname = gravecombstack.case;
layers = (
{
layerId = "33953612-DAF4-435D-999F-265D395630EB";
paths = (
{
closed = 1;
nodes = (
"267.541 1739.738 LINE",
"273.313 1745.833 LINE",
"521.61 1576.976 LINE",
"517.354 1571.913 LINE"
);
}
);
width = 649;
}
);
},
{
glyphname = hookabovecombstack.case;
layers = (
{
layerId = "33953612-DAF4-435D-999F-265D395630EB";
paths = (
{
closed = 1;
nodes = (
"328.791 1567.81 LINE SMOOTH",
"329.133 1574.905 OFFCURVE",
"336.054 1581.484 OFFCURVE",
"347.181 1582 QCURVE SMOOTH",
"436.054 1585.095 OFFCURVE",
"516.57 1647.508 OFFCURVE",
"520.326 1699.762 QCURVE SMOOTH",
"523.741 1753.175 OFFCURVE",
"462.784 1811.135 OFFCURVE",
"405.157 1811.135 QCURVE SMOOTH",
"359.205 1811.135 OFFCURVE",
"276.381 1789.881 OFFCURVE",
"254.061 1776.302 QCURVE",
"249.972 1783.365 LINE",
"274.893 1797.429 OFFCURVE",
"360.233 1819.198 OFFCURVE",
"406.701 1819.198 QCURVE SMOOTH",
"467.844 1819.198 OFFCURVE",
"532.576 1757.206 OFFCURVE",
"528.905 1699.246 QCURVE SMOOTH",
"524.808 1642.992 OFFCURVE",
"437.542 1576.516 OFFCURVE",
"337.542 1573.421 QCURVE",
"336.346 1526.921 LINE",
"327.767 1526.921 LINE"
);
}
);
width = 649;
}
);
},
{
glyphname = macroncombstack.case;
layers = (
{
layerId = "33953612-DAF4-435D-999F-265D395630EB";
paths = (
{
closed = 1;
nodes = (
"208.746 1576.23 LINE",
"576.596 1576.23 LINE",
"576.083 1568.167 LINE",
"208.234 1568.167 LINE"
);
}
);
width = 649;
}
);
},
{
glyphname = tildecombstack.case;
layers = (
{
layerId = "33953612-DAF4-435D-999F-265D395630EB";
paths = (
{
closed = 1;
nodes = (
"216.802 1625.095 OFFCURVE",
"277.94 1662.54 OFFCURVE",
"315.638 1662.54 QCURVE SMOOTH",
"341.114 1662.54 OFFCURVE",
"389.302 1638.77 OFFCURVE",
"410.861 1624.643 QCURVE SMOOTH",
"433.053 1611 OFFCURVE",
"474.37 1591.778 OFFCURVE",
"497.33 1591.778 QCURVE SMOOTH",
"530.997 1591.778 OFFCURVE",
"581.496 1619.095 OFFCURVE",
"605.419 1654.476 QCURVE",
"610.334 1650.381 LINE",
"585.5 1612.063 OFFCURVE",
"531.485 1583.714 OFFCURVE",
"495.786 1583.714 QCURVE SMOOTH",
"471.342 1583.714 OFFCURVE",
"424.218 1606.452 OFFCURVE",
"406.035 1618.063 QCURVE SMOOTH",
"385.907 1631.19 OFFCURVE",
"338.086 1654.476 OFFCURVE",
"314.61 1654.476 QCURVE SMOOTH",
"277.364 1654.476 OFFCURVE",
"219.827 1617.516 OFFCURVE",
"195.334 1583.714 QCURVE",
"190.59 1588.778 LINE"
);
}
);
width = 649;
}
);
},
{
glyphname = caroncomb.alt;
layers = (
{
layerId = "33953612-DAF4-435D-999F-265D395630EB";
paths = (
{
closed = 1;
nodes = (
"443.81 1431.048 LINE SMOOTH",
"451.272 1429.016 LINE",
"300.771 1081 LINE",
"293.91 1083 LINE"
);
}
);
width = 649;
}
);
},
{
glyphname = dollar.rvrn;
layers = (
{
layerId = "33953612-DAF4-435D-999F-265D395630EB";
paths = (
{
closed = 1;
nodes = (
"22 430 LINE",
"30 430 LINE",
"15 309 LINE",
"0 131 OFFCURVE",
"140 -5 OFFCURVE",
"289 -4 QCURVE SMOOTH",
"437 -4 OFFCURVE",
"613 144 OFFCURVE",
"643 336 QCURVE SMOOTH",
"671 510 OFFCURVE",
"580 684 OFFCURVE",
"414 771 QCURVE SMOOTH",
"242 854 OFFCURVE",
"132 1006 OFFCURVE",
"157 1172 QCURVE SMOOTH",
"184 1329 OFFCURVE",
"355 1469 OFFCURVE",
"500 1469 QCURVE SMOOTH",
"653 1469 OFFCURVE",
"768 1312 OFFCURVE",
"752 1169 QCURVE SMOOTH",
"736 1054 LINE",
"727 1054 LINE",
"743 1167 LINE",
"759 1306 OFFCURVE",
"646 1461 OFFCURVE",
"499 1461 QCURVE SMOOTH",
"357 1461 OFFCURVE",
"191 1325 OFFCURVE",
"165 1172 QCURVE SMOOTH",
"140 1010 OFFCURVE",
"253 861 OFFCURVE",
"419 776 QCURVE SMOOTH",
"591 691 OFFCURVE",
"679 513 OFFCURVE",
"651 336 QCURVE SMOOTH",
"620 140 OFFCURVE",
"439 -12 OFFCURVE",
"288 -12 QCURVE SMOOTH",
"129 -12 OFFCURVE",
"-9 132 OFFCURVE",
"6 301 QCURVE SMOOTH"
);
},
{
closed = 1;
nodes = (
"269 -5 LINE",
"277 -5 LINE",
"277 -6 LINE",
"277 -11 LINE",
"254 -150 LINE",
"246 -150 LINE"
);
},
{
closed = 1;
nodes = (
"504 1463 LINE",
"504 1465 LINE",
"525 1607 LINE",
"532 1607 LINE",
"509 1462 LINE",
"504 1462 LINE"
);
}
);
width = 780;
}
);
},
{
glyphname = zero.prop;
layers = (
{
layerId = "33953612-DAF4-435D-999F-265D395630EB";
paths = (
{
closed = 1;
nodes = (
"127.024 1148.5 LINE SMOOTH",
"134.195 1302.659 OFFCURVE",
"285.593 1473.413 OFFCURVE",
"415.545 1473.413 QCURVE SMOOTH",
"544.95 1473.413 OFFCURVE",
"686.282 1302.659 OFFCURVE",
"679.111 1148.5 QCURVE SMOOTH",
"580.259 311.373 LINE SMOOTH",
"572.832 155.762 OFFCURVE",
"419.976 -17.413 OFFCURVE",
"290.571 -17.413 QCURVE SMOOTH",
"160.619 -17.413 OFFCURVE",
"20.745 155.762 OFFCURVE",
"28.172 311.373 QCURVE SMOOTH"
);
},
{
closed = 1;
nodes = (
"124.071 193.81 OFFCURVE",
"203.853 67 OFFCURVE",
"291.083 67 QCURVE SMOOTH",
"378.798 67 OFFCURVE",
"470.19 193.81 OFFCURVE",
"477.275 306.214 QCURVE SMOOTH",
"575.957 1152.69 LINE SMOOTH",
"582.957 1264.611 OFFCURVE",
"502.747 1389 OFFCURVE",
"415.033 1389 QCURVE SMOOTH",
"327.803 1389 OFFCURVE",
"236.837 1264.611 OFFCURVE",
"229.838 1152.69 QCURVE SMOOTH",
"131.156 306.214 LINE SMOOTH"
);
}
);
width = 706;
}
);
},
{
glyphname = one.prop;
layers = (
{
layerId = "33953612-DAF4-435D-999F-265D395630EB";
paths = (
{
closed = 1;
nodes = (
"329.82 1343.762 LINE",
"75.112 1222.651 LINE",
"74.343 1322.476 LINE",
"413.989 1466.318 LINE",
"432.37 1466.318 LINE",
"308.079 0 LINE",
"206.127 0 LINE"
);
}
);
width = 490;
}
);
},
{
glyphname = two.prop;
layers = (
{
layerId = "33953612-DAF4-435D-999F-265D395630EB";
paths = (
{
closed = 1;
nodes = (
"-33.206 74.159 LINE",
"344.244 683.056 LINE SMOOTH",
"421.721 809.032 OFFCURVE",
"503.473 984.357 OFFCURVE",
"518.668 1122.119 QCURVE SMOOTH",
"534.802 1265.206 OFFCURVE",
"458.118 1389.484 OFFCURVE",
"377.333 1389.484 QCURVE SMOOTH",
"297.031 1389.484 OFFCURVE",
"183.953 1261.984 OFFCURVE",
"172.941 1127.31 QCURVE SMOOTH",
"157.917 1036.944 LINE",
"56.996 1036.944 LINE",
"72.02 1127.31 LINE SMOOTH",
"83.459 1295.357 OFFCURVE",
"254.821 1473.897 OFFCURVE",
"377.845 1473.897 QCURVE SMOOTH",
"501.353 1473.897 OFFCURVE",
"636.064 1303.254 OFFCURVE",
"619.589 1127.278 QCURVE SMOOTH",
"604.223 966.881 OFFCURVE",
"494.87 761.024 OFFCURVE",
"411.376 627.437 QCURVE SMOOTH",
"88.52 83.381 LINE",
"547.409 83.381 LINE",
"546.897 0 LINE",
"-33.548 0 LINE"
);
}
);
width = 620;
}
);
},
{
glyphname = three.prop;
layers = (
{
layerId = "33953612-DAF4-435D-999F-265D395630EB";
paths = (
{
closed = 1;
nodes = (
"-4.471 392.421 LINE",
"94.386 392.421 LINE",
"79.447 302.54 LINE SMOOTH",
"69.203 182.54 OFFCURVE",
"159.837 67 OFFCURVE",
"247.298 67 QCURVE SMOOTH",
"333.79 67 OFFCURVE",
"439.326 183.508 OFFCURVE",
"458.96 367.079 QCURVE SMOOTH",
"478.935 552.587 OFFCURVE",
"391.71 717.825 OFFCURVE",
"293.028 717.825 QCURVE SMOOTH",
"219.663 717.825 LINE",
"220.175 800.175 LINE",
"286.929 800.175 LINE SMOOTH",
"374.58 800.175 OFFCURVE",
"481.252 953.056 OFFCURVE",
"496.106 1099.198 QCURVE SMOOTH",
"517.959 1285.04 OFFCURVE",
"443.087 1389.484 OFFCURVE",
"368.912 1389.484 QCURVE SMOOTH",
"293.769 1389.484 OFFCURVE",
"200.53 1281.167 OFFCURVE",
"192.933 1181.333 QCURVE SMOOTH",
"177.311 1087.579 LINE",
"78.454 1087.579 LINE",
"94.076 1181.333 LINE SMOOTH",
"101.759 1307.444 OFFCURVE",
"251.559 1473.897 OFFCURVE",
"369.908 1473.897 QCURVE SMOOTH",
"486.321 1473.897 OFFCURVE",
"619.997 1316.476 OFFCURVE",
"597.973 1103.873 QCURVE SMOOTH",
"583.119 968.048 OFFCURVE",
"496.54 791.794 OFFCURVE",
"424.169 763.579 QCURVE",
"423.998 760.548 LINE",
"506.569 742.103 OFFCURVE",
"582.602 556.46 OFFCURVE",
"561.944 367.595 QCURVE SMOOTH",
"542.14 151.587 OFFCURVE",
"374.968 -17.413 OFFCURVE",
"246.786 -17.413 QCURVE SMOOTH",
"117.635 -17.413 OFFCURVE",
"-29.739 151.103 OFFCURVE",
"-19.41 302.54 QCURVE SMOOTH"
);
}
);
width = 652;
}
);
},
{
glyphname = four.prop;
layers = (
{
layerId = "33953612-DAF4-435D-999F-265D395630EB";
paths = (
{
closed = 1;
nodes = (
"367.526 387.349 LINE",
"367.867 416.111 LINE",
"459.207 1294.722 LINE",
"450.112 1294.722 LINE",
"84.087 442.389 LINE",
"395.714 442.389 LINE",
"437.373 442.389 LINE",
"591.706 442.389 LINE",
"591.194 357.976 LINE",
"-31.822 357.976 LINE",
"-31.053 427.333 LINE",
"459.005 1456 LINE",
"555.481 1456 LINE",
"431.19 0 LINE",
"335.429 0 LINE"
);
}
);
width = 631;
}
);
},
{
glyphname = five.prop;
layers = (
{
layerId = "33953612-DAF4-435D-999F-265D395630EB";
paths = (
{
closed = 1;
nodes = (
"10.927 382.262 LINE",
"108.753 382.262 LINE",
"93.216 288.992 LINE SMOOTH",
"83.03 171.73 OFFCURVE",
"175.472 67 OFFCURVE",
"263.837 67 QCURVE SMOOTH",
"349.782 67 OFFCURVE",
"464.172 211.563 OFFCURVE",
"494.306 465 QCURVE SMOOTH",
"525.208 722.794 OFFCURVE",
"430.91 848.19 OFFCURVE",
"346.902 848.19 QCURVE SMOOTH",
"286.434 848.19 OFFCURVE",
"191.098 787.548 OFFCURVE",
"148.304 716.897 QCURVE",
"77.304 748.881 LINE",
"184.291 1456 LINE",
"635.775 1456 LINE",
"635.263 1365.397 LINE",
"267.16 1365.397 LINE",
"178.637 838.238 LINE",
"212.856 882.278 OFFCURVE",
"307.097 933.119 OFFCURVE",
"363.374 933.119 QCURVE SMOOTH",
"478.335 933.119 OFFCURVE",
"626.555 761.325 OFFCURVE",
"595.226 465 QCURVE SMOOTH",
"564.751 173.516 OFFCURVE",
"393.928 -17.413 OFFCURVE",
"262.841 -17.413 QCURVE SMOOTH",
"130.786 -17.413 OFFCURVE",
"-15.194 141.262 OFFCURVE",
"-4.609 288.992 QCURVE SMOOTH"
);
}
);
width = 663;
}
);
},
{
glyphname = six.prop;
layers = (
{
layerId = "33953612-DAF4-435D-999F-265D395630EB";
paths = (
{
closed = 1;
nodes = (
"47.832 644 LINE SMOOTH",
"92.392 1092.746 OFFCURVE",
"358.678 1473.897 OFFCURVE",
"589.083 1473.897 QCURVE SMOOTH",
"608.115 1473.897 LINE",
"607.602 1389.484 LINE",
"588.571 1389.484 LINE SMOOTH",
"412.174 1389.484 OFFCURVE",
"191.598 1078.556 OFFCURVE",
"146.867 644.317 QCURVE SMOOTH",
"145.16 608.841 LINE SMOOTH",
"105.978 252.5 OFFCURVE",
"202.76 66.516 OFFCURVE",
"301.125 66.516 QCURVE SMOOTH",
"394.165 66.516 OFFCURVE",
"502.334 224.119 OFFCURVE",
"529.309 459.643 QCURVE SMOOTH",
"556.284 695.167 OFFCURVE",
"471.394 830.921 OFFCURVE",
"378.354 830.921 QCURVE SMOOTH",
"285.148 830.921 OFFCURVE",
"141.809 617.706 OFFCURVE",
"128.919 462.064 QCURVE",
"90.387 462.064 LINE",
"105.326 660.278 OFFCURVE",
"269.7 915.333 OFFCURVE",
"399.017 915.333 QCURVE SMOOTH",
"524.462 915.333 OFFCURVE",
"657.632 728.54 OFFCURVE",
"630.23 459.643 QCURVE SMOOTH",
"602.998 191.714 OFFCURVE",
"432.184 -17.897 OFFCURVE",
"299.645 -17.897 QCURVE SMOOTH",
"165.653 -17.897 OFFCURVE",
"5.747 214.452 OFFCURVE",
"45.271 614 QCURVE SMOOTH"
);
}
);
width = 696;
}
);
},
{
glyphname = seven.prop;
layers = (
{
layerId = "33953612-DAF4-435D-999F-265D395630EB";
paths = (
{
closed = 1;
nodes = (
"510.66 1372.619 LINE",
"65.104 1372.619 LINE",
"65.616 1456 LINE",
"616.704 1456 LINE",
"616.362 1400.413 LINE",
"187.27 0 LINE",
"82.77 0 LINE"
);
}
);
width = 565;
}
);
},
{
glyphname = eight.prop;
layers = (
{
layerId = "33953612-DAF4-435D-999F-265D395630EB";
paths = (
{
closed = 1;
nodes = (
"50.479 539.238 OFFCURVE",
"153.708 720.754 OFFCURVE",
"235.891 747.841 QCURVE",
"235.891 749.905 LINE",
"169.853 775.476 OFFCURVE",
"114.707 954.897 OFFCURVE",
"130.5 1106.365 QCURVE SMOOTH",
"149.365 1306.214 OFFCURVE",
"301.956 1473.897 OFFCURVE",
"416.115 1473.897 QCURVE SMOOTH",
"530.757 1473.897 OFFCURVE",
"663.97 1305.73 OFFCURVE",
"645.19 1106.365 QCURVE SMOOTH",
"629.312 954.413 OFFCURVE",
"542.296 775.96 OFFCURVE",
"475.946 749.905 QCURVE",
"475.946 747.841 LINE",
"558.615 720.27 OFFCURVE",
"627.695 536.817 OFFCURVE",
"612.159 381.643 QCURVE SMOOTH",
"594.915 181.706 OFFCURVE",
"419.405 -17.413 OFFCURVE",
"291.055 -17.413 QCURVE SMOOTH",
"162.706 -17.413 OFFCURVE",
"16.845 179.286 OFFCURVE",
"34.516 381.643 QCURVE SMOOTH"
);
},
{
closed = 1;
nodes = (
"117.076 226.619 OFFCURVE",
"202.234 67 OFFCURVE",
"291.568 67 QCURVE SMOOTH",
"380.901 67 OFFCURVE",
"495.368 229.04 OFFCURVE",
"512.27 386.802 QCURVE SMOOTH",
"527.465 534.881 OFFCURVE",
"451.531 706.667 OFFCURVE",
"355.42 706.667 QCURVE SMOOTH",
"261.73 706.667 OFFCURVE",
"150.026 537.302 OFFCURVE",
"134.405 386.802 QCURVE SMOOTH"
);
},
{
closed = 1;
nodes = (
"212.646 958.286 OFFCURVE",
"274.496 791.079 OFFCURVE",
"355.932 791.079 QCURVE SMOOTH",
"437.369 791.079 OFFCURVE",
"532.255 958.77 OFFCURVE",
"547.365 1101.206 QCURVE SMOOTH",
"564.95 1257.682 OFFCURVE",
"493.65 1389.484 OFFCURVE",
"415.602 1389.484 QCURVE SMOOTH",
"338.039 1389.484 OFFCURVE",
"245.426 1257.682 OFFCURVE",
"227.841 1101.206 QCURVE SMOOTH"
);
}
);
width = 706;
}
);
},
{
glyphname = nine.prop;
layers = (
{
layerId = "33953612-DAF4-435D-999F-265D395630EB";
paths = (
{
closed = 1;
nodes = (
"94.053 1271.738 OFFCURVE",
"264.099 1473.897 OFFCURVE",
"396.638 1473.897 QCURVE SMOOTH",
"530.63 1473.897 OFFCURVE",
"691.304 1245.905 OFFCURVE",
"651.012 842 QCURVE SMOOTH",
"648.451 812 LINE SMOOTH",
"603.891 363.254 OFFCURVE",
"337.605 -17.897 OFFCURVE",
"107.2 -17.897 QCURVE SMOOTH",
"88.168 -17.897 LINE",
"88.681 66.516 LINE",
"107.712 66.516 LINE SMOOTH",
"284.109 66.516 OFFCURVE",
"504.685 377.444 OFFCURVE",
"549.416 811.683 QCURVE SMOOTH",
"551.123 847.159 LINE SMOOTH",
"591.074 1207.857 OFFCURVE",
"493.523 1389.484 OFFCURVE",
"395.158 1389.484 QCURVE SMOOTH",
"302.118 1389.484 OFFCURVE",
"194.717 1238.818 OFFCURVE",
"166.974 1001.516 QCURVE SMOOTH",
"139.999 768.571 OFFCURVE",
"221.984 635.397 OFFCURVE",
"314.54 635.397 QCURVE SMOOTH",
"412.587 635.397 OFFCURVE",
"554.474 846.032 OFFCURVE",
"567.364 999.095 QCURVE",
"605.896 999.095 LINE",
"590.957 802.944 OFFCURVE",
"428.035 550.984 OFFCURVE",
"293.393 550.984 QCURVE SMOOTH",
"167.98 550.984 OFFCURVE",
"38.651 734.683 OFFCURVE",
"66.053 1001.516 QCURVE SMOOTH"
);
}
);
width = 696;
}
);
},
